%FSLAX25Y25*%
%MOIN*%
G70*
G01*
G75*
G04 Layer_Color=16711935*
%ADD10C,0.03937*%
%ADD11R,0.03937X0.04724*%
%ADD12C,0.03937*%
%ADD13O,0.07874X0.02400*%
%ADD14R,0.04724X0.03150*%
%ADD15R,0.04724X0.03937*%
%ADD16R,0.02756X0.04724*%
%ADD17R,0.11024X0.09055*%
%ADD18R,0.03150X0.03150*%
%ADD19O,0.10000X0.02400*%
%ADD20O,0.10000X0.02402*%
%ADD21O,0.07874X0.02402*%
%ADD22R,0.05118X0.06299*%
%ADD23C,0.03000*%
%ADD24C,0.02000*%
%ADD25C,0.01500*%
%ADD26C,0.04000*%
%ADD27C,0.01600*%
%ADD28C,0.05000*%
%ADD29C,0.01969*%
%ADD30C,0.07087*%
%ADD31C,0.08661*%
%ADD32R,0.05906X0.05906*%
%ADD33C,0.05906*%
%ADD34C,0.10630*%
%ADD35R,0.07087X0.07087*%
%ADD36C,0.11024*%
%ADD37R,0.10630X0.10630*%
%ADD38C,0.07874*%
%ADD39R,0.07874X0.07874*%
%ADD40C,0.09843*%
%ADD41R,0.09843X0.09843*%
%ADD42C,0.06299*%
%ADD43C,0.02400*%
%ADD44C,0.03600*%
%ADD45C,0.00787*%
%ADD46C,0.00984*%
%ADD47C,0.02362*%
%ADD48C,0.01000*%
%ADD49C,0.00394*%
%ADD50R,0.01378X0.17323*%
%ADD51C,0.05906*%
%ADD52R,0.04737X0.05524*%
%ADD53C,0.04737*%
%ADD54O,0.08674X0.03200*%
%ADD55R,0.05524X0.03950*%
%ADD56R,0.05524X0.04737*%
%ADD57R,0.03556X0.05524*%
%ADD58R,0.11824X0.09855*%
%ADD59R,0.03950X0.03950*%
%ADD60O,0.10800X0.03200*%
%ADD61O,0.10800X0.03202*%
%ADD62O,0.08674X0.03202*%
%ADD63R,0.05918X0.07099*%
%ADD64C,0.07887*%
%ADD65C,0.09461*%
%ADD66R,0.06706X0.06706*%
%ADD67C,0.06706*%
%ADD68C,0.11430*%
%ADD69R,0.07887X0.07887*%
%ADD70C,0.11824*%
%ADD71R,0.11430X0.11430*%
%ADD72C,0.08674*%
%ADD73R,0.08674X0.08674*%
%ADD74C,0.10642*%
%ADD75R,0.10642X0.10642*%
%ADD76C,0.07099*%
%ADD77C,0.03200*%
D10*
X306886Y389090D02*
X309669Y391874D01*
Y411480D02*
X312453Y414264D01*
X318276Y94874D02*
X321059Y92090D01*
X295885Y97658D02*
X298669Y94874D01*
D29*
X0Y0D02*
X393701D01*
Y453150D01*
X0D02*
X393701D01*
X0Y397795D02*
Y453150D01*
X0Y397796D02*
X0Y397795D01*
X-54134Y397796D02*
X0D01*
X-54134Y397796D02*
X-54134Y397796D01*
X-54134Y59213D02*
Y397796D01*
Y59213D02*
X0D01*
Y0D02*
Y59213D01*
D51*
X32654Y440874D02*
G03*
X32654Y440874I-984J0D01*
G01*
X367154Y47374D02*
G03*
X367154Y47374I-984J0D01*
G01*
D53*
X31669Y440874D02*
D03*
X366169Y47374D02*
D03*
D64*
X369091Y400732D02*
D03*
Y383016D02*
D03*
X309669Y411559D02*
D03*
Y391874D02*
D03*
X298669Y94874D02*
D03*
X318354D02*
D03*
X341169Y360874D02*
D03*
Y370874D02*
D03*
Y380874D02*
D03*
Y390874D02*
D03*
X35669Y102874D02*
D03*
Y82874D02*
D03*
Y42874D02*
D03*
Y62559D02*
D03*
X58669Y49874D02*
D03*
X68669Y79402D02*
D03*
D65*
X359248Y378095D02*
D03*
Y405654D02*
D03*
D66*
X386169Y250874D02*
D03*
D67*
Y260874D02*
D03*
Y270874D02*
D03*
Y280874D02*
D03*
X356169Y250874D02*
D03*
Y260874D02*
D03*
Y270874D02*
D03*
Y280874D02*
D03*
X371669Y313874D02*
D03*
D68*
X353669Y161374D02*
D03*
Y181374D02*
D03*
Y201374D02*
D03*
X-12331Y347874D02*
D03*
Y367874D02*
D03*
Y307874D02*
D03*
Y327874D02*
D03*
Y267874D02*
D03*
Y287874D02*
D03*
D69*
X341169Y400874D02*
D03*
D70*
X-12331Y155874D02*
D03*
Y125874D02*
D03*
Y95874D02*
D03*
Y185874D02*
D03*
Y215874D02*
D03*
D71*
X353669Y221374D02*
D03*
D72*
X191630Y322221D02*
D03*
Y293874D02*
D03*
X126669D02*
D03*
X93169Y276689D02*
D03*
Y296374D02*
D03*
X72484Y231374D02*
D03*
X92169D02*
D03*
X72484Y189874D02*
D03*
X92169D02*
D03*
X191630Y208721D02*
D03*
Y180374D02*
D03*
X126669D02*
D03*
X191630Y265721D02*
D03*
Y237374D02*
D03*
X126669D02*
D03*
D73*
Y322221D02*
D03*
Y208721D02*
D03*
Y265721D02*
D03*
D74*
X256669Y68126D02*
D03*
Y83874D02*
D03*
Y131118D02*
D03*
Y115370D02*
D03*
Y99622D02*
D03*
X97221Y50410D02*
D03*
Y99622D02*
D03*
D75*
Y148835D02*
D03*
D76*
X371669Y303874D02*
D03*
D77*
X312669Y342874D02*
D03*
X370669Y348374D02*
D03*
X386614Y326772D02*
D03*
Y350394D02*
D03*
Y370079D02*
D03*
Y417323D02*
D03*
M02*
