%FSLAX25Y25*%
%MOIN*%
G70*
G01*
G75*
G04 Layer_Color=65535*
%ADD10C,0.03937*%
%ADD11R,0.03937X0.04724*%
%ADD12C,0.03937*%
%ADD13O,0.07874X0.02400*%
%ADD14R,0.04724X0.03150*%
%ADD15R,0.04724X0.03937*%
%ADD16R,0.02756X0.04724*%
%ADD17R,0.11024X0.09055*%
%ADD18R,0.03150X0.03150*%
%ADD19O,0.10000X0.02400*%
%ADD20O,0.10000X0.02402*%
%ADD21O,0.07874X0.02402*%
%ADD22R,0.05118X0.06299*%
%ADD23C,0.03000*%
%ADD24C,0.02000*%
%ADD25C,0.01500*%
%ADD26C,0.04000*%
%ADD27C,0.01600*%
%ADD28C,0.05000*%
%ADD29C,0.01969*%
%ADD30C,0.07087*%
%ADD31C,0.08661*%
%ADD32R,0.05906X0.05906*%
%ADD33C,0.05906*%
%ADD34C,0.10630*%
%ADD35R,0.07087X0.07087*%
%ADD36C,0.11024*%
%ADD37R,0.10630X0.10630*%
%ADD38C,0.07874*%
%ADD39R,0.07874X0.07874*%
%ADD40C,0.09843*%
%ADD41R,0.09843X0.09843*%
%ADD42C,0.06299*%
%ADD43C,0.02400*%
%ADD44C,0.03600*%
%ADD45C,0.00787*%
%ADD46C,0.00984*%
%ADD47C,0.02362*%
%ADD48C,0.01000*%
%ADD49C,0.00394*%
%ADD50R,0.01378X0.17323*%
G36*
X148351Y195177D02*
X146180Y192518D01*
X145953Y192246D01*
X148412D01*
Y191791D01*
X145370D01*
Y192263D01*
X147340Y194716D01*
Y194722D01*
X147352Y194727D01*
X147379Y194761D01*
X147418Y194811D01*
X147468Y194872D01*
X147529Y194944D01*
X147596Y195021D01*
X147668Y195099D01*
X147740Y195177D01*
X145592D01*
Y195632D01*
X148351D01*
Y195177D01*
D02*
G37*
G36*
X164451Y195643D02*
X164523Y195632D01*
X164606Y195615D01*
X164695Y195593D01*
X164790Y195565D01*
X164878Y195521D01*
X164884D01*
X164890Y195516D01*
X164917Y195499D01*
X164962Y195471D01*
X165017Y195432D01*
X165078Y195377D01*
X165145Y195316D01*
X165206Y195244D01*
X165267Y195160D01*
X165272Y195149D01*
X165295Y195121D01*
X165317Y195071D01*
X165356Y194999D01*
X165389Y194916D01*
X165433Y194822D01*
X165472Y194711D01*
X165506Y194589D01*
Y194583D01*
X165511Y194572D01*
X165517Y194555D01*
X165522Y194528D01*
X165528Y194494D01*
X165533Y194455D01*
X165544Y194405D01*
X165550Y194350D01*
X165561Y194289D01*
X165567Y194222D01*
X165572Y194145D01*
X165583Y194067D01*
X165589Y193978D01*
Y193889D01*
X165594Y193789D01*
Y193684D01*
Y193678D01*
Y193656D01*
Y193617D01*
Y193573D01*
X165589Y193512D01*
Y193445D01*
X165583Y193373D01*
X165578Y193296D01*
X165561Y193118D01*
X165533Y192935D01*
X165500Y192757D01*
X165478Y192674D01*
X165450Y192591D01*
Y192585D01*
X165445Y192574D01*
X165433Y192552D01*
X165422Y192524D01*
X165411Y192485D01*
X165389Y192446D01*
X165345Y192352D01*
X165289Y192252D01*
X165217Y192141D01*
X165134Y192041D01*
X165034Y191947D01*
X165028D01*
X165023Y191936D01*
X165006Y191925D01*
X164984Y191913D01*
X164956Y191897D01*
X164928Y191875D01*
X164845Y191836D01*
X164745Y191797D01*
X164629Y191758D01*
X164490Y191736D01*
X164340Y191725D01*
X164285D01*
X164246Y191730D01*
X164201Y191736D01*
X164146Y191747D01*
X164085Y191758D01*
X164018Y191775D01*
X163952Y191797D01*
X163879Y191819D01*
X163807Y191852D01*
X163735Y191891D01*
X163663Y191936D01*
X163591Y191991D01*
X163524Y192052D01*
X163463Y192119D01*
X163458Y192124D01*
X163446Y192141D01*
X163430Y192169D01*
X163402Y192213D01*
X163374Y192263D01*
X163347Y192330D01*
X163308Y192408D01*
X163275Y192496D01*
X163241Y192596D01*
X163208Y192713D01*
X163174Y192840D01*
X163147Y192985D01*
X163119Y193140D01*
X163102Y193307D01*
X163091Y193490D01*
X163086Y193684D01*
Y193690D01*
Y193712D01*
Y193751D01*
Y193795D01*
X163091Y193856D01*
Y193923D01*
X163097Y193995D01*
X163102Y194078D01*
X163119Y194250D01*
X163147Y194433D01*
X163180Y194616D01*
X163202Y194700D01*
X163224Y194783D01*
Y194788D01*
X163230Y194799D01*
X163241Y194822D01*
X163252Y194850D01*
X163263Y194888D01*
X163286Y194927D01*
X163330Y195021D01*
X163385Y195121D01*
X163458Y195227D01*
X163541Y195332D01*
X163641Y195421D01*
X163646D01*
X163652Y195432D01*
X163669Y195443D01*
X163691Y195454D01*
X163718Y195477D01*
X163752Y195493D01*
X163835Y195538D01*
X163935Y195577D01*
X164051Y195615D01*
X164190Y195638D01*
X164340Y195649D01*
X164390D01*
X164451Y195643D01*
D02*
G37*
G36*
X152607Y248791D02*
X152119D01*
Y252005D01*
X150998Y248791D01*
X150543D01*
X149433Y252060D01*
Y248791D01*
X148944D01*
Y252632D01*
X149705D01*
X150615Y249907D01*
Y249901D01*
X150620Y249890D01*
X150626Y249874D01*
X150637Y249846D01*
X150659Y249779D01*
X150687Y249696D01*
X150715Y249602D01*
X150748Y249507D01*
X150776Y249419D01*
X150798Y249341D01*
X150804Y249352D01*
X150809Y249380D01*
X150826Y249430D01*
X150848Y249496D01*
X150876Y249585D01*
X150915Y249691D01*
X150953Y249813D01*
X151003Y249957D01*
X151925Y252632D01*
X152607D01*
Y248791D01*
D02*
G37*
G36*
X161876Y191791D02*
X161404D01*
Y194794D01*
X161399Y194788D01*
X161371Y194766D01*
X161337Y194733D01*
X161282Y194694D01*
X161221Y194644D01*
X161143Y194589D01*
X161054Y194528D01*
X160954Y194466D01*
X160949D01*
X160943Y194461D01*
X160910Y194439D01*
X160855Y194411D01*
X160788Y194378D01*
X160710Y194339D01*
X160627Y194300D01*
X160544Y194261D01*
X160461Y194228D01*
Y194683D01*
X160466D01*
X160477Y194694D01*
X160500Y194700D01*
X160527Y194716D01*
X160561Y194733D01*
X160599Y194755D01*
X160694Y194811D01*
X160805Y194872D01*
X160916Y194949D01*
X161032Y195038D01*
X161149Y195133D01*
X161154Y195138D01*
X161160Y195144D01*
X161177Y195160D01*
X161199Y195177D01*
X161249Y195232D01*
X161315Y195299D01*
X161382Y195377D01*
X161454Y195466D01*
X161515Y195554D01*
X161571Y195649D01*
X161876D01*
Y191791D01*
D02*
G37*
G36*
X159767Y195177D02*
X158501D01*
Y191791D01*
X157991D01*
Y195177D01*
X156726D01*
Y195632D01*
X159767D01*
Y195177D01*
D02*
G37*
G36*
X155094Y195626D02*
X155188Y195621D01*
X155288Y195615D01*
X155382Y195604D01*
X155466Y195593D01*
X155477D01*
X155516Y195582D01*
X155566Y195571D01*
X155632Y195554D01*
X155704Y195527D01*
X155782Y195493D01*
X155865Y195454D01*
X155937Y195410D01*
X155948Y195405D01*
X155971Y195388D01*
X156004Y195354D01*
X156048Y195316D01*
X156098Y195266D01*
X156148Y195199D01*
X156204Y195127D01*
X156248Y195044D01*
X156254Y195033D01*
X156265Y195005D01*
X156287Y194955D01*
X156309Y194888D01*
X156326Y194811D01*
X156348Y194722D01*
X156359Y194622D01*
X156365Y194517D01*
Y194511D01*
Y194494D01*
Y194472D01*
X156359Y194433D01*
X156354Y194394D01*
X156348Y194344D01*
X156337Y194289D01*
X156326Y194228D01*
X156287Y194100D01*
X156265Y194034D01*
X156231Y193962D01*
X156193Y193889D01*
X156154Y193823D01*
X156104Y193756D01*
X156048Y193690D01*
X156043Y193684D01*
X156032Y193673D01*
X156015Y193656D01*
X155987Y193640D01*
X155954Y193612D01*
X155910Y193584D01*
X155854Y193551D01*
X155793Y193523D01*
X155721Y193490D01*
X155638Y193456D01*
X155549Y193429D01*
X155443Y193406D01*
X155332Y193384D01*
X155210Y193368D01*
X155072Y193357D01*
X154927Y193351D01*
X153945D01*
Y191791D01*
X153434D01*
Y195632D01*
X155010D01*
X155094Y195626D01*
D02*
G37*
G36*
Y252626D02*
X155188Y252621D01*
X155288Y252615D01*
X155382Y252604D01*
X155466Y252593D01*
X155477D01*
X155516Y252582D01*
X155566Y252571D01*
X155632Y252554D01*
X155704Y252527D01*
X155782Y252493D01*
X155865Y252454D01*
X155937Y252410D01*
X155948Y252404D01*
X155971Y252388D01*
X156004Y252355D01*
X156048Y252316D01*
X156098Y252266D01*
X156148Y252199D01*
X156204Y252127D01*
X156248Y252044D01*
X156254Y252033D01*
X156265Y252005D01*
X156287Y251955D01*
X156309Y251888D01*
X156326Y251811D01*
X156348Y251722D01*
X156359Y251622D01*
X156365Y251517D01*
Y251511D01*
Y251494D01*
Y251472D01*
X156359Y251433D01*
X156354Y251394D01*
X156348Y251344D01*
X156337Y251289D01*
X156326Y251228D01*
X156287Y251100D01*
X156265Y251034D01*
X156231Y250961D01*
X156193Y250889D01*
X156154Y250823D01*
X156104Y250756D01*
X156048Y250690D01*
X156043Y250684D01*
X156032Y250673D01*
X156015Y250656D01*
X155987Y250640D01*
X155954Y250612D01*
X155910Y250584D01*
X155854Y250551D01*
X155793Y250523D01*
X155721Y250490D01*
X155638Y250456D01*
X155549Y250429D01*
X155443Y250407D01*
X155332Y250384D01*
X155210Y250368D01*
X155072Y250357D01*
X154927Y250351D01*
X153945D01*
Y248791D01*
X153434D01*
Y252632D01*
X155010D01*
X155094Y252626D01*
D02*
G37*
G36*
X148351Y252177D02*
X146180Y249518D01*
X145953Y249247D01*
X148412D01*
Y248791D01*
X145370D01*
Y249263D01*
X147340Y251716D01*
Y251722D01*
X147352Y251727D01*
X147379Y251761D01*
X147418Y251811D01*
X147468Y251872D01*
X147529Y251944D01*
X147596Y252022D01*
X147668Y252099D01*
X147740Y252177D01*
X145592D01*
Y252632D01*
X148351D01*
Y252177D01*
D02*
G37*
G36*
X164451Y252643D02*
X164523Y252632D01*
X164606Y252615D01*
X164695Y252593D01*
X164790Y252565D01*
X164878Y252521D01*
X164884D01*
X164890Y252516D01*
X164917Y252499D01*
X164962Y252471D01*
X165017Y252432D01*
X165078Y252377D01*
X165145Y252316D01*
X165206Y252243D01*
X165267Y252160D01*
X165272Y252149D01*
X165295Y252121D01*
X165317Y252071D01*
X165356Y251999D01*
X165389Y251916D01*
X165433Y251822D01*
X165472Y251711D01*
X165506Y251589D01*
Y251583D01*
X165511Y251572D01*
X165517Y251555D01*
X165522Y251528D01*
X165528Y251494D01*
X165533Y251455D01*
X165544Y251406D01*
X165550Y251350D01*
X165561Y251289D01*
X165567Y251222D01*
X165572Y251145D01*
X165583Y251067D01*
X165589Y250978D01*
Y250889D01*
X165594Y250789D01*
Y250684D01*
Y250678D01*
Y250656D01*
Y250617D01*
Y250573D01*
X165589Y250512D01*
Y250445D01*
X165583Y250373D01*
X165578Y250295D01*
X165561Y250118D01*
X165533Y249935D01*
X165500Y249757D01*
X165478Y249674D01*
X165450Y249591D01*
Y249585D01*
X165445Y249574D01*
X165433Y249552D01*
X165422Y249524D01*
X165411Y249485D01*
X165389Y249446D01*
X165345Y249352D01*
X165289Y249252D01*
X165217Y249141D01*
X165134Y249041D01*
X165034Y248947D01*
X165028D01*
X165023Y248936D01*
X165006Y248925D01*
X164984Y248914D01*
X164956Y248897D01*
X164928Y248875D01*
X164845Y248836D01*
X164745Y248797D01*
X164629Y248758D01*
X164490Y248736D01*
X164340Y248725D01*
X164285D01*
X164246Y248730D01*
X164201Y248736D01*
X164146Y248747D01*
X164085Y248758D01*
X164018Y248775D01*
X163952Y248797D01*
X163879Y248819D01*
X163807Y248852D01*
X163735Y248891D01*
X163663Y248936D01*
X163591Y248991D01*
X163524Y249052D01*
X163463Y249119D01*
X163458Y249124D01*
X163446Y249141D01*
X163430Y249169D01*
X163402Y249213D01*
X163374Y249263D01*
X163347Y249330D01*
X163308Y249408D01*
X163275Y249496D01*
X163241Y249596D01*
X163208Y249713D01*
X163174Y249840D01*
X163147Y249985D01*
X163119Y250140D01*
X163102Y250307D01*
X163091Y250490D01*
X163086Y250684D01*
Y250690D01*
Y250712D01*
Y250751D01*
Y250795D01*
X163091Y250856D01*
Y250923D01*
X163097Y250995D01*
X163102Y251078D01*
X163119Y251250D01*
X163147Y251433D01*
X163180Y251616D01*
X163202Y251700D01*
X163224Y251783D01*
Y251788D01*
X163230Y251800D01*
X163241Y251822D01*
X163252Y251850D01*
X163263Y251888D01*
X163286Y251927D01*
X163330Y252022D01*
X163385Y252121D01*
X163458Y252227D01*
X163541Y252332D01*
X163641Y252421D01*
X163646D01*
X163652Y252432D01*
X163669Y252443D01*
X163691Y252454D01*
X163718Y252477D01*
X163752Y252493D01*
X163835Y252538D01*
X163935Y252576D01*
X164051Y252615D01*
X164190Y252638D01*
X164340Y252649D01*
X164390D01*
X164451Y252643D01*
D02*
G37*
G36*
X168591Y252210D02*
X168586Y252205D01*
X168575Y252194D01*
X168552Y252171D01*
X168530Y252138D01*
X168497Y252099D01*
X168453Y252055D01*
X168408Y251999D01*
X168358Y251933D01*
X168308Y251866D01*
X168247Y251788D01*
X168186Y251700D01*
X168125Y251611D01*
X168059Y251511D01*
X167992Y251406D01*
X167925Y251289D01*
X167859Y251172D01*
X167853Y251167D01*
X167842Y251145D01*
X167825Y251111D01*
X167798Y251061D01*
X167770Y251000D01*
X167737Y250934D01*
X167698Y250856D01*
X167659Y250767D01*
X167615Y250667D01*
X167565Y250567D01*
X167520Y250456D01*
X167476Y250340D01*
X167387Y250101D01*
X167304Y249846D01*
Y249840D01*
X167298Y249824D01*
X167293Y249796D01*
X167281Y249763D01*
X167271Y249718D01*
X167259Y249663D01*
X167243Y249602D01*
X167232Y249535D01*
X167215Y249457D01*
X167198Y249374D01*
X167171Y249197D01*
X167143Y249002D01*
X167126Y248791D01*
X166643D01*
Y248797D01*
Y248814D01*
Y248836D01*
X166649Y248869D01*
Y248914D01*
X166654Y248969D01*
X166660Y249030D01*
X166665Y249097D01*
X166677Y249174D01*
X166688Y249252D01*
X166704Y249346D01*
X166721Y249441D01*
X166738Y249541D01*
X166760Y249652D01*
X166815Y249879D01*
Y249885D01*
X166821Y249907D01*
X166832Y249940D01*
X166849Y249990D01*
X166865Y250046D01*
X166887Y250112D01*
X166910Y250190D01*
X166943Y250273D01*
X166976Y250368D01*
X167010Y250462D01*
X167093Y250673D01*
X167193Y250895D01*
X167304Y251117D01*
X167309Y251122D01*
X167320Y251145D01*
X167337Y251172D01*
X167359Y251217D01*
X167387Y251267D01*
X167426Y251328D01*
X167465Y251394D01*
X167509Y251466D01*
X167615Y251627D01*
X167726Y251794D01*
X167853Y251966D01*
X167986Y252127D01*
X166105D01*
Y252582D01*
X168591D01*
Y252210D01*
D02*
G37*
G36*
X161876Y248791D02*
X161404D01*
Y251794D01*
X161399Y251788D01*
X161371Y251766D01*
X161337Y251733D01*
X161282Y251694D01*
X161221Y251644D01*
X161143Y251589D01*
X161054Y251528D01*
X160954Y251466D01*
X160949D01*
X160943Y251461D01*
X160910Y251439D01*
X160855Y251411D01*
X160788Y251378D01*
X160710Y251339D01*
X160627Y251300D01*
X160544Y251261D01*
X160461Y251228D01*
Y251683D01*
X160466D01*
X160477Y251694D01*
X160500Y251700D01*
X160527Y251716D01*
X160561Y251733D01*
X160599Y251755D01*
X160694Y251811D01*
X160805Y251872D01*
X160916Y251949D01*
X161032Y252038D01*
X161149Y252133D01*
X161154Y252138D01*
X161160Y252144D01*
X161177Y252160D01*
X161199Y252177D01*
X161249Y252232D01*
X161315Y252299D01*
X161382Y252377D01*
X161454Y252466D01*
X161515Y252554D01*
X161571Y252649D01*
X161876D01*
Y248791D01*
D02*
G37*
G36*
X159767Y252177D02*
X158501D01*
Y248791D01*
X157991D01*
Y252177D01*
X156726D01*
Y252632D01*
X159767D01*
Y252177D01*
D02*
G37*
G36*
X168591Y195210D02*
X168586Y195205D01*
X168575Y195194D01*
X168552Y195171D01*
X168530Y195138D01*
X168497Y195099D01*
X168453Y195055D01*
X168408Y194999D01*
X168358Y194933D01*
X168308Y194866D01*
X168247Y194788D01*
X168186Y194700D01*
X168125Y194611D01*
X168059Y194511D01*
X167992Y194405D01*
X167925Y194289D01*
X167859Y194172D01*
X167853Y194167D01*
X167842Y194145D01*
X167825Y194111D01*
X167798Y194061D01*
X167770Y194000D01*
X167737Y193934D01*
X167698Y193856D01*
X167659Y193767D01*
X167615Y193667D01*
X167565Y193567D01*
X167520Y193456D01*
X167476Y193340D01*
X167387Y193101D01*
X167304Y192846D01*
Y192840D01*
X167298Y192824D01*
X167293Y192796D01*
X167281Y192763D01*
X167271Y192718D01*
X167259Y192663D01*
X167243Y192602D01*
X167232Y192535D01*
X167215Y192457D01*
X167198Y192374D01*
X167171Y192197D01*
X167143Y192002D01*
X167126Y191791D01*
X166643D01*
Y191797D01*
Y191814D01*
Y191836D01*
X166649Y191869D01*
Y191913D01*
X166654Y191969D01*
X166660Y192030D01*
X166665Y192097D01*
X166677Y192174D01*
X166688Y192252D01*
X166704Y192346D01*
X166721Y192441D01*
X166738Y192541D01*
X166760Y192652D01*
X166815Y192879D01*
Y192885D01*
X166821Y192907D01*
X166832Y192940D01*
X166849Y192990D01*
X166865Y193046D01*
X166887Y193112D01*
X166910Y193190D01*
X166943Y193273D01*
X166976Y193368D01*
X167010Y193462D01*
X167093Y193673D01*
X167193Y193895D01*
X167304Y194117D01*
X167309Y194122D01*
X167320Y194145D01*
X167337Y194172D01*
X167359Y194217D01*
X167387Y194267D01*
X167426Y194328D01*
X167465Y194394D01*
X167509Y194466D01*
X167615Y194627D01*
X167726Y194794D01*
X167853Y194966D01*
X167986Y195127D01*
X166105D01*
Y195582D01*
X168591D01*
Y195210D01*
D02*
G37*
G36*
X159767Y308677D02*
X158501D01*
Y305291D01*
X157991D01*
Y308677D01*
X156726D01*
Y309132D01*
X159767D01*
Y308677D01*
D02*
G37*
G36*
X155094Y309126D02*
X155188Y309121D01*
X155288Y309115D01*
X155382Y309104D01*
X155466Y309093D01*
X155477D01*
X155516Y309082D01*
X155566Y309071D01*
X155632Y309054D01*
X155704Y309027D01*
X155782Y308993D01*
X155865Y308954D01*
X155937Y308910D01*
X155948Y308905D01*
X155971Y308888D01*
X156004Y308855D01*
X156048Y308816D01*
X156098Y308766D01*
X156148Y308699D01*
X156204Y308627D01*
X156248Y308544D01*
X156254Y308533D01*
X156265Y308505D01*
X156287Y308455D01*
X156309Y308388D01*
X156326Y308311D01*
X156348Y308222D01*
X156359Y308122D01*
X156365Y308016D01*
Y308011D01*
Y307994D01*
Y307972D01*
X156359Y307933D01*
X156354Y307894D01*
X156348Y307844D01*
X156337Y307789D01*
X156326Y307728D01*
X156287Y307600D01*
X156265Y307534D01*
X156231Y307462D01*
X156193Y307389D01*
X156154Y307323D01*
X156104Y307256D01*
X156048Y307189D01*
X156043Y307184D01*
X156032Y307173D01*
X156015Y307156D01*
X155987Y307140D01*
X155954Y307112D01*
X155910Y307084D01*
X155854Y307051D01*
X155793Y307023D01*
X155721Y306990D01*
X155638Y306956D01*
X155549Y306929D01*
X155443Y306907D01*
X155332Y306884D01*
X155210Y306868D01*
X155072Y306856D01*
X154927Y306851D01*
X153945D01*
Y305291D01*
X153434D01*
Y309132D01*
X155010D01*
X155094Y309126D01*
D02*
G37*
G36*
X161876Y305291D02*
X161404D01*
Y308294D01*
X161399Y308288D01*
X161371Y308266D01*
X161337Y308233D01*
X161282Y308194D01*
X161221Y308144D01*
X161143Y308089D01*
X161054Y308028D01*
X160954Y307966D01*
X160949D01*
X160943Y307961D01*
X160910Y307939D01*
X160855Y307911D01*
X160788Y307878D01*
X160710Y307839D01*
X160627Y307800D01*
X160544Y307761D01*
X160461Y307728D01*
Y308183D01*
X160466D01*
X160477Y308194D01*
X160500Y308200D01*
X160527Y308216D01*
X160561Y308233D01*
X160599Y308255D01*
X160694Y308311D01*
X160805Y308372D01*
X160916Y308449D01*
X161032Y308538D01*
X161149Y308632D01*
X161154Y308638D01*
X161160Y308644D01*
X161177Y308660D01*
X161199Y308677D01*
X161249Y308732D01*
X161315Y308799D01*
X161382Y308877D01*
X161454Y308965D01*
X161515Y309054D01*
X161571Y309149D01*
X161876D01*
Y305291D01*
D02*
G37*
G36*
X152607D02*
X152119D01*
Y308505D01*
X150998Y305291D01*
X150543D01*
X149433Y308560D01*
Y305291D01*
X148944D01*
Y309132D01*
X149705D01*
X150615Y306407D01*
Y306401D01*
X150620Y306390D01*
X150626Y306374D01*
X150637Y306346D01*
X150659Y306279D01*
X150687Y306196D01*
X150715Y306102D01*
X150748Y306007D01*
X150776Y305919D01*
X150798Y305841D01*
X150804Y305852D01*
X150809Y305880D01*
X150826Y305930D01*
X150848Y305996D01*
X150876Y306085D01*
X150915Y306190D01*
X150953Y306313D01*
X151003Y306457D01*
X151925Y309132D01*
X152607D01*
Y305291D01*
D02*
G37*
G36*
X168591Y308710D02*
X168586Y308705D01*
X168575Y308694D01*
X168552Y308671D01*
X168530Y308638D01*
X168497Y308599D01*
X168453Y308555D01*
X168408Y308499D01*
X168358Y308433D01*
X168308Y308366D01*
X168247Y308288D01*
X168186Y308200D01*
X168125Y308111D01*
X168059Y308011D01*
X167992Y307906D01*
X167925Y307789D01*
X167859Y307672D01*
X167853Y307667D01*
X167842Y307645D01*
X167825Y307611D01*
X167798Y307561D01*
X167770Y307500D01*
X167737Y307434D01*
X167698Y307356D01*
X167659Y307267D01*
X167615Y307167D01*
X167565Y307067D01*
X167520Y306956D01*
X167476Y306840D01*
X167387Y306601D01*
X167304Y306346D01*
Y306340D01*
X167298Y306324D01*
X167293Y306296D01*
X167281Y306263D01*
X167271Y306218D01*
X167259Y306163D01*
X167243Y306102D01*
X167232Y306035D01*
X167215Y305957D01*
X167198Y305874D01*
X167171Y305697D01*
X167143Y305502D01*
X167126Y305291D01*
X166643D01*
Y305297D01*
Y305314D01*
Y305336D01*
X166649Y305369D01*
Y305414D01*
X166654Y305469D01*
X166660Y305530D01*
X166665Y305597D01*
X166677Y305674D01*
X166688Y305752D01*
X166704Y305846D01*
X166721Y305941D01*
X166738Y306041D01*
X166760Y306152D01*
X166815Y306379D01*
Y306385D01*
X166821Y306407D01*
X166832Y306440D01*
X166849Y306490D01*
X166865Y306546D01*
X166887Y306612D01*
X166910Y306690D01*
X166943Y306773D01*
X166976Y306868D01*
X167010Y306962D01*
X167093Y307173D01*
X167193Y307395D01*
X167304Y307617D01*
X167309Y307622D01*
X167320Y307645D01*
X167337Y307672D01*
X167359Y307717D01*
X167387Y307767D01*
X167426Y307828D01*
X167465Y307894D01*
X167509Y307966D01*
X167615Y308127D01*
X167726Y308294D01*
X167853Y308466D01*
X167986Y308627D01*
X166105D01*
Y309082D01*
X168591D01*
Y308710D01*
D02*
G37*
G36*
X164451Y309143D02*
X164523Y309132D01*
X164606Y309115D01*
X164695Y309093D01*
X164790Y309065D01*
X164878Y309021D01*
X164884D01*
X164890Y309015D01*
X164917Y308999D01*
X164962Y308971D01*
X165017Y308932D01*
X165078Y308877D01*
X165145Y308816D01*
X165206Y308744D01*
X165267Y308660D01*
X165272Y308649D01*
X165295Y308621D01*
X165317Y308572D01*
X165356Y308499D01*
X165389Y308416D01*
X165433Y308322D01*
X165472Y308211D01*
X165506Y308089D01*
Y308083D01*
X165511Y308072D01*
X165517Y308055D01*
X165522Y308028D01*
X165528Y307994D01*
X165533Y307955D01*
X165544Y307906D01*
X165550Y307850D01*
X165561Y307789D01*
X165567Y307722D01*
X165572Y307645D01*
X165583Y307567D01*
X165589Y307478D01*
Y307389D01*
X165594Y307289D01*
Y307184D01*
Y307178D01*
Y307156D01*
Y307117D01*
Y307073D01*
X165589Y307012D01*
Y306945D01*
X165583Y306873D01*
X165578Y306796D01*
X165561Y306618D01*
X165533Y306435D01*
X165500Y306257D01*
X165478Y306174D01*
X165450Y306091D01*
Y306085D01*
X165445Y306074D01*
X165433Y306052D01*
X165422Y306024D01*
X165411Y305985D01*
X165389Y305946D01*
X165345Y305852D01*
X165289Y305752D01*
X165217Y305641D01*
X165134Y305541D01*
X165034Y305447D01*
X165028D01*
X165023Y305436D01*
X165006Y305425D01*
X164984Y305414D01*
X164956Y305397D01*
X164928Y305375D01*
X164845Y305336D01*
X164745Y305297D01*
X164629Y305258D01*
X164490Y305236D01*
X164340Y305225D01*
X164285D01*
X164246Y305230D01*
X164201Y305236D01*
X164146Y305247D01*
X164085Y305258D01*
X164018Y305275D01*
X163952Y305297D01*
X163879Y305319D01*
X163807Y305352D01*
X163735Y305391D01*
X163663Y305436D01*
X163591Y305491D01*
X163524Y305552D01*
X163463Y305619D01*
X163458Y305624D01*
X163446Y305641D01*
X163430Y305669D01*
X163402Y305713D01*
X163374Y305763D01*
X163347Y305830D01*
X163308Y305908D01*
X163275Y305996D01*
X163241Y306096D01*
X163208Y306213D01*
X163174Y306340D01*
X163147Y306485D01*
X163119Y306640D01*
X163102Y306807D01*
X163091Y306990D01*
X163086Y307184D01*
Y307189D01*
Y307212D01*
Y307251D01*
Y307295D01*
X163091Y307356D01*
Y307423D01*
X163097Y307495D01*
X163102Y307578D01*
X163119Y307750D01*
X163147Y307933D01*
X163180Y308116D01*
X163202Y308200D01*
X163224Y308283D01*
Y308288D01*
X163230Y308299D01*
X163241Y308322D01*
X163252Y308349D01*
X163263Y308388D01*
X163286Y308427D01*
X163330Y308522D01*
X163385Y308621D01*
X163458Y308727D01*
X163541Y308832D01*
X163641Y308921D01*
X163646D01*
X163652Y308932D01*
X163669Y308943D01*
X163691Y308954D01*
X163718Y308977D01*
X163752Y308993D01*
X163835Y309038D01*
X163935Y309076D01*
X164051Y309115D01*
X164190Y309138D01*
X164340Y309149D01*
X164390D01*
X164451Y309143D01*
D02*
G37*
G36*
X148351Y308677D02*
X146180Y306018D01*
X145953Y305747D01*
X148412D01*
Y305291D01*
X145370D01*
Y305763D01*
X147340Y308216D01*
Y308222D01*
X147352Y308227D01*
X147379Y308261D01*
X147418Y308311D01*
X147468Y308372D01*
X147529Y308444D01*
X147596Y308522D01*
X147668Y308599D01*
X147740Y308677D01*
X145592D01*
Y309132D01*
X148351D01*
Y308677D01*
D02*
G37*
G36*
X152607Y191791D02*
X152119D01*
Y195005D01*
X150998Y191791D01*
X150543D01*
X149433Y195060D01*
Y191791D01*
X148944D01*
Y195632D01*
X149705D01*
X150615Y192907D01*
Y192901D01*
X150620Y192890D01*
X150626Y192874D01*
X150637Y192846D01*
X150659Y192779D01*
X150687Y192696D01*
X150715Y192602D01*
X150748Y192507D01*
X150776Y192419D01*
X150798Y192341D01*
X150804Y192352D01*
X150809Y192380D01*
X150826Y192430D01*
X150848Y192496D01*
X150876Y192585D01*
X150915Y192691D01*
X150953Y192813D01*
X151003Y192957D01*
X151925Y195632D01*
X152607D01*
Y191791D01*
D02*
G37*
%LPC*%
G36*
X164334Y308760D02*
X164301D01*
X164279Y308755D01*
X164218Y308744D01*
X164146Y308727D01*
X164063Y308694D01*
X163974Y308644D01*
X163929Y308610D01*
X163885Y308577D01*
X163846Y308533D01*
X163807Y308483D01*
Y308477D01*
X163796Y308466D01*
X163785Y308444D01*
X163768Y308416D01*
X163752Y308372D01*
X163730Y308322D01*
X163713Y308261D01*
X163691Y308189D01*
X163669Y308105D01*
X163646Y308011D01*
X163624Y307906D01*
X163607Y307789D01*
X163591Y307656D01*
X163580Y307511D01*
X163574Y307356D01*
X163569Y307184D01*
Y307173D01*
Y307145D01*
Y307095D01*
X163574Y307029D01*
Y306956D01*
X163580Y306868D01*
X163585Y306773D01*
X163596Y306673D01*
X163624Y306457D01*
X163641Y306351D01*
X163663Y306252D01*
X163685Y306157D01*
X163718Y306068D01*
X163752Y305991D01*
X163791Y305924D01*
Y305919D01*
X163802Y305913D01*
X163829Y305874D01*
X163879Y305824D01*
X163941Y305769D01*
X164024Y305713D01*
X164118Y305663D01*
X164224Y305624D01*
X164279Y305619D01*
X164340Y305613D01*
X164373D01*
X164396Y305619D01*
X164451Y305630D01*
X164529Y305652D01*
X164612Y305691D01*
X164706Y305747D01*
X164751Y305780D01*
X164795Y305824D01*
X164840Y305869D01*
X164884Y305924D01*
Y305930D01*
X164895Y305941D01*
X164906Y305957D01*
X164917Y305985D01*
X164939Y306024D01*
X164956Y306074D01*
X164978Y306130D01*
X165000Y306196D01*
X165017Y306279D01*
X165039Y306368D01*
X165062Y306474D01*
X165078Y306585D01*
X165089Y306718D01*
X165100Y306856D01*
X165111Y307012D01*
Y307184D01*
Y307189D01*
Y307195D01*
Y307223D01*
Y307273D01*
X165106Y307339D01*
Y307412D01*
X165100Y307500D01*
X165095Y307595D01*
X165084Y307700D01*
X165056Y307911D01*
X165039Y308016D01*
X165017Y308116D01*
X164995Y308211D01*
X164962Y308299D01*
X164928Y308377D01*
X164890Y308444D01*
Y308449D01*
X164878Y308455D01*
X164867Y308472D01*
X164851Y308494D01*
X164801Y308544D01*
X164740Y308605D01*
X164656Y308660D01*
X164562Y308710D01*
X164512Y308732D01*
X164457Y308749D01*
X164396Y308755D01*
X164334Y308760D01*
D02*
G37*
G36*
X155044Y308677D02*
X153945D01*
Y307306D01*
X154977D01*
X155016Y307312D01*
X155055D01*
X155099Y307317D01*
X155205Y307328D01*
X155321Y307350D01*
X155438Y307384D01*
X155543Y307428D01*
X155593Y307456D01*
X155632Y307489D01*
X155643Y307500D01*
X155665Y307523D01*
X155699Y307567D01*
X155738Y307622D01*
X155776Y307695D01*
X155810Y307783D01*
X155832Y307883D01*
X155843Y308000D01*
Y308005D01*
Y308011D01*
Y308039D01*
X155837Y308089D01*
X155826Y308144D01*
X155815Y308205D01*
X155793Y308277D01*
X155760Y308344D01*
X155721Y308411D01*
X155715Y308416D01*
X155699Y308438D01*
X155671Y308466D01*
X155638Y308505D01*
X155588Y308544D01*
X155532Y308577D01*
X155471Y308610D01*
X155399Y308638D01*
X155394D01*
X155371Y308644D01*
X155338Y308649D01*
X155294Y308660D01*
X155227Y308666D01*
X155144Y308671D01*
X155044Y308677D01*
D02*
G37*
G36*
X164334Y195260D02*
X164301D01*
X164279Y195255D01*
X164218Y195244D01*
X164146Y195227D01*
X164063Y195194D01*
X163974Y195144D01*
X163929Y195110D01*
X163885Y195077D01*
X163846Y195033D01*
X163807Y194983D01*
Y194977D01*
X163796Y194966D01*
X163785Y194944D01*
X163768Y194916D01*
X163752Y194872D01*
X163730Y194822D01*
X163713Y194761D01*
X163691Y194688D01*
X163669Y194605D01*
X163646Y194511D01*
X163624Y194405D01*
X163607Y194289D01*
X163591Y194156D01*
X163580Y194011D01*
X163574Y193856D01*
X163569Y193684D01*
Y193673D01*
Y193645D01*
Y193595D01*
X163574Y193529D01*
Y193456D01*
X163580Y193368D01*
X163585Y193273D01*
X163596Y193173D01*
X163624Y192957D01*
X163641Y192851D01*
X163663Y192752D01*
X163685Y192657D01*
X163718Y192568D01*
X163752Y192491D01*
X163791Y192424D01*
Y192419D01*
X163802Y192413D01*
X163829Y192374D01*
X163879Y192324D01*
X163941Y192269D01*
X164024Y192213D01*
X164118Y192163D01*
X164224Y192124D01*
X164279Y192119D01*
X164340Y192113D01*
X164373D01*
X164396Y192119D01*
X164451Y192130D01*
X164529Y192152D01*
X164612Y192191D01*
X164706Y192246D01*
X164751Y192280D01*
X164795Y192324D01*
X164840Y192369D01*
X164884Y192424D01*
Y192430D01*
X164895Y192441D01*
X164906Y192457D01*
X164917Y192485D01*
X164939Y192524D01*
X164956Y192574D01*
X164978Y192630D01*
X165000Y192696D01*
X165017Y192779D01*
X165039Y192868D01*
X165062Y192974D01*
X165078Y193085D01*
X165089Y193218D01*
X165100Y193357D01*
X165111Y193512D01*
Y193684D01*
Y193690D01*
Y193695D01*
Y193723D01*
Y193773D01*
X165106Y193839D01*
Y193912D01*
X165100Y194000D01*
X165095Y194095D01*
X165084Y194200D01*
X165056Y194411D01*
X165039Y194517D01*
X165017Y194616D01*
X164995Y194711D01*
X164962Y194799D01*
X164928Y194877D01*
X164890Y194944D01*
Y194949D01*
X164878Y194955D01*
X164867Y194972D01*
X164851Y194994D01*
X164801Y195044D01*
X164740Y195105D01*
X164656Y195160D01*
X164562Y195210D01*
X164512Y195232D01*
X164457Y195249D01*
X164396Y195255D01*
X164334Y195260D01*
D02*
G37*
G36*
X155044Y252177D02*
X153945D01*
Y250806D01*
X154977D01*
X155016Y250812D01*
X155055D01*
X155099Y250817D01*
X155205Y250828D01*
X155321Y250851D01*
X155438Y250884D01*
X155543Y250928D01*
X155593Y250956D01*
X155632Y250989D01*
X155643Y251000D01*
X155665Y251023D01*
X155699Y251067D01*
X155738Y251122D01*
X155776Y251195D01*
X155810Y251283D01*
X155832Y251383D01*
X155843Y251500D01*
Y251505D01*
Y251511D01*
Y251539D01*
X155837Y251589D01*
X155826Y251644D01*
X155815Y251705D01*
X155793Y251777D01*
X155760Y251844D01*
X155721Y251910D01*
X155715Y251916D01*
X155699Y251938D01*
X155671Y251966D01*
X155638Y252005D01*
X155588Y252044D01*
X155532Y252077D01*
X155471Y252110D01*
X155399Y252138D01*
X155394D01*
X155371Y252144D01*
X155338Y252149D01*
X155294Y252160D01*
X155227Y252166D01*
X155144Y252171D01*
X155044Y252177D01*
D02*
G37*
G36*
X164334Y252260D02*
X164301D01*
X164279Y252255D01*
X164218Y252243D01*
X164146Y252227D01*
X164063Y252194D01*
X163974Y252144D01*
X163929Y252110D01*
X163885Y252077D01*
X163846Y252033D01*
X163807Y251983D01*
Y251977D01*
X163796Y251966D01*
X163785Y251944D01*
X163768Y251916D01*
X163752Y251872D01*
X163730Y251822D01*
X163713Y251761D01*
X163691Y251689D01*
X163669Y251605D01*
X163646Y251511D01*
X163624Y251406D01*
X163607Y251289D01*
X163591Y251156D01*
X163580Y251011D01*
X163574Y250856D01*
X163569Y250684D01*
Y250673D01*
Y250645D01*
Y250595D01*
X163574Y250529D01*
Y250456D01*
X163580Y250368D01*
X163585Y250273D01*
X163596Y250173D01*
X163624Y249957D01*
X163641Y249851D01*
X163663Y249752D01*
X163685Y249657D01*
X163718Y249568D01*
X163752Y249491D01*
X163791Y249424D01*
Y249419D01*
X163802Y249413D01*
X163829Y249374D01*
X163879Y249324D01*
X163941Y249269D01*
X164024Y249213D01*
X164118Y249163D01*
X164224Y249124D01*
X164279Y249119D01*
X164340Y249113D01*
X164373D01*
X164396Y249119D01*
X164451Y249130D01*
X164529Y249152D01*
X164612Y249191D01*
X164706Y249247D01*
X164751Y249280D01*
X164795Y249324D01*
X164840Y249369D01*
X164884Y249424D01*
Y249430D01*
X164895Y249441D01*
X164906Y249457D01*
X164917Y249485D01*
X164939Y249524D01*
X164956Y249574D01*
X164978Y249629D01*
X165000Y249696D01*
X165017Y249779D01*
X165039Y249868D01*
X165062Y249974D01*
X165078Y250085D01*
X165089Y250218D01*
X165100Y250357D01*
X165111Y250512D01*
Y250684D01*
Y250690D01*
Y250695D01*
Y250723D01*
Y250773D01*
X165106Y250839D01*
Y250911D01*
X165100Y251000D01*
X165095Y251095D01*
X165084Y251200D01*
X165056Y251411D01*
X165039Y251517D01*
X165017Y251616D01*
X164995Y251711D01*
X164962Y251800D01*
X164928Y251877D01*
X164890Y251944D01*
Y251949D01*
X164878Y251955D01*
X164867Y251972D01*
X164851Y251994D01*
X164801Y252044D01*
X164740Y252105D01*
X164656Y252160D01*
X164562Y252210D01*
X164512Y252232D01*
X164457Y252249D01*
X164396Y252255D01*
X164334Y252260D01*
D02*
G37*
G36*
X155044Y195177D02*
X153945D01*
Y193806D01*
X154977D01*
X155016Y193812D01*
X155055D01*
X155099Y193817D01*
X155205Y193828D01*
X155321Y193851D01*
X155438Y193884D01*
X155543Y193928D01*
X155593Y193956D01*
X155632Y193989D01*
X155643Y194000D01*
X155665Y194023D01*
X155699Y194067D01*
X155738Y194122D01*
X155776Y194195D01*
X155810Y194283D01*
X155832Y194383D01*
X155843Y194500D01*
Y194505D01*
Y194511D01*
Y194539D01*
X155837Y194589D01*
X155826Y194644D01*
X155815Y194705D01*
X155793Y194777D01*
X155760Y194844D01*
X155721Y194911D01*
X155715Y194916D01*
X155699Y194938D01*
X155671Y194966D01*
X155638Y195005D01*
X155588Y195044D01*
X155532Y195077D01*
X155471Y195110D01*
X155399Y195138D01*
X155394D01*
X155371Y195144D01*
X155338Y195149D01*
X155294Y195160D01*
X155227Y195166D01*
X155144Y195171D01*
X155044Y195177D01*
D02*
G37*
%LPD*%
D23*
X301569Y383874D02*
G03*
X315569Y383874I7000J20330D01*
G01*
X290669Y102974D02*
G03*
X290669Y88974I20330J-7000D01*
G01*
D29*
X322154Y230740D02*
G03*
X322154Y230740I-984J0D01*
G01*
X287154Y333008D02*
G03*
X287154Y333008I-984J0D01*
G01*
X0Y0D02*
X393701D01*
Y453150D01*
X0D02*
X393701D01*
X0Y397795D02*
Y453150D01*
X0Y397796D02*
X0Y397795D01*
X-54134Y397796D02*
X0D01*
X-54134Y397796D02*
X-54134Y397796D01*
X-54134Y59213D02*
Y397796D01*
Y59213D02*
X0D01*
Y0D02*
Y59213D01*
D45*
X373669Y243374D02*
G03*
X368669Y243374I-2500J0D01*
G01*
X329354Y401874D02*
G03*
X329354Y401874I-19685J0D01*
G01*
X328354Y94874D02*
G03*
X328354Y94874I-19685J0D01*
G01*
X23957Y43858D02*
G03*
X47579Y43809I11811J0D01*
G01*
Y61625D02*
G03*
X23957Y61575I-11811J-50D01*
G01*
X50669Y44402D02*
G03*
X76669Y44402I13000J0D01*
G01*
Y84402D02*
G03*
X50669Y84402I-13000J0D01*
G01*
X272622Y365707D02*
G03*
X273011Y365868I0J549D01*
G01*
X103012Y296374D02*
G03*
X103012Y296374I-9843J0D01*
G01*
X88669Y274530D02*
G03*
X97625Y274676I4431J2935D01*
G01*
X373238Y317392D02*
G03*
X373387Y317363I-1569J-8518D01*
G01*
X102012Y231374D02*
G03*
X102012Y231374I-9843J0D01*
G01*
X70325Y235874D02*
G03*
X70471Y226919I2935J-4431D01*
G01*
X102012Y189874D02*
G03*
X102012Y189874I-9843J0D01*
G01*
X70325Y194374D02*
G03*
X70471Y185419I2935J-4431D01*
G01*
X351461Y409831D02*
Y416917D01*
X346441D02*
X351461D01*
X346441Y409831D02*
X351461D01*
X337878D02*
X342898D01*
X337878Y416917D02*
X342898D01*
X337878Y409831D02*
Y416917D01*
X353343Y372583D02*
Y411165D01*
X379130Y372583D02*
Y411165D01*
X392102Y243000D02*
Y288748D01*
X350236Y243000D02*
Y288748D01*
X373669Y243098D02*
X392036D01*
X350303D02*
X368669D01*
X350303Y288650D02*
X392036D01*
X174878Y396331D02*
Y403417D01*
Y396331D02*
X179898D01*
X174878Y403417D02*
X179898D01*
X183441D02*
X188461D01*
X183441Y396331D02*
X188461D01*
Y403417D01*
X174878Y404331D02*
Y411417D01*
Y404331D02*
X179898D01*
X174878Y411417D02*
X179898D01*
X183441D02*
X188461D01*
X183441Y404331D02*
X188461D01*
Y411417D01*
X326862Y164378D02*
X331362D01*
X326862D02*
Y167374D01*
Y174374D02*
Y177371D01*
X331362D01*
X283126Y248665D02*
X290213D01*
Y243646D02*
Y248665D01*
X283126Y243646D02*
Y248665D01*
Y235083D02*
Y240102D01*
X290213Y235083D02*
Y240102D01*
X283126Y235083D02*
X290213D01*
X346169Y355598D02*
Y406074D01*
X336169Y355598D02*
X346169D01*
X336169D02*
Y406074D01*
X346169D01*
X184665Y334961D02*
Y339461D01*
X181669Y334961D02*
X184665D01*
X171673D02*
X174669D01*
X171673D02*
Y339461D01*
X294724Y139535D02*
X327795D01*
Y122213D02*
Y139535D01*
X294724Y122213D02*
X327795D01*
X326614D02*
Y139535D01*
X294724Y122213D02*
Y139535D01*
X27821Y109674D02*
X43569D01*
Y76209D02*
Y109674D01*
X27821Y76209D02*
Y109674D01*
Y76209D02*
X43569D01*
X329913Y232961D02*
Y243788D01*
Y232961D02*
X335425D01*
Y232961D02*
Y243788D01*
X329913Y243788D02*
X335425D01*
X47579Y43817D02*
Y61616D01*
X23957Y43858D02*
Y61575D01*
X119780Y286788D02*
X198126D01*
Y328913D01*
X119780D02*
X198126D01*
X119780Y286788D02*
Y328913D01*
X254169Y341618D02*
Y402130D01*
X226669Y341618D02*
Y402130D01*
X213280Y396874D02*
X226669D01*
X213280D02*
Y402130D01*
X302665Y232118D02*
X316051D01*
X302665Y252630D02*
X316051D01*
X293256Y333992D02*
X319634D01*
X293256Y283992D02*
X319634D01*
Y333992D01*
X293256Y283992D02*
Y333992D01*
X50669Y44402D02*
Y84402D01*
X76669Y44402D02*
Y84402D01*
X273011Y365868D02*
X273543Y366401D01*
X272782Y365548D02*
X274396D01*
X272622Y365264D02*
Y365707D01*
X272769Y367174D02*
X274396Y365548D01*
Y365264D02*
Y365548D01*
X272769Y367174D02*
X273543Y366401D01*
X274396D01*
X272622Y365707D02*
Y368174D01*
Y365264D02*
X274396D01*
Y366401D01*
X272622Y368174D02*
X274396Y366401D01*
X272622Y368174D02*
Y385217D01*
X291618Y365138D02*
Y385217D01*
X272622D02*
X274122D01*
X290437D02*
X291618D01*
X290437Y365138D02*
X291618D01*
X93169Y279689D02*
Y286532D01*
X88669Y274530D02*
Y287689D01*
X97669Y274729D02*
Y287689D01*
X368126Y322083D02*
X375213D01*
X368126Y335665D02*
X375213D01*
Y322083D02*
Y335665D01*
X368126Y322083D02*
Y335665D01*
X89378Y348331D02*
Y355417D01*
X94398D01*
X89378Y348331D02*
X94398D01*
X97941D02*
X102961D01*
X97941Y355417D02*
X102961D01*
Y348331D02*
Y355417D01*
X89378Y361531D02*
Y368617D01*
X94398D01*
X89378Y361531D02*
X94398D01*
X97941D02*
X102961D01*
X97941Y368617D02*
X102961D01*
Y361531D02*
Y368617D01*
X89378Y374731D02*
Y381817D01*
X94398D01*
X89378Y374731D02*
X94398D01*
X97941D02*
X102961D01*
X97941Y381817D02*
X102961D01*
Y374731D02*
Y381817D01*
X89378Y387931D02*
Y395017D01*
X94398D01*
X89378Y387931D02*
X94398D01*
X97941D02*
X102961D01*
X97941Y395017D02*
X102961D01*
Y387931D02*
Y395017D01*
X89378Y401131D02*
Y408217D01*
X94398D01*
X89378Y401131D02*
X94398D01*
X97941D02*
X102961D01*
X97941Y408217D02*
X102961D01*
Y401131D02*
Y408217D01*
X89378Y414331D02*
Y421417D01*
X94398D01*
X89378Y414331D02*
X94398D01*
X97941D02*
X102961D01*
X97941Y421417D02*
X102961D01*
Y414331D02*
Y421417D01*
X75484Y231374D02*
X82327D01*
X70325Y235874D02*
X83484D01*
X70525Y226874D02*
X83484D01*
X75484Y189874D02*
X82327D01*
X70325Y194374D02*
X83484D01*
X70525Y185374D02*
X83484D01*
X339461Y153331D02*
Y160417D01*
X325878Y153331D02*
Y160417D01*
X339461D01*
X325878Y153331D02*
X339461D01*
X325878Y181331D02*
Y188417D01*
X339461Y181331D02*
Y188417D01*
X325878Y181331D02*
X339461D01*
X325878Y188417D02*
X339461D01*
X200126Y315583D02*
X207213D01*
X200126Y329165D02*
X207213D01*
Y315583D02*
Y329165D01*
X200126Y315583D02*
Y329165D01*
Y299583D02*
X207213D01*
X200126Y313165D02*
X207213D01*
Y299583D02*
Y313165D01*
X200126Y299583D02*
Y313165D01*
Y259583D02*
X207213D01*
X200126Y273165D02*
X207213D01*
Y259583D02*
Y273165D01*
X200126Y259583D02*
Y273165D01*
Y244583D02*
X207213D01*
X200126Y258165D02*
X207213D01*
Y244583D02*
Y258165D01*
X200126Y244583D02*
Y258165D01*
Y202083D02*
X207213D01*
X200126Y215665D02*
X207213D01*
Y202083D02*
Y215665D01*
X200126Y202083D02*
Y215665D01*
Y187083D02*
X207213D01*
X200126Y200665D02*
X207213D01*
Y187083D02*
Y200665D01*
X200126Y187083D02*
Y200665D01*
X188126Y347665D02*
X195213D01*
X188126Y334083D02*
X195213D01*
X188126D02*
Y347665D01*
X195213Y334083D02*
Y347665D01*
X64878Y401331D02*
Y408417D01*
X78461Y401331D02*
Y408417D01*
X64878Y401331D02*
X78461D01*
X64878Y408417D02*
X78461D01*
X18378Y364331D02*
Y371417D01*
X31961Y364331D02*
Y371417D01*
X18378Y364331D02*
X31961D01*
X18378Y371417D02*
X31961D01*
X182378Y420331D02*
Y427417D01*
X195961Y420331D02*
Y427417D01*
X182378Y420331D02*
X195961D01*
X182378Y427417D02*
X195961D01*
X18378Y344331D02*
Y351417D01*
X31961Y344331D02*
Y351417D01*
X18378Y344331D02*
X31961D01*
X18378Y351417D02*
X31961D01*
X195961Y412331D02*
Y419417D01*
X182378Y412331D02*
Y419417D01*
X195961D01*
X182378Y412331D02*
X195961D01*
X64878Y392531D02*
Y399617D01*
X78461Y392531D02*
Y399617D01*
X64878Y392531D02*
X78461D01*
X64878Y399617D02*
X78461D01*
X64878Y383731D02*
Y390817D01*
X78461Y383731D02*
Y390817D01*
X64878Y383731D02*
X78461D01*
X64878Y390817D02*
X78461D01*
X18378Y324331D02*
Y331417D01*
X31961Y324331D02*
Y331417D01*
X18378Y324331D02*
X31961D01*
X18378Y331417D02*
X31961D01*
X18378Y304331D02*
Y311417D01*
X31961Y304331D02*
Y311417D01*
X18378Y304331D02*
X31961D01*
X18378Y311417D02*
X31961D01*
X64878Y374931D02*
Y382017D01*
X78461Y374931D02*
Y382017D01*
X64878Y374931D02*
X78461D01*
X64878Y382017D02*
X78461D01*
X64878Y366131D02*
Y373217D01*
X78461Y366131D02*
Y373217D01*
X64878Y366131D02*
X78461D01*
X64878Y373217D02*
X78461D01*
X18378Y284331D02*
Y291417D01*
X31961Y284331D02*
Y291417D01*
X18378Y284331D02*
X31961D01*
X18378Y291417D02*
X31961D01*
X18378Y264331D02*
Y271417D01*
X31961Y264331D02*
Y271417D01*
X18378Y264331D02*
X31961D01*
X18378Y271417D02*
X31961D01*
X64878Y357331D02*
Y364417D01*
X78461Y357331D02*
Y364417D01*
X64878Y357331D02*
X78461D01*
X64878Y364417D02*
X78461D01*
X337126Y218083D02*
X344213D01*
X337126Y231665D02*
X344213D01*
Y218083D02*
Y231665D01*
X337126Y218083D02*
Y231665D01*
X209126Y329406D02*
X216213D01*
Y324386D02*
Y329406D01*
X209126Y324386D02*
Y329406D01*
Y315823D02*
Y320843D01*
X216213Y315823D02*
Y320843D01*
X209126Y315823D02*
X216213D01*
X208626Y273165D02*
X215713D01*
Y268146D02*
Y273165D01*
X208626Y268146D02*
Y273165D01*
Y259583D02*
Y264602D01*
X215713Y259583D02*
Y264602D01*
X208626Y259583D02*
X215713D01*
X288461Y388831D02*
Y395917D01*
X283441Y388831D02*
X288461D01*
X283441Y395917D02*
X288461D01*
X274878D02*
X279898D01*
X274878Y388831D02*
X279898D01*
X274878D02*
Y395917D01*
X208626Y215665D02*
X215713D01*
Y210646D02*
Y215665D01*
X208626Y210646D02*
Y215665D01*
Y202083D02*
Y207102D01*
X215713Y202083D02*
Y207102D01*
X208626Y202083D02*
X215713D01*
X292626Y378665D02*
X299713D01*
Y373646D02*
Y378665D01*
X292626Y373646D02*
Y378665D01*
Y365083D02*
Y370102D01*
X299713Y365083D02*
Y370102D01*
X292626Y365083D02*
X299713D01*
X196126Y347665D02*
X203213D01*
Y342646D02*
Y347665D01*
X196126Y342646D02*
Y347665D01*
Y334083D02*
Y339102D01*
X203213Y334083D02*
Y339102D01*
X196126Y334083D02*
X203213D01*
X204126Y347665D02*
X211213D01*
Y342646D02*
Y347665D01*
X204126Y342646D02*
Y347665D01*
Y334083D02*
Y339102D01*
X211213Y334083D02*
Y339102D01*
X204126Y334083D02*
X211213D01*
X248461Y403331D02*
Y410417D01*
X243441Y403331D02*
X248461D01*
X243441Y410417D02*
X248461D01*
X234878D02*
X239898D01*
X234878Y403331D02*
X239898D01*
X234878D02*
Y410417D01*
X219878Y403331D02*
Y410417D01*
X224898D01*
X219878Y403331D02*
X224898D01*
X228441D02*
X233461D01*
X228441Y410417D02*
X233461D01*
Y403331D02*
Y410417D01*
X197126Y382083D02*
X204213D01*
X197126D02*
Y387102D01*
X204213Y382083D02*
Y387102D01*
Y390646D02*
Y395665D01*
X197126Y390646D02*
Y395665D01*
X204213D01*
X189126Y382083D02*
X196213D01*
X189126D02*
Y387102D01*
X196213Y382083D02*
Y387102D01*
Y390646D02*
Y395665D01*
X189126Y390646D02*
Y395665D01*
X196213D01*
X351126Y317665D02*
X358213D01*
Y312646D02*
Y317665D01*
X351126Y312646D02*
Y317665D01*
Y304083D02*
Y309102D01*
X358213Y304083D02*
Y309102D01*
X351126Y304083D02*
X358213D01*
X343126Y317665D02*
X350213D01*
Y312646D02*
Y317665D01*
X343126Y312646D02*
Y317665D01*
Y304083D02*
Y309102D01*
X350213Y304083D02*
Y309102D01*
X343126Y304083D02*
X350213D01*
X275126Y110665D02*
X282213D01*
Y105646D02*
Y110665D01*
X275126Y105646D02*
Y110665D01*
Y97083D02*
Y102102D01*
X282213Y97083D02*
Y102102D01*
X275126Y97083D02*
X282213D01*
X335126Y317665D02*
X342213D01*
Y312646D02*
Y317665D01*
X335126Y312646D02*
Y317665D01*
Y304083D02*
Y309102D01*
X342213Y304083D02*
Y309102D01*
X335126Y304083D02*
X342213D01*
X119780Y173287D02*
X198126D01*
Y215413D01*
X119780D02*
X198126D01*
X119780Y173287D02*
Y215413D01*
Y230288D02*
X198126D01*
Y272413D01*
X119780D02*
X198126D01*
X119780Y230288D02*
Y272413D01*
X342878Y234831D02*
Y241917D01*
X356461Y234831D02*
Y241917D01*
X342878Y234831D02*
X356461D01*
X342878Y241917D02*
X356461D01*
X364961Y345331D02*
Y352417D01*
X351378Y345331D02*
Y352417D01*
X364961D01*
X351378Y345331D02*
X364961D01*
Y362831D02*
Y369917D01*
X351378Y362831D02*
Y369917D01*
X364961D01*
X351378Y362831D02*
X364961D01*
Y353831D02*
Y360917D01*
X351378Y353831D02*
Y360917D01*
X364961D01*
X351378Y353831D02*
X364961D01*
X342126Y244083D02*
X349213D01*
X342126Y257665D02*
X349213D01*
Y244083D02*
Y257665D01*
X342126Y244083D02*
Y257665D01*
Y273665D02*
X349213D01*
X342126Y260083D02*
X349213D01*
X342126D02*
Y273665D01*
X349213Y260083D02*
Y273665D01*
X342126Y290665D02*
X349213D01*
X342126Y277083D02*
X349213D01*
X342126D02*
Y290665D01*
X349213Y277083D02*
Y290665D01*
X342631Y409536D02*
X342856Y409086D01*
X343531Y408411D01*
X338807D01*
X379200Y323935D02*
Y318874D01*
X376669Y321405D02*
X381730D01*
D46*
X386662Y245756D02*
G03*
X386662Y245756I-492J0D01*
G01*
D47*
X378847Y249535D02*
G03*
X378847Y249535I-1181J0D01*
G01*
D48*
X-51701Y140874D02*
X-4457D01*
X-51701Y110874D02*
X-4457D01*
X-51701Y80874D02*
X-4457D01*
X-51701Y170874D02*
X-4457D01*
X-51701Y80874D02*
Y230874D01*
X-4457Y80874D02*
Y230874D01*
X-51701D02*
X-4457D01*
X-51701Y200874D02*
X-4457D01*
X393039Y151374D02*
Y231374D01*
X345795Y151374D02*
Y231374D01*
Y151374D02*
X393039D01*
X345795Y231374D02*
X393039D01*
X81472Y170488D02*
X272417D01*
X81472Y28756D02*
X272417D01*
X81472D02*
Y170488D01*
X272417Y28756D02*
Y170488D01*
X230221Y28756D02*
X237839D01*
X272417Y63335D01*
X250721Y28756D02*
X272667Y51085D01*
X-51701Y257874D02*
X-4457D01*
X-51701Y377874D02*
X-4457D01*
Y257874D02*
Y377874D01*
X-51701Y257874D02*
Y377874D01*
X369169Y354874D02*
Y360872D01*
X372168D01*
X373168Y359873D01*
Y357873D01*
X372168Y356873D01*
X369169D01*
X371169D02*
X373168Y354874D01*
X379166Y360872D02*
X377167Y359873D01*
X375167Y357873D01*
Y355874D01*
X376167Y354874D01*
X378167D01*
X379166Y355874D01*
Y356873D01*
X378167Y357873D01*
X375167D01*
X369169Y345374D02*
Y351372D01*
X372168D01*
X373168Y350373D01*
Y348373D01*
X372168Y347374D01*
X369169D01*
X371169D02*
X373168Y345374D01*
X378167D02*
Y351372D01*
X375167Y348373D01*
X379166D01*
X342468Y425273D02*
X341468Y426272D01*
X339469D01*
X338469Y425273D01*
Y421274D01*
X339469Y420274D01*
X341468D01*
X342468Y421274D01*
X344467D02*
X345467Y420274D01*
X347466D01*
X348466Y421274D01*
Y425273D01*
X347466Y426272D01*
X345467D01*
X344467Y425273D01*
Y424273D01*
X345467Y423273D01*
X348466D01*
X353969Y420572D02*
Y414574D01*
X356968D01*
X357968Y415574D01*
Y416573D01*
X356968Y417573D01*
X353969D01*
X356968D01*
X357968Y418573D01*
Y419572D01*
X356968Y420572D01*
X353969D01*
X359967Y414574D02*
X361967D01*
X360967D01*
Y420572D01*
X359967Y419572D01*
X167168Y409872D02*
X166168Y410872D01*
X164169D01*
X163169Y409872D01*
Y405874D01*
X164169Y404874D01*
X166168D01*
X167168Y405874D01*
X169167Y409872D02*
X170167Y410872D01*
X172167D01*
X173166Y409872D01*
Y408873D01*
X172167Y407873D01*
X173166Y406874D01*
Y405874D01*
X172167Y404874D01*
X170167D01*
X169167Y405874D01*
Y406874D01*
X170167Y407873D01*
X169167Y408873D01*
Y409872D01*
X170167Y407873D02*
X172167D01*
X166168Y401372D02*
X165168Y402372D01*
X163169D01*
X162169Y401372D01*
Y397374D01*
X163169Y396374D01*
X165168D01*
X166168Y397374D01*
X168167Y402372D02*
X172166D01*
Y401372D01*
X168167Y397374D01*
Y396374D01*
X340169Y280874D02*
X334171D01*
Y283873D01*
X335171Y284873D01*
X337170D01*
X338170Y283873D01*
Y280874D01*
Y282874D02*
X340169Y284873D01*
X339170Y286872D02*
X340169Y287872D01*
Y289871D01*
X339170Y290871D01*
X335171D01*
X334171Y289871D01*
Y287872D01*
X335171Y286872D01*
X336171D01*
X337170Y287872D01*
Y290871D01*
X340669Y265874D02*
X334671D01*
Y268873D01*
X335671Y269873D01*
X337670D01*
X338670Y268873D01*
Y265874D01*
Y267874D02*
X340669Y269873D01*
X335671Y271872D02*
X334671Y272872D01*
Y274871D01*
X335671Y275871D01*
X336671D01*
X337670Y274871D01*
X338670Y275871D01*
X339670D01*
X340669Y274871D01*
Y272872D01*
X339670Y271872D01*
X338670D01*
X337670Y272872D01*
X336671Y271872D01*
X335671D01*
X337670Y272872D02*
Y274871D01*
X341169Y248374D02*
X335171D01*
Y251373D01*
X336171Y252373D01*
X338170D01*
X339170Y251373D01*
Y248374D01*
Y250374D02*
X341169Y252373D01*
X335171Y254372D02*
Y258371D01*
X336171D01*
X340170Y254372D01*
X341169D01*
X357669Y235374D02*
Y241372D01*
X360668D01*
X361668Y240372D01*
Y238373D01*
X360668Y237373D01*
X357669D01*
X359669D02*
X361668Y235374D01*
X363667Y240372D02*
X364667Y241372D01*
X366667D01*
X367666Y240372D01*
Y239373D01*
X366667Y238373D01*
X365667D01*
X366667D01*
X367666Y237373D01*
Y236374D01*
X366667Y235374D01*
X364667D01*
X363667Y236374D01*
X387668Y295872D02*
X386668Y296872D01*
X384669D01*
X383669Y295872D01*
Y294873D01*
X384669Y293873D01*
X386668D01*
X387668Y292874D01*
Y291874D01*
X386668Y290874D01*
X384669D01*
X383669Y291874D01*
X389667Y290874D02*
X391667D01*
X390667D01*
Y296872D01*
X389667Y295872D01*
X294568Y429973D02*
X293568Y430972D01*
X291569D01*
X290569Y429973D01*
Y425974D01*
X291569Y424974D01*
X293568D01*
X294568Y425974D01*
X300566Y430972D02*
X298567Y429973D01*
X296567Y427973D01*
Y425974D01*
X297567Y424974D01*
X299567D01*
X300566Y425974D01*
Y426973D01*
X299567Y427973D01*
X296567D01*
X374669Y337874D02*
X368671D01*
Y340873D01*
X369671Y341873D01*
X371670D01*
X372670Y340873D01*
Y337874D01*
Y339874D02*
X374669Y341873D01*
Y347871D02*
Y343872D01*
X370671Y347871D01*
X369671D01*
X368671Y346871D01*
Y344872D01*
X369671Y343872D01*
X382169Y308372D02*
Y302374D01*
X385168D01*
X386168Y303374D01*
Y307372D01*
X385168Y308372D01*
X382169D01*
X391166Y302374D02*
Y308372D01*
X388167Y305373D01*
X392166D01*
X-47182Y386322D02*
X-48182Y387322D01*
X-50181D01*
X-51181Y386322D01*
Y382324D01*
X-50181Y381324D01*
X-48182D01*
X-47182Y382324D01*
X-45183Y381324D02*
Y387322D01*
X-41184Y381324D01*
Y387322D01*
X-36186Y381324D02*
Y387322D01*
X-39184Y384323D01*
X-35186D01*
X83919Y309639D02*
Y315637D01*
X86918D01*
X87918Y314637D01*
Y312638D01*
X86918Y311638D01*
X83919D01*
X85919D02*
X87918Y309639D01*
X89917Y314637D02*
X90917Y315637D01*
X92917D01*
X93916Y314637D01*
Y313638D01*
X92917Y312638D01*
X93916Y311638D01*
Y310639D01*
X92917Y309639D01*
X90917D01*
X89917Y310639D01*
Y311638D01*
X90917Y312638D01*
X89917Y313638D01*
Y314637D01*
X90917Y312638D02*
X92917D01*
X99914Y309639D02*
X95916D01*
X99914Y313638D01*
Y314637D01*
X98914Y315637D01*
X96915D01*
X95916Y314637D01*
X105434Y240624D02*
X111432D01*
Y237625D01*
X110433Y236625D01*
X108433D01*
X107434Y237625D01*
Y240624D01*
Y238625D02*
X105434Y236625D01*
X111432Y234626D02*
Y230627D01*
X110433D01*
X106434Y234626D01*
X105434D01*
X111432Y224629D02*
X110433Y226629D01*
X108433Y228628D01*
X106434D01*
X105434Y227628D01*
Y225629D01*
X106434Y224629D01*
X107434D01*
X108433Y225629D01*
Y228628D01*
X105434Y199124D02*
X111432D01*
Y196125D01*
X110433Y195125D01*
X108433D01*
X107434Y196125D01*
Y199124D01*
Y197125D02*
X105434Y195125D01*
X111432Y193126D02*
Y189127D01*
X110433D01*
X106434Y193126D01*
X105434D01*
X110433Y187128D02*
X111432Y186128D01*
Y184129D01*
X110433Y183129D01*
X106434D01*
X105434Y184129D01*
Y186128D01*
X106434Y187128D01*
X110433D01*
X277669Y358872D02*
X281668Y352874D01*
Y358872D02*
X277669Y352874D01*
X287666D02*
X283667D01*
X287666Y356873D01*
Y357873D01*
X286666Y358872D01*
X284667D01*
X283667Y357873D01*
X54669Y28872D02*
Y24873D01*
X56669Y22874D01*
X58668Y24873D01*
Y28872D01*
X60667Y22874D02*
Y26873D01*
X62667Y28872D01*
X64666Y26873D01*
Y22874D01*
Y25873D01*
X60667D01*
X66666Y22874D02*
Y28872D01*
X69665D01*
X70664Y27872D01*
Y25873D01*
X69665Y24873D01*
X66666D01*
X68665D02*
X70664Y22874D01*
X72663D02*
X74663D01*
X73663D01*
Y28872D01*
X72663Y27872D01*
X287669Y342872D02*
Y337874D01*
X288669Y336874D01*
X290668D01*
X291668Y337874D01*
Y342872D01*
X293667Y341873D02*
X294667Y342872D01*
X296667D01*
X297666Y341873D01*
Y340873D01*
X296667Y339873D01*
X297666Y338874D01*
Y337874D01*
X296667Y336874D01*
X294667D01*
X293667Y337874D01*
Y338874D01*
X294667Y339873D01*
X293667Y340873D01*
Y341873D01*
X294667Y339873D02*
X296667D01*
X303669Y229372D02*
Y224374D01*
X304669Y223374D01*
X306668D01*
X307668Y224374D01*
Y229372D01*
X312667Y223374D02*
Y229372D01*
X309667Y226373D01*
X313666D01*
X255669Y410872D02*
Y405874D01*
X256669Y404874D01*
X258668D01*
X259668Y405874D01*
Y410872D01*
X265666Y404874D02*
X261667D01*
X265666Y408873D01*
Y409872D01*
X264667Y410872D01*
X262667D01*
X261667Y409872D01*
X282169Y169985D02*
X277170D01*
X276171Y168985D01*
Y166986D01*
X277170Y165986D01*
X282169D01*
X276171Y163987D02*
Y161987D01*
Y162987D01*
X282169D01*
X281169Y163987D01*
X157669Y336372D02*
X161668D01*
X159669D01*
Y330374D01*
X167666Y336372D02*
X165667Y335372D01*
X163667Y333373D01*
Y331374D01*
X164667Y330374D01*
X166666D01*
X167666Y331374D01*
Y332373D01*
X166666Y333373D01*
X163667D01*
X186169Y280872D02*
X190168D01*
X188169D01*
Y274874D01*
X196166Y280872D02*
X192167D01*
Y277873D01*
X194167Y278873D01*
X195167D01*
X196166Y277873D01*
Y275874D01*
X195167Y274874D01*
X193167D01*
X192167Y275874D01*
X184669Y225372D02*
X188668D01*
X186669D01*
Y219374D01*
X193667D02*
Y225372D01*
X190667Y222373D01*
X194666D01*
X27669Y22874D02*
Y28872D01*
X30668D01*
X31668Y27872D01*
Y25873D01*
X30668Y24873D01*
X27669D01*
X29669D02*
X31668Y22874D01*
X33667Y28872D02*
X37666D01*
X35667D01*
Y22874D01*
X39665D02*
X41665D01*
X40665D01*
Y28872D01*
X39665Y27872D01*
X306669Y154874D02*
Y160872D01*
X309668D01*
X310668Y159872D01*
Y157873D01*
X309668Y156874D01*
X306669D01*
X308669D02*
X310668Y154874D01*
X312667Y155874D02*
X313667Y154874D01*
X315667D01*
X316666Y155874D01*
Y159872D01*
X315667Y160872D01*
X313667D01*
X312667Y159872D01*
Y158873D01*
X313667Y157873D01*
X316666D01*
X322664Y154874D02*
X318666D01*
X322664Y158873D01*
Y159872D01*
X321665Y160872D01*
X319665D01*
X318666Y159872D01*
X310669Y181874D02*
Y187872D01*
X313668D01*
X314668Y186872D01*
Y184873D01*
X313668Y183873D01*
X310669D01*
X312669D02*
X314668Y181874D01*
X316667Y182874D02*
X317667Y181874D01*
X319667D01*
X320666Y182874D01*
Y186872D01*
X319667Y187872D01*
X317667D01*
X316667Y186872D01*
Y185873D01*
X317667Y184873D01*
X320666D01*
X322666Y181874D02*
X324665D01*
X323665D01*
Y187872D01*
X322666Y186872D01*
X332669Y247874D02*
X326671D01*
Y250873D01*
X327671Y251873D01*
X329670D01*
X330670Y250873D01*
Y247874D01*
Y249873D02*
X332669Y251873D01*
X331670Y253872D02*
X332669Y254872D01*
Y256871D01*
X331670Y257871D01*
X327671D01*
X326671Y256871D01*
Y254872D01*
X327671Y253872D01*
X328671D01*
X329670Y254872D01*
Y257871D01*
X327671Y259870D02*
X326671Y260870D01*
Y262869D01*
X327671Y263869D01*
X331670D01*
X332669Y262869D01*
Y260870D01*
X331670Y259870D01*
X327671D01*
X218169Y320374D02*
Y326372D01*
X221168D01*
X222168Y325373D01*
Y323373D01*
X221168Y322374D01*
X218169D01*
X220169D02*
X222168Y320374D01*
X224167Y325373D02*
X225167Y326372D01*
X227167D01*
X228166Y325373D01*
Y324373D01*
X227167Y323373D01*
X228166Y322374D01*
Y321374D01*
X227167Y320374D01*
X225167D01*
X224167Y321374D01*
Y322374D01*
X225167Y323373D01*
X224167Y324373D01*
Y325373D01*
X225167Y323373D02*
X227167D01*
X233165Y320374D02*
Y326372D01*
X230166Y323373D01*
X234164D01*
X209669Y306374D02*
Y312372D01*
X212668D01*
X213668Y311372D01*
Y309373D01*
X212668Y308373D01*
X209669D01*
X211669D02*
X213668Y306374D01*
X215667Y311372D02*
X216667Y312372D01*
X218667D01*
X219666Y311372D01*
Y310373D01*
X218667Y309373D01*
X219666Y308373D01*
Y307374D01*
X218667Y306374D01*
X216667D01*
X215667Y307374D01*
Y308373D01*
X216667Y309373D01*
X215667Y310373D01*
Y311372D01*
X216667Y309373D02*
X218667D01*
X221666Y311372D02*
X222665Y312372D01*
X224664D01*
X225664Y311372D01*
Y310373D01*
X224664Y309373D01*
X223665D01*
X224664D01*
X225664Y308373D01*
Y307374D01*
X224664Y306374D01*
X222665D01*
X221666Y307374D01*
X200169Y275374D02*
Y281372D01*
X203168D01*
X204168Y280373D01*
Y278373D01*
X203168Y277374D01*
X200169D01*
X202169D02*
X204168Y275374D01*
X206167Y281372D02*
X210166D01*
Y280373D01*
X206167Y276374D01*
Y275374D01*
X212165Y280373D02*
X213165Y281372D01*
X215164D01*
X216164Y280373D01*
Y279373D01*
X215164Y278373D01*
X216164Y277374D01*
Y276374D01*
X215164Y275374D01*
X213165D01*
X212165Y276374D01*
Y277374D01*
X213165Y278373D01*
X212165Y279373D01*
Y280373D01*
X213165Y278373D02*
X215164D01*
X210169Y249374D02*
Y255372D01*
X213168D01*
X214168Y254373D01*
Y252373D01*
X213168Y251374D01*
X210169D01*
X212169D02*
X214168Y249374D01*
X216167Y255372D02*
X220166D01*
Y254373D01*
X216167Y250374D01*
Y249374D01*
X222165Y255372D02*
X226164D01*
Y254373D01*
X222165Y250374D01*
Y249374D01*
X200719Y219024D02*
Y225022D01*
X203718D01*
X204718Y224023D01*
Y222023D01*
X203718Y221024D01*
X200719D01*
X202719D02*
X204718Y219024D01*
X206717Y225022D02*
X210716D01*
Y224023D01*
X206717Y220024D01*
Y219024D01*
X216714D02*
X212716D01*
X216714Y223023D01*
Y224023D01*
X215715Y225022D01*
X213715D01*
X212716Y224023D01*
X212669Y193374D02*
Y199372D01*
X215668D01*
X216668Y198372D01*
Y196373D01*
X215668Y195373D01*
X212669D01*
X214669D02*
X216668Y193374D01*
X218667Y199372D02*
X222666D01*
Y198372D01*
X218667Y194374D01*
Y193374D01*
X224665D02*
X226665D01*
X225665D01*
Y199372D01*
X224665Y198372D01*
X194169Y349874D02*
X188171D01*
Y352873D01*
X189171Y353873D01*
X191170D01*
X192170Y352873D01*
Y349874D01*
Y351873D02*
X194169Y353873D01*
X189171Y355872D02*
X188171Y356872D01*
Y358871D01*
X189171Y359871D01*
X190171D01*
X191170Y358871D01*
Y357872D01*
Y358871D01*
X192170Y359871D01*
X193170D01*
X194169Y358871D01*
Y356872D01*
X193170Y355872D01*
X194169Y365869D02*
Y361870D01*
X190171Y365869D01*
X189171D01*
X188171Y364869D01*
Y362870D01*
X189171Y361870D01*
X46669Y401874D02*
Y407872D01*
X49668D01*
X50668Y406873D01*
Y404873D01*
X49668Y403873D01*
X46669D01*
X48669D02*
X50668Y401874D01*
X56666D02*
X52667D01*
X56666Y405873D01*
Y406873D01*
X55667Y407872D01*
X53667D01*
X52667Y406873D01*
X62664Y407872D02*
X58666D01*
Y404873D01*
X60665Y405873D01*
X61664D01*
X62664Y404873D01*
Y402874D01*
X61664Y401874D01*
X59665D01*
X58666Y402874D01*
X18169Y373874D02*
Y379872D01*
X21168D01*
X22168Y378872D01*
Y376873D01*
X21168Y375873D01*
X18169D01*
X20169D02*
X22168Y373874D01*
X28166D02*
X24167D01*
X28166Y377873D01*
Y378872D01*
X27167Y379872D01*
X25167D01*
X24167Y378872D01*
X33165Y373874D02*
Y379872D01*
X30165Y376873D01*
X34164D01*
X163669Y422374D02*
Y428372D01*
X166668D01*
X167668Y427373D01*
Y425373D01*
X166668Y424373D01*
X163669D01*
X165669D02*
X167668Y422374D01*
X173666D02*
X169667D01*
X173666Y426373D01*
Y427373D01*
X172667Y428372D01*
X170667D01*
X169667Y427373D01*
X175665D02*
X176665Y428372D01*
X178665D01*
X179664Y427373D01*
Y426373D01*
X178665Y425373D01*
X177665D01*
X178665D01*
X179664Y424373D01*
Y423374D01*
X178665Y422374D01*
X176665D01*
X175665Y423374D01*
X18169Y353874D02*
Y359872D01*
X21168D01*
X22168Y358873D01*
Y356873D01*
X21168Y355873D01*
X18169D01*
X20169D02*
X22168Y353874D01*
X28166D02*
X24167D01*
X28166Y357873D01*
Y358873D01*
X27167Y359872D01*
X25167D01*
X24167Y358873D01*
X34164Y353874D02*
X30165D01*
X34164Y357873D01*
Y358873D01*
X33165Y359872D01*
X31165D01*
X30165Y358873D01*
X163669Y413874D02*
Y419872D01*
X166668D01*
X167668Y418872D01*
Y416873D01*
X166668Y415873D01*
X163669D01*
X165669D02*
X167668Y413874D01*
X173666D02*
X169667D01*
X173666Y417873D01*
Y418872D01*
X172667Y419872D01*
X170667D01*
X169667Y418872D01*
X175665Y413874D02*
X177665D01*
X176665D01*
Y419872D01*
X175665Y418872D01*
X46669Y392874D02*
Y398872D01*
X49668D01*
X50668Y397872D01*
Y395873D01*
X49668Y394873D01*
X46669D01*
X48669D02*
X50668Y392874D01*
X56666D02*
X52667D01*
X56666Y396873D01*
Y397872D01*
X55667Y398872D01*
X53667D01*
X52667Y397872D01*
X58666D02*
X59665Y398872D01*
X61664D01*
X62664Y397872D01*
Y393874D01*
X61664Y392874D01*
X59665D01*
X58666Y393874D01*
Y397872D01*
X47169Y383874D02*
Y389872D01*
X50168D01*
X51168Y388873D01*
Y386873D01*
X50168Y385874D01*
X47169D01*
X49169D02*
X51168Y383874D01*
X53167D02*
X55167D01*
X54167D01*
Y389872D01*
X53167Y388873D01*
X58166Y384874D02*
X59166Y383874D01*
X61165D01*
X62164Y384874D01*
Y388873D01*
X61165Y389872D01*
X59166D01*
X58166Y388873D01*
Y387873D01*
X59166Y386873D01*
X62164D01*
X19019Y334824D02*
Y340822D01*
X22018D01*
X23018Y339823D01*
Y337823D01*
X22018Y336824D01*
X19019D01*
X21019D02*
X23018Y334824D01*
X25017D02*
X27017D01*
X26017D01*
Y340822D01*
X25017Y339823D01*
X30016D02*
X31016Y340822D01*
X33015D01*
X34014Y339823D01*
Y338823D01*
X33015Y337823D01*
X34014Y336824D01*
Y335824D01*
X33015Y334824D01*
X31016D01*
X30016Y335824D01*
Y336824D01*
X31016Y337823D01*
X30016Y338823D01*
Y339823D01*
X31016Y337823D02*
X33015D01*
X19019Y314824D02*
Y320822D01*
X22018D01*
X23018Y319823D01*
Y317823D01*
X22018Y316824D01*
X19019D01*
X21019D02*
X23018Y314824D01*
X25017D02*
X27017D01*
X26017D01*
Y320822D01*
X25017Y319823D01*
X34014Y320822D02*
X32015Y319823D01*
X30016Y317823D01*
Y315824D01*
X31016Y314824D01*
X33015D01*
X34014Y315824D01*
Y316824D01*
X33015Y317823D01*
X30016D01*
X46669Y375374D02*
Y381372D01*
X49668D01*
X50668Y380373D01*
Y378373D01*
X49668Y377374D01*
X46669D01*
X48669D02*
X50668Y375374D01*
X52667D02*
X54667D01*
X53667D01*
Y381372D01*
X52667Y380373D01*
X61664Y381372D02*
X57666D01*
Y378373D01*
X59665Y379373D01*
X60665D01*
X61664Y378373D01*
Y376374D01*
X60665Y375374D01*
X58666D01*
X57666Y376374D01*
X46669Y365874D02*
Y371872D01*
X49668D01*
X50668Y370872D01*
Y368873D01*
X49668Y367874D01*
X46669D01*
X48669D02*
X50668Y365874D01*
X52667D02*
X54667D01*
X53667D01*
Y371872D01*
X52667Y370872D01*
X60665Y365874D02*
Y371872D01*
X57666Y368873D01*
X61664D01*
X19019Y294824D02*
Y300822D01*
X22018D01*
X23018Y299822D01*
Y297823D01*
X22018Y296824D01*
X19019D01*
X21019D02*
X23018Y294824D01*
X25017D02*
X27017D01*
X26017D01*
Y300822D01*
X25017Y299822D01*
X30016D02*
X31016Y300822D01*
X33015D01*
X34014Y299822D01*
Y298823D01*
X33015Y297823D01*
X32015D01*
X33015D01*
X34014Y296824D01*
Y295824D01*
X33015Y294824D01*
X31016D01*
X30016Y295824D01*
X19019Y274824D02*
Y280822D01*
X22018D01*
X23018Y279822D01*
Y277823D01*
X22018Y276823D01*
X19019D01*
X21019D02*
X23018Y274824D01*
X25017D02*
X27017D01*
X26017D01*
Y280822D01*
X25017Y279822D01*
X34014Y274824D02*
X30016D01*
X34014Y278823D01*
Y279822D01*
X33015Y280822D01*
X31016D01*
X30016Y279822D01*
X47669Y357374D02*
Y363372D01*
X50668D01*
X51668Y362372D01*
Y360373D01*
X50668Y359373D01*
X47669D01*
X49669D02*
X51668Y357374D01*
X53667D02*
X55667D01*
X54667D01*
Y363372D01*
X53667Y362372D01*
X58666Y357374D02*
X60665D01*
X59666D01*
Y363372D01*
X58666Y362372D01*
X367169Y364374D02*
Y370372D01*
X370168D01*
X371168Y369373D01*
Y367373D01*
X370168Y366373D01*
X367169D01*
X369169D02*
X371168Y364374D01*
X377166Y370372D02*
X373167D01*
Y367373D01*
X375167Y368373D01*
X376167D01*
X377166Y367373D01*
Y365374D01*
X376167Y364374D01*
X374167D01*
X373167Y365374D01*
X335669Y222874D02*
X329671D01*
Y225873D01*
X330671Y226873D01*
X332670D01*
X333670Y225873D01*
Y222874D01*
Y224873D02*
X335669Y226873D01*
Y228872D02*
Y230872D01*
Y229872D01*
X329671D01*
X330671Y228872D01*
X35668Y119872D02*
X31669D01*
Y116873D01*
X33669D01*
X31669D01*
Y113874D01*
X37667D02*
X39667D01*
X38667D01*
Y119872D01*
X37667Y118872D01*
X285121Y122824D02*
X291119D01*
Y125823D01*
X290120Y126823D01*
X286121D01*
X285121Y125823D01*
Y122824D01*
X286121Y128822D02*
X285121Y129822D01*
Y131821D01*
X286121Y132821D01*
X287121D01*
X288120Y131821D01*
Y130822D01*
Y131821D01*
X289120Y132821D01*
X290120D01*
X291119Y131821D01*
Y129822D01*
X290120Y128822D01*
X310669Y173872D02*
Y167874D01*
X313668D01*
X314668Y168874D01*
Y172872D01*
X313668Y173872D01*
X310669D01*
X320666Y167874D02*
X316667D01*
X320666Y171873D01*
Y172872D01*
X319667Y173872D01*
X317667D01*
X316667Y172872D01*
X175169Y355872D02*
Y349874D01*
X178168D01*
X179168Y350874D01*
Y354872D01*
X178168Y355872D01*
X175169D01*
X181167Y349874D02*
X183167D01*
X182167D01*
Y355872D01*
X181167Y354872D01*
X388521Y142926D02*
X389520Y141926D01*
X391520D01*
X392519Y142926D01*
Y146924D01*
X391520Y147924D01*
X389520D01*
X388521Y146924D01*
X386521Y147924D02*
Y141926D01*
X382523Y147924D01*
Y141926D01*
X380523Y142926D02*
X379524Y141926D01*
X377524D01*
X376524Y142926D01*
Y143925D01*
X377524Y144925D01*
X378524D01*
X377524D01*
X376524Y145925D01*
Y146924D01*
X377524Y147924D01*
X379524D01*
X380523Y146924D01*
X-47182Y239322D02*
X-48182Y240322D01*
X-50181D01*
X-51181Y239322D01*
Y235324D01*
X-50181Y234324D01*
X-48182D01*
X-47182Y235324D01*
X-45183Y234324D02*
Y240322D01*
X-41184Y234324D01*
Y240322D01*
X-35186Y234324D02*
X-39184D01*
X-35186Y238323D01*
Y239322D01*
X-36186Y240322D01*
X-38185D01*
X-39184Y239322D01*
X341521Y347226D02*
X342520Y346226D01*
X344520D01*
X345519Y347226D01*
Y351224D01*
X344520Y352224D01*
X342520D01*
X341521Y351224D01*
X339521Y352224D02*
Y346226D01*
X335523Y352224D01*
Y346226D01*
X333523Y352224D02*
X331524D01*
X332524D01*
Y346226D01*
X333523Y347226D01*
X268168Y244872D02*
X267168Y245872D01*
X265169D01*
X264169Y244872D01*
Y240874D01*
X265169Y239874D01*
X267168D01*
X268168Y240874D01*
X270167D02*
X271167Y239874D01*
X273166D01*
X274166Y240874D01*
Y244872D01*
X273166Y245872D01*
X271167D01*
X270167Y244872D01*
Y243873D01*
X271167Y242873D01*
X274166D01*
X276166Y244872D02*
X277165Y245872D01*
X279165D01*
X280164Y244872D01*
Y240874D01*
X279165Y239874D01*
X277165D01*
X276166Y240874D01*
Y244872D01*
X244668Y324872D02*
X243668Y325872D01*
X241669D01*
X240669Y324872D01*
Y320874D01*
X241669Y319874D01*
X243668D01*
X244668Y320874D01*
X250666Y325872D02*
X248667Y324872D01*
X246667Y322873D01*
Y320874D01*
X247667Y319874D01*
X249667D01*
X250666Y320874D01*
Y321873D01*
X249667Y322873D01*
X246667D01*
X255664Y319874D02*
Y325872D01*
X252665Y322873D01*
X256664D01*
X221668Y270373D02*
X220668Y271372D01*
X218669D01*
X217669Y270373D01*
Y266374D01*
X218669Y265374D01*
X220668D01*
X221668Y266374D01*
X227666Y271372D02*
X225667Y270373D01*
X223667Y268373D01*
Y266374D01*
X224667Y265374D01*
X226666D01*
X227666Y266374D01*
Y267373D01*
X226666Y268373D01*
X223667D01*
X229665Y270373D02*
X230665Y271372D01*
X232664D01*
X233664Y270373D01*
Y269373D01*
X232664Y268373D01*
X231665D01*
X232664D01*
X233664Y267373D01*
Y266374D01*
X232664Y265374D01*
X230665D01*
X229665Y266374D01*
X275254Y404459D02*
X274254Y405458D01*
X272255D01*
X271255Y404459D01*
Y400460D01*
X272255Y399460D01*
X274254D01*
X275254Y400460D01*
X281252Y405458D02*
X279253Y404459D01*
X277254Y402459D01*
Y400460D01*
X278253Y399460D01*
X280253D01*
X281252Y400460D01*
Y401460D01*
X280253Y402459D01*
X277254D01*
X287250Y399460D02*
X283252D01*
X287250Y403459D01*
Y404459D01*
X286251Y405458D01*
X284251D01*
X283252Y404459D01*
X223668Y212873D02*
X222668Y213872D01*
X220669D01*
X219669Y212873D01*
Y208874D01*
X220669Y207874D01*
X222668D01*
X223668Y208874D01*
X229666Y213872D02*
X227667Y212873D01*
X225667Y210873D01*
Y208874D01*
X226667Y207874D01*
X228666D01*
X229666Y208874D01*
Y209874D01*
X228666Y210873D01*
X225667D01*
X231665Y207874D02*
X233665D01*
X232665D01*
Y213872D01*
X231665Y212873D01*
X303671Y368373D02*
X302671Y367373D01*
Y365374D01*
X303671Y364374D01*
X307670D01*
X308669Y365374D01*
Y367373D01*
X307670Y368373D01*
X302671Y374371D02*
X303671Y372372D01*
X305670Y370372D01*
X307670D01*
X308669Y371372D01*
Y373371D01*
X307670Y374371D01*
X306670D01*
X305670Y373371D01*
Y370372D01*
X303671Y376370D02*
X302671Y377370D01*
Y379369D01*
X303671Y380369D01*
X307670D01*
X308669Y379369D01*
Y377370D01*
X307670Y376370D01*
X303671D01*
X110168Y422872D02*
X109168Y423872D01*
X107169D01*
X106169Y422872D01*
Y418874D01*
X107169Y417874D01*
X109168D01*
X110168Y418874D01*
X116166Y417874D02*
X112167D01*
X116166Y421873D01*
Y422872D01*
X115166Y423872D01*
X113167D01*
X112167Y422872D01*
X118166D02*
X119165Y423872D01*
X121165D01*
X122164Y422872D01*
Y421873D01*
X121165Y420873D01*
X120165D01*
X121165D01*
X122164Y419873D01*
Y418874D01*
X121165Y417874D01*
X119165D01*
X118166Y418874D01*
X109668Y405872D02*
X108668Y406872D01*
X106669D01*
X105669Y405872D01*
Y401874D01*
X106669Y400874D01*
X108668D01*
X109668Y401874D01*
X115666Y400874D02*
X111667D01*
X115666Y404873D01*
Y405872D01*
X114666Y406872D01*
X112667D01*
X111667Y405872D01*
X121664Y400874D02*
X117666D01*
X121664Y404873D01*
Y405872D01*
X120665Y406872D01*
X118665D01*
X117666Y405872D01*
X197171Y352873D02*
X196171Y351873D01*
Y349874D01*
X197171Y348874D01*
X201170D01*
X202169Y349874D01*
Y351873D01*
X201170Y352873D01*
X202169Y358871D02*
Y354872D01*
X198171Y358871D01*
X197171D01*
X196171Y357871D01*
Y355872D01*
X197171Y354872D01*
X202169Y360870D02*
Y362870D01*
Y361870D01*
X196171D01*
X197171Y360870D01*
X205171Y352873D02*
X204171Y351873D01*
Y349874D01*
X205171Y348874D01*
X209170D01*
X210169Y349874D01*
Y351873D01*
X209170Y352873D01*
X210169Y358871D02*
Y354872D01*
X206171Y358871D01*
X205171D01*
X204171Y357871D01*
Y355872D01*
X205171Y354872D01*
Y360870D02*
X204171Y361870D01*
Y363869D01*
X205171Y364869D01*
X209170D01*
X210169Y363869D01*
Y361870D01*
X209170Y360870D01*
X205171D01*
X110168Y393872D02*
X109168Y394872D01*
X107169D01*
X106169Y393872D01*
Y389874D01*
X107169Y388874D01*
X109168D01*
X110168Y389874D01*
X112167Y388874D02*
X114167D01*
X113167D01*
Y394872D01*
X112167Y393872D01*
X117166Y389874D02*
X118166Y388874D01*
X120165D01*
X121165Y389874D01*
Y393872D01*
X120165Y394872D01*
X118166D01*
X117166Y393872D01*
Y392873D01*
X118166Y391873D01*
X121165D01*
X238668Y417872D02*
X237668Y418872D01*
X235669D01*
X234669Y417872D01*
Y413874D01*
X235669Y412874D01*
X237668D01*
X238668Y413874D01*
X240667Y412874D02*
X242667D01*
X241667D01*
Y418872D01*
X240667Y417872D01*
X245666D02*
X246666Y418872D01*
X248665D01*
X249664Y417872D01*
Y416873D01*
X248665Y415873D01*
X249664Y414873D01*
Y413874D01*
X248665Y412874D01*
X246666D01*
X245666Y413874D01*
Y414873D01*
X246666Y415873D01*
X245666Y416873D01*
Y417872D01*
X246666Y415873D02*
X248665D01*
X205668Y409872D02*
X204668Y410872D01*
X202669D01*
X201669Y409872D01*
Y405874D01*
X202669Y404874D01*
X204668D01*
X205668Y405874D01*
X207667Y404874D02*
X209667D01*
X208667D01*
Y410872D01*
X207667Y409872D01*
X212666Y410872D02*
X216665D01*
Y409872D01*
X212666Y405874D01*
Y404874D01*
X193668Y378872D02*
X192668Y379872D01*
X190669D01*
X189669Y378872D01*
Y374874D01*
X190669Y373874D01*
X192668D01*
X193668Y374874D01*
X195667Y373874D02*
X197667D01*
X196667D01*
Y379872D01*
X195667Y378872D01*
X204664Y379872D02*
X202665Y378872D01*
X200666Y376873D01*
Y374874D01*
X201665Y373874D01*
X203665D01*
X204664Y374874D01*
Y375873D01*
X203665Y376873D01*
X200666D01*
X110668Y379373D02*
X109668Y380372D01*
X107669D01*
X106669Y379373D01*
Y375374D01*
X107669Y374374D01*
X109668D01*
X110668Y375374D01*
X112667Y374374D02*
X114667D01*
X113667D01*
Y380372D01*
X112667Y379373D01*
X121665Y380372D02*
X117666D01*
Y377373D01*
X119665Y378373D01*
X120665D01*
X121665Y377373D01*
Y375374D01*
X120665Y374374D01*
X118666D01*
X117666Y375374D01*
X173668Y378872D02*
X172668Y379872D01*
X170669D01*
X169669Y378872D01*
Y374874D01*
X170669Y373874D01*
X172668D01*
X173668Y374874D01*
X175667Y373874D02*
X177667D01*
X176667D01*
Y379872D01*
X175667Y378872D01*
X180666D02*
X181666Y379872D01*
X183665D01*
X184664Y378872D01*
Y377873D01*
X183665Y376873D01*
X182665D01*
X183665D01*
X184664Y375873D01*
Y374874D01*
X183665Y373874D01*
X181666D01*
X180666Y374874D01*
X111168Y367873D02*
X110168Y368872D01*
X108169D01*
X107169Y367873D01*
Y363874D01*
X108169Y362874D01*
X110168D01*
X111168Y363874D01*
X113167Y362874D02*
X115167D01*
X114167D01*
Y368872D01*
X113167Y367873D01*
X122164Y362874D02*
X118166D01*
X122164Y366873D01*
Y367873D01*
X121165Y368872D01*
X119166D01*
X118166Y367873D01*
X112168Y354872D02*
X111168Y355872D01*
X109169D01*
X108169Y354872D01*
Y350874D01*
X109169Y349874D01*
X111168D01*
X112168Y350874D01*
X114167Y349874D02*
X116167D01*
X115167D01*
Y355872D01*
X114167Y354872D01*
X119166Y349874D02*
X121165D01*
X120166D01*
Y355872D01*
X119166Y354872D01*
X352671Y323873D02*
X351671Y322873D01*
Y320874D01*
X352671Y319874D01*
X356670D01*
X357669Y320874D01*
Y322873D01*
X356670Y323873D01*
X351671Y329871D02*
Y325872D01*
X354670D01*
X353671Y327871D01*
Y328871D01*
X354670Y329871D01*
X356670D01*
X357669Y328871D01*
Y326872D01*
X356670Y325872D01*
X338668Y99872D02*
X337668Y100872D01*
X335669D01*
X334669Y99872D01*
Y95874D01*
X335669Y94874D01*
X337668D01*
X338668Y95874D01*
X343667Y94874D02*
Y100872D01*
X340667Y97873D01*
X344666D01*
X344671Y323873D02*
X343671Y322873D01*
Y320874D01*
X344671Y319874D01*
X348670D01*
X349669Y320874D01*
Y322873D01*
X348670Y323873D01*
X344671Y325872D02*
X343671Y326872D01*
Y328871D01*
X344671Y329871D01*
X345671D01*
X346670Y328871D01*
Y327871D01*
Y328871D01*
X347670Y329871D01*
X348670D01*
X349669Y328871D01*
Y326872D01*
X348670Y325872D01*
X278668Y120872D02*
X277668Y121872D01*
X275669D01*
X274669Y120872D01*
Y116874D01*
X275669Y115874D01*
X277668D01*
X278668Y116874D01*
X284666Y115874D02*
X280667D01*
X284666Y119873D01*
Y120872D01*
X283666Y121872D01*
X281667D01*
X280667Y120872D01*
X336671Y323873D02*
X335671Y322873D01*
Y320874D01*
X336671Y319874D01*
X340670D01*
X341669Y320874D01*
Y322873D01*
X340670Y323873D01*
X341669Y325872D02*
Y327871D01*
Y326872D01*
X335671D01*
X336671Y325872D01*
D49*
X293605Y387000D02*
X290981Y388874D01*
Y386063D01*
X293605Y387000D02*
X289669D01*
X287446Y362794D02*
Y360733D01*
X285946Y361857D01*
Y361295D01*
X285759Y360920D01*
X285571Y360733D01*
X285009Y360545D01*
X284634D01*
X284072Y360733D01*
X283697Y361108D01*
X283509Y361670D01*
Y362232D01*
X283697Y362794D01*
X283884Y362982D01*
X284259Y363169D01*
X278672Y362982D02*
X278860D01*
X279235Y362794D01*
X279422Y362607D01*
X279609Y362232D01*
Y361482D01*
X279422Y361108D01*
X279235Y360920D01*
X278860Y360733D01*
X278485D01*
X278110Y360920D01*
X277548Y361295D01*
X275673Y363169D01*
Y360545D01*
X271669Y390060D02*
X272044Y390248D01*
X272607Y390810D01*
Y386874D01*
D50*
X327106Y130874D02*
D03*
M02*
