%FSLAX44Y44*%
%MOMM*%
G71*
G01*
G75*
G04 Layer_Color=16711935*
%ADD10C,1.0000*%
%ADD11R,1.2000X1.0000*%
%ADD12R,1.0000X1.2000*%
%ADD13R,0.8000X0.8000*%
%ADD14R,0.8000X0.8000*%
%ADD15R,1.3000X1.6000*%
%ADD16O,2.5400X0.6096*%
%ADD17O,2.0000X0.6100*%
%ADD18O,2.0000X0.6096*%
%ADD19O,2.5400X0.6100*%
%ADD20R,2.8000X2.3000*%
%ADD21R,0.7000X1.2000*%
%ADD22R,1.2000X0.8000*%
%ADD23C,1.0000*%
%ADD24C,0.4064*%
%ADD25C,1.2700*%
%ADD26C,0.7620*%
%ADD27C,0.3810*%
%ADD28C,0.5080*%
%ADD29C,1.0160*%
%ADD30C,0.5000*%
%ADD31C,2.0000*%
%ADD32R,2.0000X2.0000*%
%ADD33C,1.5000*%
%ADD34C,1.6000*%
%ADD35C,2.7000*%
%ADD36C,1.8000*%
%ADD37R,2.5000X2.5000*%
%ADD38C,2.5000*%
%ADD39R,2.7000X2.7000*%
%ADD40C,2.8000*%
%ADD41R,1.8000X1.8000*%
%ADD42R,1.5000X1.5000*%
%ADD43C,0.6096*%
%ADD44C,0.9144*%
%ADD45C,0.2000*%
%ADD46C,0.6000*%
%ADD47C,0.2500*%
%ADD48C,0.2540*%
%ADD49C,0.1000*%
%ADD50R,0.3500X4.4000*%
%ADD51C,1.5000*%
%ADD52R,1.4032X1.2032*%
%ADD53R,1.2032X1.4032*%
%ADD54R,1.0032X1.0032*%
%ADD55R,1.0032X1.0032*%
%ADD56R,1.5032X1.8032*%
%ADD57O,2.7432X0.8128*%
%ADD58O,2.2032X0.8132*%
%ADD59O,2.2032X0.8128*%
%ADD60O,2.7432X0.8132*%
%ADD61R,3.0032X2.5032*%
%ADD62R,0.9032X1.4032*%
%ADD63R,1.4032X1.0032*%
%ADD64C,1.2032*%
%ADD65C,2.2032*%
%ADD66R,2.2032X2.2032*%
%ADD67C,1.7032*%
%ADD68C,1.8032*%
%ADD69C,2.9032*%
%ADD70C,2.0032*%
%ADD71R,2.7032X2.7032*%
%ADD72C,2.7032*%
%ADD73R,2.9032X2.9032*%
%ADD74C,3.0032*%
%ADD75R,2.0032X2.0032*%
%ADD76R,1.7032X1.7032*%
D10*
X889549Y228051D02*
X896620Y220980D01*
X946420D02*
X953491Y213909D01*
X924560Y1025160D02*
X931631Y1032231D01*
X917489Y968289D02*
X924560Y975360D01*
D30*
X138000Y400D02*
Y130400D01*
X500D02*
X138000D01*
X500D02*
Y990400D01*
X500Y990400D01*
X138000D01*
X138000Y990400D01*
Y1122900D01*
X138000Y1122900D01*
X1138000D01*
X1138000Y1122900D01*
Y400D02*
Y1122900D01*
X1138000Y400D02*
X1138000Y400D01*
X138000Y400D02*
X1138000D01*
D51*
X1070570Y100330D02*
G03*
X1070570Y100330I-2500J0D01*
G01*
X220940Y1099820D02*
G03*
X220940Y1099820I-2500J0D01*
G01*
D64*
X1068070Y100330D02*
D03*
X218440Y1099820D02*
D03*
D65*
X459740Y582930D02*
D03*
X624740D02*
D03*
Y654930D02*
D03*
X459740Y438150D02*
D03*
X624740D02*
D03*
Y510150D02*
D03*
X372110Y462280D02*
D03*
X322110D02*
D03*
X372110Y567690D02*
D03*
X322110D02*
D03*
X374650Y732790D02*
D03*
Y682790D02*
D03*
X459740Y726440D02*
D03*
X624740D02*
D03*
Y798440D02*
D03*
D66*
X459740Y654930D02*
D03*
Y510150D02*
D03*
Y798440D02*
D03*
D67*
X1082040Y777240D02*
D03*
X1042670Y693420D02*
D03*
Y668020D02*
D03*
Y642620D02*
D03*
Y617220D02*
D03*
X1118870Y693420D02*
D03*
Y668020D02*
D03*
Y642620D02*
D03*
D68*
X1082040Y751840D02*
D03*
D69*
X106680Y711200D02*
D03*
Y660400D02*
D03*
Y812800D02*
D03*
Y762000D02*
D03*
Y914400D02*
D03*
Y863600D02*
D03*
X1036320Y491490D02*
D03*
Y440690D02*
D03*
Y389890D02*
D03*
D70*
X312420Y181680D02*
D03*
X287020Y106680D02*
D03*
X228600Y138900D02*
D03*
Y88900D02*
D03*
Y190500D02*
D03*
Y241300D02*
D03*
X1059180Y934720D02*
D03*
Y960120D02*
D03*
Y985520D02*
D03*
Y1010920D02*
D03*
X946620Y220980D02*
D03*
X896620D02*
D03*
X924560Y975360D02*
D03*
Y1025360D02*
D03*
D71*
X384940Y358040D02*
D03*
D72*
Y233040D02*
D03*
Y108040D02*
D03*
X789940Y233040D02*
D03*
Y273040D02*
D03*
Y313040D02*
D03*
Y193040D02*
D03*
Y153040D02*
D03*
D73*
X1036320Y542290D02*
D03*
D74*
X106680Y528320D02*
D03*
Y452120D02*
D03*
Y223520D02*
D03*
Y299720D02*
D03*
Y375920D02*
D03*
D75*
X1059180Y909320D02*
D03*
D76*
X1118870Y617220D02*
D03*
M02*
