M48
;Layer_Color=9474304
;FILE_FORMAT=4:4
METRIC,LZ
;TYPE=PLATED
T1F00S00C0.3048
T2F00S00C0.4572
T3F00S00C0.8000
T4F00S00C0.9000
T5F00S00C1.0000
T6F00S00C1.2000
T7F00S00C1.5000
T8F00S00C1.6000
%
T01
X007874Y000762
X008382
X00889
X009398
X009906
X010414
X010922
X011176
Y00127
X010922
Y001778
X011176
Y002286
X010922Y00254
X010668
Y002032
X010414Y001778
X01016
X009652
X009398Y001524
Y00127
X009906
X010414
X009906Y002032
X01016Y00254
X009906Y003048
Y003302
X0098806Y0035306
X009525Y0036576
X0093472Y003937
X0091186Y004064
X00889Y003556
X008382
Y004064
Y004572
X009398Y004826
X009906
X011176
Y004318
Y00381
Y003302
Y002794
X010668Y003048
X010414Y003556
X01016Y003302
X0087376Y0027432
X008382Y0028956
X0084836Y0018796
X0087376
X00889Y0011684
X008382
X007874Y003556
Y004064
Y004572
X007366Y004318
X007112
X006858
X006604
X00635Y004826
X007366
X007112Y004572
X0022733Y006604
X002286Y007112
Y00762
X00254
X0022606Y008128
Y008636
X001524
Y008382
Y008128
Y00762
Y007366
Y007112
Y006604
X000508
Y006858
Y007112
Y007366
Y00762
Y007874
Y008128
Y008382
Y008636
Y00889
X003048Y008636
X0033782
X003302Y008382
X003048Y008128
X0035306Y0089408
X0040767Y0087376
X004572Y0086868
X00508
X005588
X0057658Y0083312
X006858Y008382
X0069088Y0082296
X006858Y00762
Y007366
Y006858
X00635
Y00635
Y006096
X006858Y005842
X007366
Y005334
X007112Y005588
X006604
X007874
Y006096
Y006604
Y007112
X0081534Y007239
X0082296Y0076708
X008001
X007874Y00762
Y008128
Y008382
X0076962
X00762Y00889
X007366
Y008636
Y007874
Y007366
Y006858
Y00635
X006604Y007112
X00635Y00762
X0066929Y0087249
X007874Y00508
X008382
Y005588
Y006096
Y00635
X0087884
X0093472Y0064516
X0096012
X0095504Y0068072
X0092456
X0090678Y0072898
X0093472Y0073914
X009398Y0075184
X0094742Y0078994
X009144Y0079248
X0088646Y0080264
X0090424Y0083058
X009144Y00889
X00889
X008382Y008636
Y008382
X0083566Y0081534
X0089916Y00762
X0099822Y0074422
X0102108Y0073152
X0106172Y0071882
X0107315Y0072009
X0105918Y0080264
X0103759Y0079502
X0101854
X0099822
X009906Y0081534
Y0085344
Y00889
X0104648Y0087884
Y0084836
X0109728Y0081976
X011176Y008128
Y008636
Y005842
Y005334
X009398
X009652Y00508
X0083312Y0068072
X009144Y009398
X009652
X0094996Y009906
X0089916
X00889Y010668
X009398
X009906
X010414
X010922
X011176
Y01016
Y009652
Y009144
X01016Y009652
X008382Y010668
X007874
X007366
X006858
X00635
Y01016
X006604
X006477Y0099314
X0062738
X005588Y01016
X005334Y010414
Y010668
X005588
X00508
X004826
Y010414
X004572Y01016
X00508
X005334Y009906
X00508Y009652
X005588
X0045212Y009525
X0046482Y009398
X0043942Y0091186
X004318Y010668
X004572
X0075692Y009906
X0077851Y0099441
Y0098171
Y0096901
Y0095631
X0074168Y0097028
X0075184Y009271
X0076708Y0090932
X0082296Y009906
X0039116
X004064Y0097409
X0040767Y0094107
X0041402Y0092456
X004064Y0090678
X0037338Y0092456
X0035052Y009271
X0035306Y009525
Y0098298
X0028702Y0097282
X0025654Y0096012
X00254Y01016
X002286Y010414
Y010668
X00254
X002794
X003048
Y010414
X003302Y010668
X003556
X00381
X004064
X0041275Y010414
X002032
Y010668
Y01016
Y009906
Y009652
X001778
X001524Y009398
Y009144
X0021082Y0093218
X000508Y009398
Y009144
T02
X0109728Y0046482
X0061214Y0082296
X0104902Y007366
X0110744
X0109728Y0057404
X006096Y0095885
T03
X0108204Y0075184
Y0077724
T04
X0104267Y0061722
Y0064262
Y0066802
Y0069342
X0111887
Y0066802
Y0064262
Y0061722
T05
X002286Y000889
X0089662Y0022098
X0094662
X0031242Y0018168
X002286Y001905
Y002413
Y001389
X0028702Y0010668
X0092456Y0097536
Y0102536
T06
X0045974Y0043815
X0062474
X0037211Y0046228
X0032211
Y0056769
X0037211
X0037465Y0068279
Y0073279
X0045974Y0072644
Y0065493
Y0058293
Y0051015
X0062474
Y0058293
Y0065493
Y0072644
Y0079844
X0045974
X0105918Y0090932
Y0093472
Y0096012
Y0098552
Y0101092
T07
X0103632Y0038989
Y0044069
Y0049149
X0078994Y0031304
Y0027304
Y0023304
Y0019304
Y0015304
X0038494Y0010804
Y0023304
Y0035804
X0010668Y006604
Y007112
Y00762
Y008128
Y008636
X0103632Y0054229
X0010668Y009144
T08
X0010668Y0022352
Y0029972
Y0037592
Y0045212
Y0052832
M30
