%FSLAX44Y44*%
%MOMM*%
G71*
G01*
G75*
G04 Layer_Color=65535*
%ADD10C,1.0000*%
%ADD11R,1.2000X1.0000*%
%ADD12R,1.0000X1.2000*%
%ADD13R,0.8000X0.8000*%
%ADD14R,0.8000X0.8000*%
%ADD15R,1.3000X1.6000*%
%ADD16O,2.5400X0.6096*%
%ADD17O,2.0000X0.6100*%
%ADD18O,2.0000X0.6096*%
%ADD19O,2.5400X0.6100*%
%ADD20R,2.8000X2.3000*%
%ADD21R,0.7000X1.2000*%
%ADD22R,1.2000X0.8000*%
%ADD23C,1.0000*%
%ADD24C,0.4064*%
%ADD25C,1.2700*%
%ADD26C,0.7620*%
%ADD27C,0.3810*%
%ADD28C,0.5080*%
%ADD29C,1.0160*%
%ADD30C,0.5000*%
%ADD31C,2.0000*%
%ADD32R,2.0000X2.0000*%
%ADD33C,1.5000*%
%ADD34C,1.6000*%
%ADD35C,2.7000*%
%ADD36C,1.8000*%
%ADD37R,2.5000X2.5000*%
%ADD38C,2.5000*%
%ADD39R,2.7000X2.7000*%
%ADD40C,2.8000*%
%ADD41R,1.8000X1.8000*%
%ADD42R,1.5000X1.5000*%
%ADD43C,0.6096*%
%ADD44C,0.9144*%
%ADD45C,0.2000*%
%ADD46C,0.6000*%
%ADD47C,0.2500*%
%ADD48C,0.2540*%
%ADD49C,0.1000*%
%ADD50R,0.3500X4.4000*%
G36*
X514810Y475749D02*
X509298Y468997D01*
X508720Y468306D01*
X514965D01*
Y467150D01*
X507240D01*
Y468348D01*
X512244Y474579D01*
Y474593D01*
X512273Y474607D01*
X512343Y474692D01*
X512442Y474819D01*
X512569Y474974D01*
X512724Y475157D01*
X512893Y475354D01*
X513076Y475552D01*
X513259Y475749D01*
X507804D01*
Y476905D01*
X514810D01*
Y475749D01*
D02*
G37*
G36*
X555705Y476933D02*
X555889Y476905D01*
X556100Y476863D01*
X556326Y476806D01*
X556565Y476736D01*
X556791Y476623D01*
X556805D01*
X556819Y476609D01*
X556890Y476567D01*
X557002Y476496D01*
X557143Y476398D01*
X557298Y476257D01*
X557468Y476102D01*
X557623Y475918D01*
X557778Y475707D01*
X557792Y475679D01*
X557848Y475608D01*
X557905Y475481D01*
X558003Y475298D01*
X558088Y475087D01*
X558201Y474847D01*
X558299Y474565D01*
X558384Y474255D01*
Y474241D01*
X558398Y474213D01*
X558412Y474170D01*
X558426Y474100D01*
X558440Y474015D01*
X558454Y473917D01*
X558483Y473790D01*
X558497Y473649D01*
X558525Y473494D01*
X558539Y473325D01*
X558553Y473127D01*
X558581Y472930D01*
X558595Y472704D01*
Y472479D01*
X558609Y472225D01*
Y471957D01*
Y471943D01*
Y471887D01*
Y471788D01*
Y471675D01*
X558595Y471520D01*
Y471351D01*
X558581Y471168D01*
X558567Y470970D01*
X558525Y470519D01*
X558454Y470054D01*
X558370Y469603D01*
X558313Y469391D01*
X558243Y469180D01*
Y469166D01*
X558229Y469138D01*
X558201Y469081D01*
X558172Y469011D01*
X558144Y468912D01*
X558088Y468813D01*
X557975Y468574D01*
X557834Y468320D01*
X557651Y468038D01*
X557439Y467784D01*
X557186Y467545D01*
X557172D01*
X557158Y467517D01*
X557115Y467488D01*
X557059Y467460D01*
X556988Y467418D01*
X556918Y467361D01*
X556706Y467263D01*
X556453Y467164D01*
X556157Y467065D01*
X555804Y467009D01*
X555424Y466981D01*
X555283D01*
X555184Y466995D01*
X555071Y467009D01*
X554930Y467037D01*
X554775Y467065D01*
X554606Y467108D01*
X554437Y467164D01*
X554254Y467220D01*
X554070Y467305D01*
X553887Y467404D01*
X553704Y467517D01*
X553520Y467658D01*
X553351Y467813D01*
X553196Y467982D01*
X553182Y467996D01*
X553154Y468038D01*
X553112Y468109D01*
X553041Y468221D01*
X552971Y468348D01*
X552900Y468517D01*
X552802Y468715D01*
X552717Y468940D01*
X552632Y469194D01*
X552548Y469490D01*
X552463Y469814D01*
X552393Y470181D01*
X552322Y470576D01*
X552280Y470998D01*
X552252Y471464D01*
X552238Y471957D01*
Y471971D01*
Y472028D01*
Y472126D01*
Y472239D01*
X552252Y472394D01*
Y472563D01*
X552266Y472747D01*
X552280Y472958D01*
X552322Y473395D01*
X552393Y473860D01*
X552477Y474325D01*
X552534Y474537D01*
X552590Y474748D01*
Y474762D01*
X552604Y474791D01*
X552632Y474847D01*
X552660Y474917D01*
X552689Y475016D01*
X552745Y475115D01*
X552858Y475354D01*
X552999Y475608D01*
X553182Y475876D01*
X553394Y476144D01*
X553647Y476369D01*
X553661D01*
X553675Y476398D01*
X553718Y476426D01*
X553774Y476454D01*
X553845Y476510D01*
X553929Y476553D01*
X554141Y476665D01*
X554394Y476764D01*
X554691Y476863D01*
X555043Y476919D01*
X555424Y476947D01*
X555550D01*
X555705Y476933D01*
D02*
G37*
G36*
X525622Y755440D02*
X524382D01*
Y763602D01*
X521534Y755440D01*
X520378D01*
X517559Y763743D01*
Y755440D01*
X516318D01*
Y765195D01*
X518250D01*
X520562Y758273D01*
Y758259D01*
X520576Y758231D01*
X520590Y758189D01*
X520618Y758118D01*
X520674Y757949D01*
X520745Y757738D01*
X520815Y757498D01*
X520900Y757259D01*
X520970Y757033D01*
X521027Y756836D01*
X521041Y756864D01*
X521055Y756934D01*
X521097Y757061D01*
X521154Y757230D01*
X521224Y757456D01*
X521323Y757724D01*
X521422Y758034D01*
X521548Y758400D01*
X523889Y765195D01*
X525622D01*
Y755440D01*
D02*
G37*
G36*
X549165Y467150D02*
X547966D01*
Y474776D01*
X547952Y474762D01*
X547882Y474706D01*
X547797Y474621D01*
X547656Y474523D01*
X547501Y474396D01*
X547304Y474255D01*
X547078Y474100D01*
X546824Y473945D01*
X546810D01*
X546796Y473931D01*
X546712Y473874D01*
X546571Y473804D01*
X546401Y473719D01*
X546204Y473620D01*
X545993Y473522D01*
X545781Y473423D01*
X545570Y473339D01*
Y474495D01*
X545584D01*
X545612Y474523D01*
X545668Y474537D01*
X545739Y474579D01*
X545824Y474621D01*
X545922Y474678D01*
X546162Y474819D01*
X546444Y474974D01*
X546726Y475171D01*
X547022Y475397D01*
X547318Y475636D01*
X547332Y475650D01*
X547346Y475665D01*
X547388Y475707D01*
X547445Y475749D01*
X547571Y475890D01*
X547741Y476059D01*
X547910Y476257D01*
X548093Y476482D01*
X548248Y476708D01*
X548389Y476947D01*
X549165D01*
Y467150D01*
D02*
G37*
G36*
X543808Y475749D02*
X540593D01*
Y467150D01*
X539297D01*
Y475749D01*
X536082D01*
Y476905D01*
X543808D01*
Y475749D01*
D02*
G37*
G36*
X531938Y476891D02*
X532178Y476877D01*
X532431Y476863D01*
X532671Y476835D01*
X532882Y476806D01*
X532911D01*
X533009Y476778D01*
X533136Y476750D01*
X533305Y476708D01*
X533489Y476637D01*
X533686Y476553D01*
X533897Y476454D01*
X534081Y476341D01*
X534109Y476327D01*
X534165Y476285D01*
X534250Y476200D01*
X534363Y476102D01*
X534490Y475975D01*
X534616Y475806D01*
X534757Y475622D01*
X534870Y475411D01*
X534884Y475383D01*
X534912Y475312D01*
X534969Y475185D01*
X535025Y475016D01*
X535067Y474819D01*
X535124Y474593D01*
X535152Y474339D01*
X535166Y474072D01*
Y474058D01*
Y474015D01*
Y473959D01*
X535152Y473860D01*
X535138Y473761D01*
X535124Y473635D01*
X535096Y473494D01*
X535067Y473339D01*
X534969Y473014D01*
X534912Y472845D01*
X534828Y472662D01*
X534729Y472479D01*
X534631Y472309D01*
X534504Y472140D01*
X534363Y471971D01*
X534348Y471957D01*
X534320Y471929D01*
X534278Y471887D01*
X534207Y471844D01*
X534123Y471774D01*
X534010Y471703D01*
X533869Y471619D01*
X533714Y471548D01*
X533531Y471464D01*
X533319Y471379D01*
X533094Y471309D01*
X532826Y471252D01*
X532544Y471196D01*
X532234Y471153D01*
X531881Y471125D01*
X531515Y471111D01*
X529020D01*
Y467150D01*
X527723D01*
Y476905D01*
X531726D01*
X531938Y476891D01*
D02*
G37*
G36*
Y765181D02*
X532178Y765167D01*
X532431Y765153D01*
X532671Y765125D01*
X532882Y765096D01*
X532911D01*
X533009Y765068D01*
X533136Y765040D01*
X533305Y764998D01*
X533489Y764927D01*
X533686Y764843D01*
X533897Y764744D01*
X534081Y764631D01*
X534109Y764617D01*
X534165Y764575D01*
X534250Y764490D01*
X534363Y764392D01*
X534490Y764265D01*
X534616Y764096D01*
X534757Y763912D01*
X534870Y763701D01*
X534884Y763673D01*
X534912Y763602D01*
X534969Y763475D01*
X535025Y763306D01*
X535067Y763109D01*
X535124Y762883D01*
X535152Y762629D01*
X535166Y762362D01*
Y762347D01*
Y762305D01*
Y762249D01*
X535152Y762150D01*
X535138Y762051D01*
X535124Y761925D01*
X535096Y761784D01*
X535067Y761629D01*
X534969Y761304D01*
X534912Y761135D01*
X534828Y760952D01*
X534729Y760769D01*
X534631Y760600D01*
X534504Y760430D01*
X534363Y760261D01*
X534348Y760247D01*
X534320Y760219D01*
X534278Y760177D01*
X534207Y760134D01*
X534123Y760064D01*
X534010Y759993D01*
X533869Y759909D01*
X533714Y759838D01*
X533531Y759754D01*
X533319Y759669D01*
X533094Y759599D01*
X532826Y759542D01*
X532544Y759486D01*
X532234Y759444D01*
X531881Y759415D01*
X531515Y759401D01*
X529020D01*
Y755440D01*
X527723D01*
Y765195D01*
X531726D01*
X531938Y765181D01*
D02*
G37*
G36*
X514810Y764039D02*
X509298Y757287D01*
X508720Y756596D01*
X514965D01*
Y755440D01*
X507240D01*
Y756638D01*
X512244Y762869D01*
Y762883D01*
X512273Y762897D01*
X512343Y762982D01*
X512442Y763109D01*
X512569Y763264D01*
X512724Y763447D01*
X512893Y763644D01*
X513076Y763842D01*
X513259Y764039D01*
X507804D01*
Y765195D01*
X514810D01*
Y764039D01*
D02*
G37*
G36*
X555705Y765223D02*
X555889Y765195D01*
X556100Y765153D01*
X556326Y765096D01*
X556565Y765026D01*
X556791Y764913D01*
X556805D01*
X556819Y764899D01*
X556890Y764857D01*
X557002Y764786D01*
X557143Y764688D01*
X557298Y764547D01*
X557468Y764392D01*
X557623Y764208D01*
X557778Y763997D01*
X557792Y763969D01*
X557848Y763898D01*
X557905Y763771D01*
X558003Y763588D01*
X558088Y763377D01*
X558201Y763137D01*
X558299Y762855D01*
X558384Y762545D01*
Y762531D01*
X558398Y762503D01*
X558412Y762460D01*
X558426Y762390D01*
X558440Y762305D01*
X558454Y762207D01*
X558483Y762080D01*
X558497Y761939D01*
X558525Y761784D01*
X558539Y761615D01*
X558553Y761417D01*
X558581Y761220D01*
X558595Y760994D01*
Y760769D01*
X558609Y760515D01*
Y760247D01*
Y760233D01*
Y760177D01*
Y760078D01*
Y759965D01*
X558595Y759810D01*
Y759641D01*
X558581Y759458D01*
X558567Y759260D01*
X558525Y758809D01*
X558454Y758344D01*
X558370Y757893D01*
X558313Y757681D01*
X558243Y757470D01*
Y757456D01*
X558229Y757428D01*
X558201Y757371D01*
X558172Y757301D01*
X558144Y757202D01*
X558088Y757103D01*
X557975Y756864D01*
X557834Y756610D01*
X557651Y756328D01*
X557439Y756074D01*
X557186Y755835D01*
X557172D01*
X557158Y755807D01*
X557115Y755778D01*
X557059Y755750D01*
X556988Y755708D01*
X556918Y755651D01*
X556706Y755553D01*
X556453Y755454D01*
X556157Y755355D01*
X555804Y755299D01*
X555424Y755271D01*
X555283D01*
X555184Y755285D01*
X555071Y755299D01*
X554930Y755327D01*
X554775Y755355D01*
X554606Y755398D01*
X554437Y755454D01*
X554254Y755510D01*
X554070Y755595D01*
X553887Y755694D01*
X553704Y755807D01*
X553520Y755947D01*
X553351Y756103D01*
X553196Y756272D01*
X553182Y756286D01*
X553154Y756328D01*
X553112Y756399D01*
X553041Y756511D01*
X552971Y756638D01*
X552900Y756807D01*
X552802Y757005D01*
X552717Y757230D01*
X552632Y757484D01*
X552548Y757780D01*
X552463Y758104D01*
X552393Y758471D01*
X552322Y758866D01*
X552280Y759288D01*
X552252Y759754D01*
X552238Y760247D01*
Y760261D01*
Y760318D01*
Y760416D01*
Y760529D01*
X552252Y760684D01*
Y760853D01*
X552266Y761037D01*
X552280Y761248D01*
X552322Y761685D01*
X552393Y762150D01*
X552477Y762615D01*
X552534Y762827D01*
X552590Y763038D01*
Y763052D01*
X552604Y763081D01*
X552632Y763137D01*
X552660Y763207D01*
X552689Y763306D01*
X552745Y763405D01*
X552858Y763644D01*
X552999Y763898D01*
X553182Y764166D01*
X553394Y764434D01*
X553647Y764659D01*
X553661D01*
X553675Y764688D01*
X553718Y764716D01*
X553774Y764744D01*
X553845Y764800D01*
X553929Y764843D01*
X554141Y764956D01*
X554394Y765054D01*
X554691Y765153D01*
X555043Y765209D01*
X555424Y765237D01*
X555550D01*
X555705Y765223D01*
D02*
G37*
G36*
X566222Y764124D02*
X566208Y764110D01*
X566180Y764081D01*
X566123Y764025D01*
X566067Y763941D01*
X565982Y763842D01*
X565869Y763729D01*
X565757Y763588D01*
X565630Y763419D01*
X565503Y763250D01*
X565348Y763052D01*
X565193Y762827D01*
X565038Y762601D01*
X564869Y762347D01*
X564699Y762080D01*
X564530Y761784D01*
X564361Y761488D01*
X564347Y761473D01*
X564319Y761417D01*
X564276Y761332D01*
X564206Y761206D01*
X564136Y761051D01*
X564051Y760881D01*
X563952Y760684D01*
X563853Y760459D01*
X563741Y760205D01*
X563614Y759951D01*
X563501Y759669D01*
X563388Y759373D01*
X563163Y758767D01*
X562951Y758118D01*
Y758104D01*
X562937Y758062D01*
X562923Y757991D01*
X562895Y757907D01*
X562867Y757794D01*
X562839Y757653D01*
X562796Y757498D01*
X562768Y757329D01*
X562726Y757132D01*
X562683Y756920D01*
X562613Y756469D01*
X562542Y755976D01*
X562500Y755440D01*
X561274D01*
Y755454D01*
Y755496D01*
Y755553D01*
X561288Y755637D01*
Y755750D01*
X561302Y755891D01*
X561316Y756046D01*
X561330Y756215D01*
X561358Y756413D01*
X561387Y756610D01*
X561429Y756850D01*
X561471Y757089D01*
X561513Y757343D01*
X561570Y757625D01*
X561711Y758203D01*
Y758217D01*
X561725Y758273D01*
X561753Y758358D01*
X561795Y758485D01*
X561838Y758626D01*
X561894Y758795D01*
X561950Y758992D01*
X562035Y759204D01*
X562120Y759444D01*
X562204Y759683D01*
X562416Y760219D01*
X562669Y760783D01*
X562951Y761347D01*
X562965Y761361D01*
X562994Y761417D01*
X563036Y761488D01*
X563092Y761600D01*
X563163Y761727D01*
X563261Y761882D01*
X563360Y762051D01*
X563473Y762235D01*
X563741Y762644D01*
X564023Y763066D01*
X564347Y763503D01*
X564685Y763912D01*
X559906D01*
Y765068D01*
X566222D01*
Y764124D01*
D02*
G37*
G36*
X549165Y755440D02*
X547966D01*
Y763066D01*
X547952Y763052D01*
X547882Y762996D01*
X547797Y762911D01*
X547656Y762813D01*
X547501Y762686D01*
X547304Y762545D01*
X547078Y762390D01*
X546824Y762235D01*
X546810D01*
X546796Y762221D01*
X546712Y762164D01*
X546571Y762094D01*
X546401Y762009D01*
X546204Y761910D01*
X545993Y761812D01*
X545781Y761713D01*
X545570Y761629D01*
Y762785D01*
X545584D01*
X545612Y762813D01*
X545668Y762827D01*
X545739Y762869D01*
X545824Y762911D01*
X545922Y762968D01*
X546162Y763109D01*
X546444Y763264D01*
X546726Y763461D01*
X547022Y763687D01*
X547318Y763926D01*
X547332Y763941D01*
X547346Y763955D01*
X547388Y763997D01*
X547445Y764039D01*
X547571Y764180D01*
X547741Y764349D01*
X547910Y764547D01*
X548093Y764772D01*
X548248Y764998D01*
X548389Y765237D01*
X549165D01*
Y755440D01*
D02*
G37*
G36*
X543808Y764039D02*
X540593D01*
Y755440D01*
X539297D01*
Y764039D01*
X536082D01*
Y765195D01*
X543808D01*
Y764039D01*
D02*
G37*
G36*
X566222Y475834D02*
X566208Y475820D01*
X566180Y475792D01*
X566123Y475735D01*
X566067Y475650D01*
X565982Y475552D01*
X565869Y475439D01*
X565757Y475298D01*
X565630Y475129D01*
X565503Y474960D01*
X565348Y474762D01*
X565193Y474537D01*
X565038Y474311D01*
X564869Y474058D01*
X564699Y473790D01*
X564530Y473494D01*
X564361Y473198D01*
X564347Y473184D01*
X564319Y473127D01*
X564276Y473042D01*
X564206Y472916D01*
X564136Y472761D01*
X564051Y472591D01*
X563952Y472394D01*
X563853Y472169D01*
X563741Y471915D01*
X563614Y471661D01*
X563501Y471379D01*
X563388Y471083D01*
X563163Y470477D01*
X562951Y469828D01*
Y469814D01*
X562937Y469772D01*
X562923Y469701D01*
X562895Y469617D01*
X562867Y469504D01*
X562839Y469363D01*
X562796Y469208D01*
X562768Y469039D01*
X562726Y468842D01*
X562683Y468630D01*
X562613Y468179D01*
X562542Y467686D01*
X562500Y467150D01*
X561274D01*
Y467164D01*
Y467206D01*
Y467263D01*
X561288Y467347D01*
Y467460D01*
X561302Y467601D01*
X561316Y467756D01*
X561330Y467925D01*
X561358Y468123D01*
X561387Y468320D01*
X561429Y468560D01*
X561471Y468799D01*
X561513Y469053D01*
X561570Y469335D01*
X561711Y469913D01*
Y469927D01*
X561725Y469983D01*
X561753Y470068D01*
X561795Y470195D01*
X561838Y470336D01*
X561894Y470505D01*
X561950Y470702D01*
X562035Y470914D01*
X562120Y471153D01*
X562204Y471393D01*
X562416Y471929D01*
X562669Y472493D01*
X562951Y473057D01*
X562965Y473071D01*
X562994Y473127D01*
X563036Y473198D01*
X563092Y473310D01*
X563163Y473437D01*
X563261Y473592D01*
X563360Y473761D01*
X563473Y473945D01*
X563741Y474354D01*
X564023Y474776D01*
X564347Y475214D01*
X564685Y475622D01*
X559906D01*
Y476778D01*
X566222D01*
Y475834D01*
D02*
G37*
G36*
X543808Y620529D02*
X540593D01*
Y611930D01*
X539297D01*
Y620529D01*
X536082D01*
Y621685D01*
X543808D01*
Y620529D01*
D02*
G37*
G36*
X531938Y621671D02*
X532178Y621657D01*
X532431Y621643D01*
X532671Y621615D01*
X532882Y621586D01*
X532911D01*
X533009Y621558D01*
X533136Y621530D01*
X533305Y621488D01*
X533489Y621417D01*
X533686Y621333D01*
X533897Y621234D01*
X534081Y621121D01*
X534109Y621107D01*
X534165Y621065D01*
X534250Y620980D01*
X534363Y620882D01*
X534490Y620755D01*
X534616Y620586D01*
X534757Y620402D01*
X534870Y620191D01*
X534884Y620163D01*
X534912Y620092D01*
X534969Y619965D01*
X535025Y619796D01*
X535067Y619599D01*
X535124Y619373D01*
X535152Y619119D01*
X535166Y618852D01*
Y618838D01*
Y618795D01*
Y618739D01*
X535152Y618640D01*
X535138Y618541D01*
X535124Y618415D01*
X535096Y618274D01*
X535067Y618119D01*
X534969Y617794D01*
X534912Y617625D01*
X534828Y617442D01*
X534729Y617259D01*
X534631Y617090D01*
X534504Y616920D01*
X534363Y616751D01*
X534348Y616737D01*
X534320Y616709D01*
X534278Y616667D01*
X534207Y616624D01*
X534123Y616554D01*
X534010Y616483D01*
X533869Y616399D01*
X533714Y616328D01*
X533531Y616244D01*
X533319Y616159D01*
X533094Y616089D01*
X532826Y616032D01*
X532544Y615976D01*
X532234Y615933D01*
X531881Y615905D01*
X531515Y615891D01*
X529020D01*
Y611930D01*
X527723D01*
Y621685D01*
X531726D01*
X531938Y621671D01*
D02*
G37*
G36*
X549165Y611930D02*
X547966D01*
Y619557D01*
X547952Y619542D01*
X547882Y619486D01*
X547797Y619401D01*
X547656Y619303D01*
X547501Y619176D01*
X547304Y619035D01*
X547078Y618880D01*
X546824Y618725D01*
X546810D01*
X546796Y618711D01*
X546712Y618654D01*
X546571Y618584D01*
X546401Y618499D01*
X546204Y618400D01*
X545993Y618302D01*
X545781Y618203D01*
X545570Y618119D01*
Y619274D01*
X545584D01*
X545612Y619303D01*
X545668Y619317D01*
X545739Y619359D01*
X545824Y619401D01*
X545922Y619458D01*
X546162Y619599D01*
X546444Y619754D01*
X546726Y619951D01*
X547022Y620177D01*
X547318Y620416D01*
X547332Y620430D01*
X547346Y620445D01*
X547388Y620487D01*
X547445Y620529D01*
X547571Y620670D01*
X547741Y620839D01*
X547910Y621037D01*
X548093Y621262D01*
X548248Y621488D01*
X548389Y621727D01*
X549165D01*
Y611930D01*
D02*
G37*
G36*
X525622D02*
X524382D01*
Y620092D01*
X521534Y611930D01*
X520378D01*
X517559Y620233D01*
Y611930D01*
X516318D01*
Y621685D01*
X518250D01*
X520562Y614763D01*
Y614749D01*
X520576Y614721D01*
X520590Y614679D01*
X520618Y614608D01*
X520674Y614439D01*
X520745Y614228D01*
X520815Y613988D01*
X520900Y613749D01*
X520970Y613523D01*
X521027Y613326D01*
X521041Y613354D01*
X521055Y613424D01*
X521097Y613551D01*
X521154Y613720D01*
X521224Y613946D01*
X521323Y614214D01*
X521422Y614524D01*
X521548Y614890D01*
X523889Y621685D01*
X525622D01*
Y611930D01*
D02*
G37*
G36*
X566222Y620614D02*
X566208Y620600D01*
X566180Y620572D01*
X566123Y620515D01*
X566067Y620430D01*
X565982Y620332D01*
X565869Y620219D01*
X565757Y620078D01*
X565630Y619909D01*
X565503Y619740D01*
X565348Y619542D01*
X565193Y619317D01*
X565038Y619091D01*
X564869Y618838D01*
X564699Y618570D01*
X564530Y618274D01*
X564361Y617978D01*
X564347Y617963D01*
X564319Y617907D01*
X564276Y617822D01*
X564206Y617696D01*
X564136Y617541D01*
X564051Y617371D01*
X563952Y617174D01*
X563853Y616949D01*
X563741Y616695D01*
X563614Y616441D01*
X563501Y616159D01*
X563388Y615863D01*
X563163Y615257D01*
X562951Y614608D01*
Y614594D01*
X562937Y614552D01*
X562923Y614482D01*
X562895Y614397D01*
X562867Y614284D01*
X562839Y614143D01*
X562796Y613988D01*
X562768Y613819D01*
X562726Y613622D01*
X562683Y613410D01*
X562613Y612959D01*
X562542Y612466D01*
X562500Y611930D01*
X561274D01*
Y611944D01*
Y611986D01*
Y612043D01*
X561288Y612127D01*
Y612240D01*
X561302Y612381D01*
X561316Y612536D01*
X561330Y612705D01*
X561358Y612903D01*
X561387Y613100D01*
X561429Y613340D01*
X561471Y613579D01*
X561513Y613833D01*
X561570Y614115D01*
X561711Y614693D01*
Y614707D01*
X561725Y614763D01*
X561753Y614848D01*
X561795Y614975D01*
X561838Y615116D01*
X561894Y615285D01*
X561950Y615482D01*
X562035Y615694D01*
X562120Y615933D01*
X562204Y616173D01*
X562416Y616709D01*
X562669Y617273D01*
X562951Y617837D01*
X562965Y617851D01*
X562994Y617907D01*
X563036Y617978D01*
X563092Y618090D01*
X563163Y618217D01*
X563261Y618372D01*
X563360Y618541D01*
X563473Y618725D01*
X563741Y619134D01*
X564023Y619557D01*
X564347Y619994D01*
X564685Y620402D01*
X559906D01*
Y621558D01*
X566222D01*
Y620614D01*
D02*
G37*
G36*
X555705Y621713D02*
X555889Y621685D01*
X556100Y621643D01*
X556326Y621586D01*
X556565Y621516D01*
X556791Y621403D01*
X556805D01*
X556819Y621389D01*
X556890Y621347D01*
X557002Y621276D01*
X557143Y621178D01*
X557298Y621037D01*
X557468Y620882D01*
X557623Y620698D01*
X557778Y620487D01*
X557792Y620459D01*
X557848Y620388D01*
X557905Y620261D01*
X558003Y620078D01*
X558088Y619867D01*
X558201Y619627D01*
X558299Y619345D01*
X558384Y619035D01*
Y619021D01*
X558398Y618993D01*
X558412Y618950D01*
X558426Y618880D01*
X558440Y618795D01*
X558454Y618697D01*
X558483Y618570D01*
X558497Y618429D01*
X558525Y618274D01*
X558539Y618105D01*
X558553Y617907D01*
X558581Y617710D01*
X558595Y617484D01*
Y617259D01*
X558609Y617005D01*
Y616737D01*
Y616723D01*
Y616667D01*
Y616568D01*
Y616455D01*
X558595Y616300D01*
Y616131D01*
X558581Y615948D01*
X558567Y615750D01*
X558525Y615299D01*
X558454Y614834D01*
X558370Y614383D01*
X558313Y614171D01*
X558243Y613960D01*
Y613946D01*
X558229Y613918D01*
X558201Y613861D01*
X558172Y613791D01*
X558144Y613692D01*
X558088Y613593D01*
X557975Y613354D01*
X557834Y613100D01*
X557651Y612818D01*
X557439Y612564D01*
X557186Y612325D01*
X557172D01*
X557158Y612296D01*
X557115Y612268D01*
X557059Y612240D01*
X556988Y612198D01*
X556918Y612141D01*
X556706Y612043D01*
X556453Y611944D01*
X556157Y611845D01*
X555804Y611789D01*
X555424Y611761D01*
X555283D01*
X555184Y611775D01*
X555071Y611789D01*
X554930Y611817D01*
X554775Y611845D01*
X554606Y611888D01*
X554437Y611944D01*
X554254Y612001D01*
X554070Y612085D01*
X553887Y612184D01*
X553704Y612296D01*
X553520Y612438D01*
X553351Y612593D01*
X553196Y612762D01*
X553182Y612776D01*
X553154Y612818D01*
X553112Y612889D01*
X553041Y613001D01*
X552971Y613128D01*
X552900Y613297D01*
X552802Y613495D01*
X552717Y613720D01*
X552632Y613974D01*
X552548Y614270D01*
X552463Y614594D01*
X552393Y614961D01*
X552322Y615356D01*
X552280Y615779D01*
X552252Y616244D01*
X552238Y616737D01*
Y616751D01*
Y616808D01*
Y616906D01*
Y617019D01*
X552252Y617174D01*
Y617343D01*
X552266Y617527D01*
X552280Y617738D01*
X552322Y618175D01*
X552393Y618640D01*
X552477Y619105D01*
X552534Y619317D01*
X552590Y619528D01*
Y619542D01*
X552604Y619571D01*
X552632Y619627D01*
X552660Y619697D01*
X552689Y619796D01*
X552745Y619895D01*
X552858Y620134D01*
X552999Y620388D01*
X553182Y620656D01*
X553394Y620924D01*
X553647Y621149D01*
X553661D01*
X553675Y621178D01*
X553718Y621206D01*
X553774Y621234D01*
X553845Y621290D01*
X553929Y621333D01*
X554141Y621446D01*
X554394Y621544D01*
X554691Y621643D01*
X555043Y621699D01*
X555424Y621727D01*
X555550D01*
X555705Y621713D01*
D02*
G37*
G36*
X514810Y620529D02*
X509298Y613777D01*
X508720Y613086D01*
X514965D01*
Y611930D01*
X507240D01*
Y613128D01*
X512244Y619359D01*
Y619373D01*
X512273Y619387D01*
X512343Y619472D01*
X512442Y619599D01*
X512569Y619754D01*
X512724Y619937D01*
X512893Y620134D01*
X513076Y620332D01*
X513259Y620529D01*
X507804D01*
Y621685D01*
X514810D01*
Y620529D01*
D02*
G37*
G36*
X525622Y467150D02*
X524382D01*
Y475312D01*
X521534Y467150D01*
X520378D01*
X517559Y475453D01*
Y467150D01*
X516318D01*
Y476905D01*
X518250D01*
X520562Y469983D01*
Y469969D01*
X520576Y469941D01*
X520590Y469899D01*
X520618Y469828D01*
X520674Y469659D01*
X520745Y469448D01*
X520815Y469208D01*
X520900Y468969D01*
X520970Y468743D01*
X521027Y468546D01*
X521041Y468574D01*
X521055Y468644D01*
X521097Y468771D01*
X521154Y468940D01*
X521224Y469166D01*
X521323Y469434D01*
X521422Y469744D01*
X521548Y470110D01*
X523889Y476905D01*
X525622D01*
Y467150D01*
D02*
G37*
%LPC*%
G36*
X555409Y620741D02*
X555325D01*
X555269Y620727D01*
X555113Y620698D01*
X554930Y620656D01*
X554719Y620572D01*
X554493Y620445D01*
X554380Y620360D01*
X554268Y620275D01*
X554169Y620163D01*
X554070Y620036D01*
Y620022D01*
X554042Y619994D01*
X554014Y619937D01*
X553971Y619867D01*
X553929Y619754D01*
X553873Y619627D01*
X553831Y619472D01*
X553774Y619289D01*
X553718Y619077D01*
X553661Y618838D01*
X553605Y618570D01*
X553563Y618274D01*
X553520Y617935D01*
X553492Y617569D01*
X553478Y617174D01*
X553464Y616737D01*
Y616709D01*
Y616638D01*
Y616511D01*
X553478Y616342D01*
Y616159D01*
X553492Y615933D01*
X553506Y615694D01*
X553535Y615440D01*
X553605Y614890D01*
X553647Y614622D01*
X553704Y614369D01*
X553760Y614129D01*
X553845Y613904D01*
X553929Y613706D01*
X554028Y613537D01*
Y613523D01*
X554056Y613509D01*
X554127Y613410D01*
X554254Y613283D01*
X554408Y613142D01*
X554620Y613001D01*
X554860Y612874D01*
X555127Y612776D01*
X555269Y612762D01*
X555424Y612748D01*
X555508D01*
X555564Y612762D01*
X555705Y612790D01*
X555903Y612846D01*
X556114Y612945D01*
X556354Y613086D01*
X556467Y613171D01*
X556580Y613283D01*
X556692Y613396D01*
X556805Y613537D01*
Y613551D01*
X556833Y613579D01*
X556861Y613622D01*
X556890Y613692D01*
X556946Y613791D01*
X556988Y613918D01*
X557045Y614059D01*
X557101Y614228D01*
X557143Y614439D01*
X557200Y614665D01*
X557256Y614933D01*
X557298Y615215D01*
X557327Y615553D01*
X557355Y615905D01*
X557383Y616300D01*
Y616737D01*
Y616751D01*
Y616765D01*
Y616836D01*
Y616963D01*
X557369Y617132D01*
Y617315D01*
X557355Y617541D01*
X557341Y617780D01*
X557313Y618048D01*
X557242Y618584D01*
X557200Y618852D01*
X557143Y619105D01*
X557087Y619345D01*
X557002Y619571D01*
X556918Y619768D01*
X556819Y619937D01*
Y619951D01*
X556791Y619965D01*
X556763Y620008D01*
X556721Y620064D01*
X556594Y620191D01*
X556438Y620346D01*
X556227Y620487D01*
X555987Y620614D01*
X555860Y620670D01*
X555720Y620712D01*
X555564Y620727D01*
X555409Y620741D01*
D02*
G37*
G36*
X531811Y620529D02*
X529020D01*
Y617047D01*
X531642D01*
X531741Y617061D01*
X531839D01*
X531952Y617075D01*
X532220Y617104D01*
X532516Y617160D01*
X532812Y617245D01*
X533080Y617357D01*
X533207Y617428D01*
X533305Y617512D01*
X533334Y617541D01*
X533390Y617597D01*
X533475Y617710D01*
X533573Y617851D01*
X533672Y618034D01*
X533756Y618260D01*
X533813Y618513D01*
X533841Y618809D01*
Y618823D01*
Y618838D01*
Y618908D01*
X533827Y619035D01*
X533799Y619176D01*
X533770Y619331D01*
X533714Y619514D01*
X533630Y619683D01*
X533531Y619852D01*
X533517Y619867D01*
X533475Y619923D01*
X533404Y619994D01*
X533319Y620092D01*
X533193Y620191D01*
X533052Y620275D01*
X532896Y620360D01*
X532713Y620430D01*
X532699D01*
X532643Y620445D01*
X532558Y620459D01*
X532445Y620487D01*
X532276Y620501D01*
X532065Y620515D01*
X531811Y620529D01*
D02*
G37*
G36*
X555409Y475961D02*
X555325D01*
X555269Y475947D01*
X555113Y475918D01*
X554930Y475876D01*
X554719Y475792D01*
X554493Y475665D01*
X554380Y475580D01*
X554268Y475495D01*
X554169Y475383D01*
X554070Y475256D01*
Y475242D01*
X554042Y475214D01*
X554014Y475157D01*
X553971Y475087D01*
X553929Y474974D01*
X553873Y474847D01*
X553831Y474692D01*
X553774Y474509D01*
X553718Y474297D01*
X553661Y474058D01*
X553605Y473790D01*
X553563Y473494D01*
X553520Y473155D01*
X553492Y472789D01*
X553478Y472394D01*
X553464Y471957D01*
Y471929D01*
Y471858D01*
Y471731D01*
X553478Y471562D01*
Y471379D01*
X553492Y471153D01*
X553506Y470914D01*
X553535Y470660D01*
X553605Y470110D01*
X553647Y469842D01*
X553704Y469589D01*
X553760Y469349D01*
X553845Y469124D01*
X553929Y468926D01*
X554028Y468757D01*
Y468743D01*
X554056Y468729D01*
X554127Y468630D01*
X554254Y468503D01*
X554408Y468362D01*
X554620Y468221D01*
X554860Y468094D01*
X555127Y467996D01*
X555269Y467982D01*
X555424Y467968D01*
X555508D01*
X555564Y467982D01*
X555705Y468010D01*
X555903Y468066D01*
X556114Y468165D01*
X556354Y468306D01*
X556467Y468391D01*
X556580Y468503D01*
X556692Y468616D01*
X556805Y468757D01*
Y468771D01*
X556833Y468799D01*
X556861Y468842D01*
X556890Y468912D01*
X556946Y469011D01*
X556988Y469138D01*
X557045Y469279D01*
X557101Y469448D01*
X557143Y469659D01*
X557200Y469885D01*
X557256Y470153D01*
X557298Y470435D01*
X557327Y470773D01*
X557355Y471125D01*
X557383Y471520D01*
Y471957D01*
Y471971D01*
Y471985D01*
Y472056D01*
Y472183D01*
X557369Y472352D01*
Y472535D01*
X557355Y472761D01*
X557341Y473000D01*
X557313Y473268D01*
X557242Y473804D01*
X557200Y474072D01*
X557143Y474325D01*
X557087Y474565D01*
X557002Y474791D01*
X556918Y474988D01*
X556819Y475157D01*
Y475171D01*
X556791Y475185D01*
X556763Y475228D01*
X556721Y475284D01*
X556594Y475411D01*
X556438Y475566D01*
X556227Y475707D01*
X555987Y475834D01*
X555860Y475890D01*
X555720Y475932D01*
X555564Y475947D01*
X555409Y475961D01*
D02*
G37*
G36*
X531811Y764039D02*
X529020D01*
Y760557D01*
X531642D01*
X531741Y760571D01*
X531839D01*
X531952Y760585D01*
X532220Y760614D01*
X532516Y760670D01*
X532812Y760755D01*
X533080Y760867D01*
X533207Y760938D01*
X533305Y761022D01*
X533334Y761051D01*
X533390Y761107D01*
X533475Y761220D01*
X533573Y761361D01*
X533672Y761544D01*
X533756Y761769D01*
X533813Y762023D01*
X533841Y762319D01*
Y762333D01*
Y762347D01*
Y762418D01*
X533827Y762545D01*
X533799Y762686D01*
X533770Y762841D01*
X533714Y763024D01*
X533630Y763193D01*
X533531Y763363D01*
X533517Y763377D01*
X533475Y763433D01*
X533404Y763503D01*
X533319Y763602D01*
X533193Y763701D01*
X533052Y763785D01*
X532896Y763870D01*
X532713Y763941D01*
X532699D01*
X532643Y763955D01*
X532558Y763969D01*
X532445Y763997D01*
X532276Y764011D01*
X532065Y764025D01*
X531811Y764039D01*
D02*
G37*
G36*
X555409Y764251D02*
X555325D01*
X555269Y764237D01*
X555113Y764208D01*
X554930Y764166D01*
X554719Y764081D01*
X554493Y763955D01*
X554380Y763870D01*
X554268Y763785D01*
X554169Y763673D01*
X554070Y763546D01*
Y763532D01*
X554042Y763503D01*
X554014Y763447D01*
X553971Y763377D01*
X553929Y763264D01*
X553873Y763137D01*
X553831Y762982D01*
X553774Y762799D01*
X553718Y762587D01*
X553661Y762347D01*
X553605Y762080D01*
X553563Y761784D01*
X553520Y761445D01*
X553492Y761079D01*
X553478Y760684D01*
X553464Y760247D01*
Y760219D01*
Y760148D01*
Y760022D01*
X553478Y759852D01*
Y759669D01*
X553492Y759444D01*
X553506Y759204D01*
X553535Y758950D01*
X553605Y758400D01*
X553647Y758132D01*
X553704Y757879D01*
X553760Y757639D01*
X553845Y757414D01*
X553929Y757216D01*
X554028Y757047D01*
Y757033D01*
X554056Y757019D01*
X554127Y756920D01*
X554254Y756793D01*
X554408Y756652D01*
X554620Y756511D01*
X554860Y756385D01*
X555127Y756286D01*
X555269Y756272D01*
X555424Y756258D01*
X555508D01*
X555564Y756272D01*
X555705Y756300D01*
X555903Y756356D01*
X556114Y756455D01*
X556354Y756596D01*
X556467Y756681D01*
X556580Y756793D01*
X556692Y756906D01*
X556805Y757047D01*
Y757061D01*
X556833Y757089D01*
X556861Y757132D01*
X556890Y757202D01*
X556946Y757301D01*
X556988Y757428D01*
X557045Y757569D01*
X557101Y757738D01*
X557143Y757949D01*
X557200Y758175D01*
X557256Y758443D01*
X557298Y758725D01*
X557327Y759063D01*
X557355Y759415D01*
X557383Y759810D01*
Y760247D01*
Y760261D01*
Y760275D01*
Y760346D01*
Y760473D01*
X557369Y760642D01*
Y760825D01*
X557355Y761051D01*
X557341Y761290D01*
X557313Y761558D01*
X557242Y762094D01*
X557200Y762362D01*
X557143Y762615D01*
X557087Y762855D01*
X557002Y763081D01*
X556918Y763278D01*
X556819Y763447D01*
Y763461D01*
X556791Y763475D01*
X556763Y763518D01*
X556721Y763574D01*
X556594Y763701D01*
X556438Y763856D01*
X556227Y763997D01*
X555987Y764124D01*
X555860Y764180D01*
X555720Y764222D01*
X555564Y764237D01*
X555409Y764251D01*
D02*
G37*
G36*
X531811Y475749D02*
X529020D01*
Y472267D01*
X531642D01*
X531741Y472281D01*
X531839D01*
X531952Y472295D01*
X532220Y472324D01*
X532516Y472380D01*
X532812Y472465D01*
X533080Y472577D01*
X533207Y472648D01*
X533305Y472732D01*
X533334Y472761D01*
X533390Y472817D01*
X533475Y472930D01*
X533573Y473071D01*
X533672Y473254D01*
X533756Y473479D01*
X533813Y473733D01*
X533841Y474029D01*
Y474043D01*
Y474058D01*
Y474128D01*
X533827Y474255D01*
X533799Y474396D01*
X533770Y474551D01*
X533714Y474734D01*
X533630Y474903D01*
X533531Y475073D01*
X533517Y475087D01*
X533475Y475143D01*
X533404Y475214D01*
X533319Y475312D01*
X533193Y475411D01*
X533052Y475495D01*
X532896Y475580D01*
X532713Y475650D01*
X532699D01*
X532643Y475665D01*
X532558Y475679D01*
X532445Y475707D01*
X532276Y475721D01*
X532065Y475735D01*
X531811Y475749D01*
D02*
G37*
%LPD*%
D26*
X876300Y241554D02*
G03*
X876300Y205994I51637J-17780D01*
G01*
X903986Y955040D02*
G03*
X939546Y955040I17780J51637D01*
G01*
D30*
X867370Y825840D02*
G03*
X867370Y825840I-2500J0D01*
G01*
X956270Y566080D02*
G03*
X956270Y566080I-2500J0D01*
G01*
X138000Y400D02*
Y130400D01*
X500D02*
X138000D01*
X500D02*
Y990400D01*
X500Y990400D01*
X138000D01*
X138000Y990400D01*
Y1122900D01*
X138000Y1122900D01*
X1138000D01*
X1138000Y1122900D01*
Y400D02*
Y1122900D01*
X1138000Y400D02*
X1138000Y400D01*
X138000Y400D02*
X1138000D01*
D45*
X316625Y473710D02*
G03*
X316996Y450964I7456J-11255D01*
G01*
X397110Y462280D02*
G03*
X397110Y462280I-25000J0D01*
G01*
X316625Y579120D02*
G03*
X316996Y556373I7456J-11255D01*
G01*
X397110Y567690D02*
G03*
X397110Y567690I-25000J0D01*
G01*
X1086025Y786176D02*
G03*
X1086404Y786103I-3985J-21636D01*
G01*
X363220Y677305D02*
G03*
X385966Y677676I11255J7456D01*
G01*
X399650Y732790D02*
G03*
X399650Y732790I-25000J0D01*
G01*
X830460Y908896D02*
G03*
X831447Y909305I0J1395D01*
G01*
X332740Y194380D02*
G03*
X266700Y194380I-33020J0D01*
G01*
Y92780D02*
G03*
X332740Y92780I33020J0D01*
G01*
X258850Y136526D02*
G03*
X198850Y136400I-30000J-126D01*
G01*
Y91400D02*
G03*
X258850Y91274I30000J0D01*
G01*
X972020Y220980D02*
G03*
X972020Y220980I-50000J0D01*
G01*
X974560Y1000760D02*
G03*
X974560Y1000760I-50000J0D01*
G01*
X1087120Y598170D02*
G03*
X1074420Y598170I-6350J0D01*
G01*
X442240Y564930D02*
Y671930D01*
X641240D01*
Y564930D02*
Y671930D01*
X442240Y564930D02*
X641240D01*
X442240Y420150D02*
Y527150D01*
X641240D01*
Y420150D02*
Y527150D01*
X442240Y420150D02*
X641240D01*
X989220Y752370D02*
X1007220D01*
Y765120D01*
X989220Y752370D02*
Y765120D01*
Y774120D02*
Y786870D01*
X1007220Y774120D02*
Y786870D01*
X989220D02*
X1007220D01*
X836820Y226590D02*
X854820D01*
Y239340D01*
X836820Y226590D02*
Y239340D01*
Y248340D02*
Y261090D01*
X854820Y248340D02*
Y261090D01*
X836820D02*
X854820D01*
X1009540Y752370D02*
X1027540D01*
Y765120D01*
X1009540Y752370D02*
Y765120D01*
Y774120D02*
Y786870D01*
X1027540Y774120D02*
Y786870D01*
X1009540D02*
X1027540D01*
X1029860Y752370D02*
X1047860D01*
Y765120D01*
X1029860Y752370D02*
Y765120D01*
Y774120D02*
Y786870D01*
X1047860Y774120D02*
Y786870D01*
X1029860D02*
X1047860D01*
X618380Y984990D02*
X636380D01*
X618380Y972240D02*
Y984990D01*
X636380Y972240D02*
Y984990D01*
Y950490D02*
Y963240D01*
X618380Y950490D02*
Y963240D01*
Y950490D02*
X636380D01*
X638700Y984990D02*
X656700D01*
X638700Y972240D02*
Y984990D01*
X656700Y972240D02*
Y984990D01*
Y950490D02*
Y963240D01*
X638700Y950490D02*
Y963240D01*
Y950490D02*
X656700D01*
X730990Y1004460D02*
Y1022460D01*
X718240D02*
X730990D01*
X718240Y1004460D02*
X730990D01*
X696490D02*
X709240D01*
X696490Y1022460D02*
X709240D01*
X696490Y1004460D02*
Y1022460D01*
X734590Y1004460D02*
Y1022460D01*
Y1004460D02*
X747340D01*
X734590Y1022460D02*
X747340D01*
X756340D02*
X769090D01*
X756340Y1004460D02*
X769090D01*
Y1022460D01*
X656480Y828570D02*
X674480D01*
Y841320D01*
X656480Y828570D02*
Y841320D01*
Y850320D02*
Y863070D01*
X674480Y850320D02*
Y863070D01*
X656480D02*
X674480D01*
X636160Y828570D02*
X654160D01*
Y841320D01*
X636160Y828570D02*
Y841320D01*
Y850320D02*
Y863070D01*
X654160Y850320D02*
Y863070D01*
X636160D02*
X654160D01*
X881270Y907310D02*
X899270D01*
Y920060D01*
X881270Y907310D02*
Y920060D01*
Y929060D02*
Y941810D01*
X899270Y929060D02*
Y941810D01*
X881270D02*
X899270D01*
X667910Y493290D02*
X685910D01*
Y506040D01*
X667910Y493290D02*
Y506040D01*
Y515040D02*
Y527790D01*
X685910Y515040D02*
Y527790D01*
X667910D02*
X685910D01*
X836190Y967630D02*
Y985630D01*
Y967630D02*
X848940D01*
X836190Y985630D02*
X848940D01*
X857940D02*
X870690D01*
X857940Y967630D02*
X870690D01*
Y985630D01*
X667910Y639340D02*
X685910D01*
Y652090D01*
X667910Y639340D02*
Y652090D01*
Y661090D02*
Y673840D01*
X685910Y661090D02*
Y673840D01*
X667910D02*
X685910D01*
X669180Y782190D02*
X687180D01*
Y794940D01*
X669180Y782190D02*
Y794940D01*
Y803940D02*
Y816690D01*
X687180Y803940D02*
Y816690D01*
X669180D02*
X687180D01*
X1032290Y1003920D02*
Y1017920D01*
X1004790Y1003920D02*
X1032290D01*
X1004790D02*
Y1017920D01*
X1004790D02*
X1032290D01*
X1021700Y903190D02*
X1035700D01*
X1021700Y903190D02*
Y930690D01*
Y930690D02*
X1035700D01*
Y903190D02*
Y930690D01*
X1032290Y978520D02*
Y992520D01*
X1004790Y978520D02*
X1032290D01*
X1004790D02*
Y992520D01*
X1004790D02*
X1032290D01*
X994300Y533930D02*
Y568430D01*
X1012300Y533930D02*
Y568430D01*
X994300D02*
X1012300D01*
X994300Y533930D02*
X1012300D01*
X302790Y905620D02*
X337290D01*
X302790Y887620D02*
X337290D01*
Y905620D01*
X302790Y887620D02*
Y905620D01*
X184680Y669400D02*
X219180D01*
X184680Y651400D02*
X219180D01*
Y669400D01*
X184680Y651400D02*
Y669400D01*
Y720200D02*
X219180D01*
X184680Y702200D02*
X219180D01*
Y720200D01*
X184680Y702200D02*
Y720200D01*
X302790Y927972D02*
X337290D01*
X302790Y909972D02*
X337290D01*
Y927972D01*
X302790Y909972D02*
Y927972D01*
Y950324D02*
X337290D01*
X302790Y932324D02*
X337290D01*
Y950324D01*
X302790Y932324D02*
Y950324D01*
X184680Y771000D02*
X219180D01*
X184680Y753000D02*
X219180D01*
Y771000D01*
X184680Y753000D02*
Y771000D01*
Y821800D02*
X219180D01*
X184680Y803800D02*
X219180D01*
Y821800D01*
X184680Y803800D02*
Y821800D01*
X302790Y972676D02*
X337290D01*
X302790Y954676D02*
X337290D01*
Y972676D01*
X302790Y954676D02*
Y972676D01*
Y995028D02*
X337290D01*
X302790Y977028D02*
X337290D01*
Y995028D01*
X302790Y977028D02*
Y995028D01*
X601240Y1027320D02*
X635740D01*
X601240Y1045320D02*
X635740D01*
X601240Y1027320D02*
Y1045320D01*
X635740Y1027320D02*
Y1045320D01*
X184680Y872600D02*
X219180D01*
X184680Y854600D02*
X219180D01*
Y872600D01*
X184680Y854600D02*
Y872600D01*
X601240Y1065640D02*
X635740D01*
X601240Y1047640D02*
X635740D01*
Y1065640D01*
X601240Y1047640D02*
Y1065640D01*
X184680Y923400D02*
X219180D01*
X184680Y905400D02*
X219180D01*
Y923400D01*
X184680Y905400D02*
Y923400D01*
X302790Y1017380D02*
X337290D01*
X302790Y999380D02*
X337290D01*
Y1017380D01*
X302790Y999380D02*
Y1017380D01*
X633840Y828570D02*
Y863070D01*
X615840Y828570D02*
Y863070D01*
Y828570D02*
X633840D01*
X615840Y863070D02*
X633840D01*
X646320Y455190D02*
Y489690D01*
X664320Y455190D02*
Y489690D01*
X646320D02*
X664320D01*
X646320Y455190D02*
X664320D01*
X646320Y493290D02*
Y527790D01*
X664320Y493290D02*
Y527790D01*
X646320D02*
X664320D01*
X646320Y493290D02*
X664320D01*
X646320Y601240D02*
Y635740D01*
X664320Y601240D02*
Y635740D01*
X646320D02*
X664320D01*
X646320Y601240D02*
X664320D01*
X646320Y639340D02*
Y673840D01*
X664320Y639340D02*
Y673840D01*
X646320D02*
X664320D01*
X646320Y639340D02*
X664320D01*
X646320Y740940D02*
Y775440D01*
X664320Y740940D02*
Y775440D01*
X646320D02*
X664320D01*
X646320Y740940D02*
X664320D01*
X646320Y781580D02*
Y816080D01*
X664320Y781580D02*
Y816080D01*
X646320D02*
X664320D01*
X646320Y781580D02*
X664320D01*
X965730Y458580D02*
X1000230D01*
X965730Y440580D02*
X1000230D01*
Y458580D01*
X965730Y440580D02*
Y458580D01*
Y369460D02*
X1000230D01*
X965730Y387460D02*
X1000230D01*
X965730Y369460D02*
Y387460D01*
X1000230Y369460D02*
Y387460D01*
X317133Y450850D02*
X350050D01*
X316625Y473710D02*
X350050D01*
X329730Y462280D02*
X347110D01*
X317133Y556260D02*
X350050D01*
X316625Y579120D02*
X350050D01*
X329730Y567690D02*
X347110D01*
X399520Y1032400D02*
Y1050400D01*
X386770D02*
X399520D01*
X386770Y1032400D02*
X399520D01*
X365020D02*
X377770D01*
X365020Y1050400D02*
X377770D01*
X365020Y1032400D02*
Y1050400D01*
X399520Y998872D02*
Y1016872D01*
X386770D02*
X399520D01*
X386770Y998872D02*
X399520D01*
X365020D02*
X377770D01*
X365020Y1016872D02*
X377770D01*
X365020Y998872D02*
Y1016872D01*
X399520Y965344D02*
Y983344D01*
X386770D02*
X399520D01*
X386770Y965344D02*
X399520D01*
X365020D02*
X377770D01*
X365020Y983344D02*
X377770D01*
X365020Y965344D02*
Y983344D01*
X399520Y931816D02*
Y949816D01*
X386770D02*
X399520D01*
X386770Y931816D02*
X399520D01*
X365020D02*
X377770D01*
X365020Y949816D02*
X377770D01*
X365020Y931816D02*
Y949816D01*
X399520Y898288D02*
Y916288D01*
X386770D02*
X399520D01*
X386770Y898288D02*
X399520D01*
X365020D02*
X377770D01*
X365020Y916288D02*
X377770D01*
X365020Y898288D02*
Y916288D01*
X399520Y864760D02*
Y882760D01*
X386770D02*
X399520D01*
X386770Y864760D02*
X399520D01*
X365020D02*
X377770D01*
X365020Y882760D02*
X377770D01*
X365020Y864760D02*
Y882760D01*
X1073040Y793010D02*
Y827510D01*
X1091040Y793010D02*
Y827510D01*
X1073040D02*
X1091040D01*
X1073040Y793010D02*
X1091040D01*
X386080Y677813D02*
Y710730D01*
X363220Y677305D02*
Y710730D01*
X374650Y690410D02*
Y707790D01*
X875710Y907450D02*
X878710D01*
X875710Y958450D02*
X878710D01*
X830460D02*
X834270D01*
X878710Y907450D02*
Y958450D01*
X830460Y915162D02*
Y958450D01*
Y915162D02*
X834965Y910657D01*
Y907771D02*
Y910657D01*
X830460Y907771D02*
X834965D01*
X830460Y908896D02*
Y915162D01*
X832799Y910657D02*
X834965D01*
X830834Y912622D02*
X832799Y910657D01*
X834965Y907771D02*
Y908491D01*
X830834Y912622D02*
X834965Y908491D01*
X830460Y907771D02*
Y908896D01*
X830865Y908491D02*
X834965D01*
X831447Y909305D02*
X832799Y910657D01*
X332740Y92780D02*
Y194380D01*
X266700Y92780D02*
Y194380D01*
X882870Y701340D02*
Y828340D01*
X949870Y701340D02*
Y828340D01*
X882870Y701340D02*
X949870D01*
X882870Y828340D02*
X949870D01*
X906770Y621680D02*
X940770D01*
X906770Y569580D02*
X940770D01*
X679730Y988060D02*
Y1001410D01*
Y988060D02*
X713740D01*
Y847710D02*
Y1001410D01*
X783590Y847710D02*
Y1001410D01*
X442240Y708440D02*
Y815440D01*
X641240D01*
Y708440D02*
Y815440D01*
X442240Y708440D02*
X641240D01*
X198850Y91400D02*
Y136400D01*
X258850Y91295D02*
Y136505D01*
X978520Y585690D02*
X992520D01*
X978520Y585690D02*
Y613190D01*
Y613190D02*
X992520D01*
Y585690D02*
Y613190D01*
X208666Y173572D02*
X248666D01*
X208666D02*
Y258572D01*
X248666Y173572D02*
Y258572D01*
X208666D02*
X248666D01*
X886600Y290420D02*
Y334420D01*
X967600Y290420D02*
Y334420D01*
X886600Y290420D02*
X970600D01*
Y334420D01*
X886600D02*
X970600D01*
X574050Y830800D02*
Y842230D01*
Y830800D02*
X581660D01*
X599440D02*
X607050D01*
Y842230D01*
X1046480Y896112D02*
X1071880D01*
Y1024320D01*
X1046480D02*
X1071880D01*
X1046480Y896112D02*
Y1024320D01*
X857140Y577110D02*
X875140D01*
Y589860D01*
X857140Y577110D02*
Y589860D01*
Y598860D02*
Y611610D01*
X875140Y598860D02*
Y611610D01*
X857140D02*
X875140D01*
X968229Y430521D02*
X979659D01*
X968229Y422911D02*
Y430521D01*
Y397521D02*
Y405131D01*
Y397521D02*
X979659D01*
X1011540Y603470D02*
Y630970D01*
Y603470D02*
X1025540D01*
Y603470D02*
Y630970D01*
X1011540Y630970D02*
X1025540D01*
Y687290D02*
Y714790D01*
X1011540Y714790D02*
X1025540D01*
X1011540Y687290D02*
Y714790D01*
Y687290D02*
X1025540D01*
X1012410Y593740D02*
X1039910D01*
X1012410Y579740D02*
Y593740D01*
X1012410Y579740D02*
X1039910D01*
X1039910D02*
Y593740D01*
X1025540Y644110D02*
Y671610D01*
X1011540Y671610D02*
X1025540D01*
X1011540Y644110D02*
Y671610D01*
Y644110D02*
X1025540D01*
X616690Y1007000D02*
Y1025000D01*
X603940Y1007000D02*
X616690D01*
X603940Y1025000D02*
X616690D01*
X582190D02*
X594940D01*
X582190Y1007000D02*
X594940D01*
X582190D02*
Y1025000D01*
X616690Y986680D02*
Y1004680D01*
X603940Y986680D02*
X616690D01*
X603940Y1004680D02*
X616690D01*
X582190D02*
X594940D01*
X582190Y986680D02*
X594940D01*
X582190D02*
Y1004680D01*
X1027770Y713170D02*
X1133770D01*
X1027770Y597470D02*
X1074420D01*
X1087120D02*
X1133770D01*
X1027600Y597220D02*
Y713420D01*
X1133940Y597220D02*
Y713420D01*
X1101167Y802794D02*
Y789940D01*
X1094740Y796367D02*
X1107594D01*
X1055468Y887320D02*
X1054896Y888463D01*
X1053183Y890176D01*
X1065180D01*
D46*
X1100270Y613820D02*
G03*
X1100270Y613820I-3000J0D01*
G01*
D47*
X1120120Y604220D02*
G03*
X1120120Y604220I-1250J0D01*
G01*
D48*
X6680Y635000D02*
Y939800D01*
X126680Y635000D02*
Y939800D01*
X6680D02*
X126680D01*
X6680Y635000D02*
X126680D01*
X774830Y53040D02*
X830575Y109755D01*
X742110Y53040D02*
X829940Y140870D01*
X722760Y53040D02*
X742110D01*
X829940D02*
Y413040D01*
X344940Y53040D02*
Y413040D01*
Y53040D02*
X829940D01*
X344940Y413040D02*
X829940D01*
X1016320Y567690D02*
X1136320D01*
X1016320Y364490D02*
X1136320D01*
X1016320D02*
Y567690D01*
X1136320Y364490D02*
Y567690D01*
X6680Y490220D02*
X126680D01*
X6680Y566420D02*
X126680D01*
Y185420D02*
Y566420D01*
X6680Y185420D02*
Y566420D01*
Y414020D02*
X126680D01*
X6680Y185420D02*
X126680D01*
X6680Y261620D02*
X126680D01*
X6680Y337820D02*
X126680D01*
X993144Y802637D02*
X990605Y800098D01*
Y795019D01*
X993144Y792480D01*
X1003301D01*
X1005840Y795019D01*
Y800098D01*
X1003301Y802637D01*
X1005840Y807715D02*
Y812793D01*
Y810254D01*
X990605D01*
X993144Y807715D01*
X845817Y287016D02*
X843278Y289555D01*
X838199D01*
X835660Y287016D01*
Y276859D01*
X838199Y274320D01*
X843278D01*
X845817Y276859D01*
X861052Y274320D02*
X850895D01*
X861052Y284477D01*
Y287016D01*
X858513Y289555D01*
X853434D01*
X850895Y287016D01*
X1013464Y802637D02*
X1010925Y800098D01*
Y795019D01*
X1013464Y792480D01*
X1023621D01*
X1026160Y795019D01*
Y800098D01*
X1023621Y802637D01*
X1013464Y807715D02*
X1010925Y810254D01*
Y815333D01*
X1013464Y817872D01*
X1016003D01*
X1018542Y815333D01*
Y812793D01*
Y815333D01*
X1021082Y817872D01*
X1023621D01*
X1026160Y815333D01*
Y810254D01*
X1023621Y807715D01*
X998217Y233676D02*
X995677Y236215D01*
X990599D01*
X988060Y233676D01*
Y223519D01*
X990599Y220980D01*
X995677D01*
X998217Y223519D01*
X1010913Y220980D02*
Y236215D01*
X1003295Y228598D01*
X1013452D01*
X1033784Y802637D02*
X1031245Y800098D01*
Y795019D01*
X1033784Y792480D01*
X1043941D01*
X1046480Y795019D01*
Y800098D01*
X1043941Y802637D01*
X1031245Y817872D02*
Y807715D01*
X1038863D01*
X1036323Y812793D01*
Y815333D01*
X1038863Y817872D01*
X1043941D01*
X1046480Y815333D01*
Y810254D01*
X1043941Y807715D01*
X422907Y881376D02*
X420368Y883915D01*
X415289D01*
X412750Y881376D01*
Y871219D01*
X415289Y868680D01*
X420368D01*
X422907Y871219D01*
X427985Y868680D02*
X433063D01*
X430524D01*
Y883915D01*
X427985Y881376D01*
X440681Y868680D02*
X445759D01*
X443220D01*
Y883915D01*
X440681Y881376D01*
X420367Y914396D02*
X417827Y916935D01*
X412749D01*
X410210Y914396D01*
Y904239D01*
X412749Y901700D01*
X417827D01*
X420367Y904239D01*
X425445Y901700D02*
X430523D01*
X427984D01*
Y916935D01*
X425445Y914396D01*
X448298Y901700D02*
X438141D01*
X448298Y911857D01*
Y914396D01*
X445759Y916935D01*
X440680D01*
X438141Y914396D01*
X579117Y942336D02*
X576577Y944875D01*
X571499D01*
X568960Y942336D01*
Y932179D01*
X571499Y929640D01*
X576577D01*
X579117Y932179D01*
X584195Y929640D02*
X589273D01*
X586734D01*
Y944875D01*
X584195Y942336D01*
X596891D02*
X599430Y944875D01*
X604509D01*
X607048Y942336D01*
Y939797D01*
X604509Y937258D01*
X601969D01*
X604509D01*
X607048Y934718D01*
Y932179D01*
X604509Y929640D01*
X599430D01*
X596891Y932179D01*
X419097Y943606D02*
X416558Y946145D01*
X411479D01*
X408940Y943606D01*
Y933449D01*
X411479Y930910D01*
X416558D01*
X419097Y933449D01*
X424175Y930910D02*
X429253D01*
X426714D01*
Y946145D01*
X424175Y943606D01*
X447028Y946145D02*
X436871D01*
Y938528D01*
X441949Y941067D01*
X444488D01*
X447028Y938528D01*
Y933449D01*
X444488Y930910D01*
X439410D01*
X436871Y933449D01*
X629917Y942336D02*
X627378Y944875D01*
X622299D01*
X619760Y942336D01*
Y932179D01*
X622299Y929640D01*
X627378D01*
X629917Y932179D01*
X634995Y929640D02*
X640073D01*
X637534D01*
Y944875D01*
X634995Y942336D01*
X657848Y944875D02*
X652769Y942336D01*
X647691Y937258D01*
Y932179D01*
X650230Y929640D01*
X655309D01*
X657848Y932179D01*
Y934718D01*
X655309Y937258D01*
X647691D01*
X660397Y1021076D02*
X657858Y1023615D01*
X652779D01*
X650240Y1021076D01*
Y1010919D01*
X652779Y1008380D01*
X657858D01*
X660397Y1010919D01*
X665475Y1008380D02*
X670553D01*
X668014D01*
Y1023615D01*
X665475Y1021076D01*
X678171Y1023615D02*
X688328D01*
Y1021076D01*
X678171Y1010919D01*
Y1008380D01*
X744217Y1041396D02*
X741677Y1043935D01*
X736599D01*
X734060Y1041396D01*
Y1031239D01*
X736599Y1028700D01*
X741677D01*
X744217Y1031239D01*
X749295Y1028700D02*
X754373D01*
X751834D01*
Y1043935D01*
X749295Y1041396D01*
X761991D02*
X764530Y1043935D01*
X769609D01*
X772148Y1041396D01*
Y1038857D01*
X769609Y1036318D01*
X772148Y1033778D01*
Y1031239D01*
X769609Y1028700D01*
X764530D01*
X761991Y1031239D01*
Y1033778D01*
X764530Y1036318D01*
X761991Y1038857D01*
Y1041396D01*
X764530Y1036318D02*
X769609D01*
X417827Y980436D02*
X415288Y982975D01*
X410209D01*
X407670Y980436D01*
Y970279D01*
X410209Y967740D01*
X415288D01*
X417827Y970279D01*
X422905Y967740D02*
X427983D01*
X425444D01*
Y982975D01*
X422905Y980436D01*
X435601Y970279D02*
X438140Y967740D01*
X443218D01*
X445758Y970279D01*
Y980436D01*
X443218Y982975D01*
X438140D01*
X435601Y980436D01*
Y977897D01*
X438140Y975358D01*
X445758D01*
X659134Y876297D02*
X656595Y873757D01*
Y868679D01*
X659134Y866140D01*
X669291D01*
X671830Y868679D01*
Y873757D01*
X669291Y876297D01*
X671830Y891532D02*
Y881375D01*
X661673Y891532D01*
X659134D01*
X656595Y888993D01*
Y883914D01*
X659134Y881375D01*
Y896610D02*
X656595Y899149D01*
Y904228D01*
X659134Y906767D01*
X669291D01*
X671830Y904228D01*
Y899149D01*
X669291Y896610D01*
X659134D01*
X638814Y876297D02*
X636275Y873757D01*
Y868679D01*
X638814Y866140D01*
X648971D01*
X651510Y868679D01*
Y873757D01*
X648971Y876297D01*
X651510Y891532D02*
Y881375D01*
X641353Y891532D01*
X638814D01*
X636275Y888993D01*
Y883914D01*
X638814Y881375D01*
X651510Y896610D02*
Y901689D01*
Y899149D01*
X636275D01*
X638814Y896610D01*
X416557Y1010916D02*
X414017Y1013455D01*
X408939D01*
X406400Y1010916D01*
Y1000759D01*
X408939Y998220D01*
X414017D01*
X416557Y1000759D01*
X431792Y998220D02*
X421635D01*
X431792Y1008377D01*
Y1010916D01*
X429253Y1013455D01*
X424174D01*
X421635Y1010916D01*
X447027Y998220D02*
X436870D01*
X447027Y1008377D01*
Y1010916D01*
X444488Y1013455D01*
X439409D01*
X436870Y1010916D01*
X417827Y1054096D02*
X415288Y1056635D01*
X410209D01*
X407670Y1054096D01*
Y1043939D01*
X410209Y1041400D01*
X415288D01*
X417827Y1043939D01*
X433062Y1041400D02*
X422905D01*
X433062Y1051557D01*
Y1054096D01*
X430523Y1056635D01*
X425444D01*
X422905Y1054096D01*
X438140D02*
X440679Y1056635D01*
X445758D01*
X448297Y1054096D01*
Y1051557D01*
X445758Y1049017D01*
X443218D01*
X445758D01*
X448297Y1046478D01*
Y1043939D01*
X445758Y1041400D01*
X440679D01*
X438140Y1043939D01*
X909324Y915667D02*
X906785Y913128D01*
Y908049D01*
X909324Y905510D01*
X919481D01*
X922020Y908049D01*
Y913128D01*
X919481Y915667D01*
X906785Y930902D02*
X909324Y925823D01*
X914402Y920745D01*
X919481D01*
X922020Y923284D01*
Y928363D01*
X919481Y930902D01*
X916942D01*
X914402Y928363D01*
Y920745D01*
X909324Y935980D02*
X906785Y938519D01*
Y943598D01*
X909324Y946137D01*
X919481D01*
X922020Y943598D01*
Y938519D01*
X919481Y935980D01*
X909324D01*
X706117Y520696D02*
X703577Y523235D01*
X698499D01*
X695960Y520696D01*
Y510539D01*
X698499Y508000D01*
X703577D01*
X706117Y510539D01*
X721352Y523235D02*
X716273Y520696D01*
X711195Y515617D01*
Y510539D01*
X713734Y508000D01*
X718813D01*
X721352Y510539D01*
Y513078D01*
X718813Y515617D01*
X711195D01*
X726430Y508000D02*
X731508D01*
X728969D01*
Y523235D01*
X726430Y520696D01*
X837145Y1007325D02*
X834606Y1009864D01*
X829528D01*
X826989Y1007325D01*
Y997168D01*
X829528Y994629D01*
X834606D01*
X837145Y997168D01*
X852381Y1009864D02*
X847302Y1007325D01*
X842224Y1002246D01*
Y997168D01*
X844763Y994629D01*
X849841D01*
X852381Y997168D01*
Y999707D01*
X849841Y1002246D01*
X842224D01*
X867616Y994629D02*
X857459D01*
X867616Y1004785D01*
Y1007325D01*
X865076Y1009864D01*
X859998D01*
X857459Y1007325D01*
X701037Y666746D02*
X698497Y669285D01*
X693419D01*
X690880Y666746D01*
Y656589D01*
X693419Y654050D01*
X698497D01*
X701037Y656589D01*
X716272Y669285D02*
X711193Y666746D01*
X706115Y661667D01*
Y656589D01*
X708654Y654050D01*
X713733D01*
X716272Y656589D01*
Y659128D01*
X713733Y661667D01*
X706115D01*
X721350Y666746D02*
X723889Y669285D01*
X728968D01*
X731507Y666746D01*
Y664207D01*
X728968Y661667D01*
X726429D01*
X728968D01*
X731507Y659128D01*
Y656589D01*
X728968Y654050D01*
X723889D01*
X721350Y656589D01*
X759457Y805176D02*
X756917Y807715D01*
X751839D01*
X749300Y805176D01*
Y795019D01*
X751839Y792480D01*
X756917D01*
X759457Y795019D01*
X774692Y807715D02*
X769613Y805176D01*
X764535Y800098D01*
Y795019D01*
X767074Y792480D01*
X772153D01*
X774692Y795019D01*
Y797558D01*
X772153Y800098D01*
X764535D01*
X787388Y792480D02*
Y807715D01*
X779770Y800098D01*
X789927D01*
X819147Y601976D02*
X816608Y604515D01*
X811529D01*
X808990Y601976D01*
Y591819D01*
X811529Y589280D01*
X816608D01*
X819147Y591819D01*
X824225D02*
X826764Y589280D01*
X831843D01*
X834382Y591819D01*
Y601976D01*
X831843Y604515D01*
X826764D01*
X824225Y601976D01*
Y599437D01*
X826764Y596898D01*
X834382D01*
X839460Y601976D02*
X841999Y604515D01*
X847078D01*
X849617Y601976D01*
Y591819D01*
X847078Y589280D01*
X841999D01*
X839460Y591819D01*
Y601976D01*
X1058288Y1045587D02*
X1055749Y1048126D01*
X1050670D01*
X1048131Y1045587D01*
Y1035430D01*
X1050670Y1032891D01*
X1055749D01*
X1058288Y1035430D01*
X1063366Y1032891D02*
Y1048126D01*
X1073523Y1032891D01*
Y1048126D01*
X1078601Y1032891D02*
X1083680D01*
X1081140D01*
Y1048126D01*
X1078601Y1045587D01*
X18158Y587879D02*
X15618Y590418D01*
X10540D01*
X8001Y587879D01*
Y577722D01*
X10540Y575183D01*
X15618D01*
X18158Y577722D01*
X23236Y575183D02*
Y590418D01*
X33393Y575183D01*
Y590418D01*
X48628Y575183D02*
X38471D01*
X48628Y585340D01*
Y587879D01*
X46089Y590418D01*
X41010D01*
X38471Y587879D01*
X1124842Y343031D02*
X1127382Y340492D01*
X1132460D01*
X1134999Y343031D01*
Y353188D01*
X1132460Y355727D01*
X1127382D01*
X1124842Y353188D01*
X1119764Y355727D02*
Y340492D01*
X1109607Y355727D01*
Y340492D01*
X1104529Y343031D02*
X1101990Y340492D01*
X1096911D01*
X1094372Y343031D01*
Y345570D01*
X1096911Y348110D01*
X1099451D01*
X1096911D01*
X1094372Y350649D01*
Y353188D01*
X1096911Y355727D01*
X1101990D01*
X1104529Y353188D01*
X582930Y883915D02*
Y868680D01*
X590547D01*
X593087Y871219D01*
Y881376D01*
X590547Y883915D01*
X582930D01*
X598165Y868680D02*
X603243D01*
X600704D01*
Y883915D01*
X598165Y881376D01*
X927100Y421635D02*
Y406400D01*
X934717D01*
X937257Y408939D01*
Y419096D01*
X934717Y421635D01*
X927100D01*
X952492Y406400D02*
X942335D01*
X952492Y416557D01*
Y419096D01*
X949953Y421635D01*
X944874D01*
X942335Y419096D01*
X862208Y291973D02*
X877443D01*
Y299590D01*
X874904Y302130D01*
X864747D01*
X862208Y299590D01*
Y291973D01*
X864747Y307208D02*
X862208Y309747D01*
Y314826D01*
X864747Y317365D01*
X867286D01*
X869826Y314826D01*
Y312286D01*
Y314826D01*
X872365Y317365D01*
X874904D01*
X877443Y314826D01*
Y309747D01*
X874904Y307208D01*
X228597Y284475D02*
X218440D01*
Y276857D01*
X223518D01*
X218440D01*
Y269240D01*
X233675D02*
X238753D01*
X236214D01*
Y284475D01*
X233675Y281936D01*
X990600Y546100D02*
X975365D01*
Y553717D01*
X977904Y556257D01*
X982982D01*
X985522Y553717D01*
Y546100D01*
Y551178D02*
X990600Y556257D01*
Y561335D02*
Y566413D01*
Y563874D01*
X975365D01*
X977904Y561335D01*
X1000760Y1008380D02*
X985525D01*
Y1015997D01*
X988064Y1018537D01*
X993142D01*
X995682Y1015997D01*
Y1008380D01*
Y1013458D02*
X1000760Y1018537D01*
Y1031233D02*
X985525D01*
X993142Y1023615D01*
Y1033772D01*
X985520Y914400D02*
Y929635D01*
X993138D01*
X995677Y927096D01*
Y922018D01*
X993138Y919478D01*
X985520D01*
X990598D02*
X995677Y914400D01*
X1010912Y929635D02*
X1000755D01*
Y922018D01*
X1005833Y924557D01*
X1008373D01*
X1010912Y922018D01*
Y916939D01*
X1008373Y914400D01*
X1003294D01*
X1000755Y916939D01*
X1000760Y962660D02*
X985525D01*
Y970277D01*
X988064Y972817D01*
X993142D01*
X995682Y970277D01*
Y962660D01*
Y967738D02*
X1000760Y972817D01*
X985525Y988052D02*
X988064Y982973D01*
X993142Y977895D01*
X998221D01*
X1000760Y980434D01*
Y985513D01*
X998221Y988052D01*
X995682D01*
X993142Y985513D01*
Y977895D01*
X259080Y887730D02*
Y902965D01*
X266698D01*
X269237Y900426D01*
Y895348D01*
X266698Y892808D01*
X259080D01*
X264158D02*
X269237Y887730D01*
X274315D02*
X279393D01*
X276854D01*
Y902965D01*
X274315Y900426D01*
X287011Y887730D02*
X292089D01*
X289550D01*
Y902965D01*
X287011Y900426D01*
X186309Y678053D02*
Y693288D01*
X193927D01*
X196466Y690749D01*
Y685670D01*
X193927Y683131D01*
X186309D01*
X191387D02*
X196466Y678053D01*
X201544D02*
X206622D01*
X204083D01*
Y693288D01*
X201544Y690749D01*
X224397Y678053D02*
X214240D01*
X224397Y688210D01*
Y690749D01*
X221857Y693288D01*
X216779D01*
X214240Y690749D01*
X186309Y728853D02*
Y744088D01*
X193927D01*
X196466Y741549D01*
Y736470D01*
X193927Y733931D01*
X186309D01*
X191387D02*
X196466Y728853D01*
X201544D02*
X206622D01*
X204083D01*
Y744088D01*
X201544Y741549D01*
X214240D02*
X216779Y744088D01*
X221857D01*
X224397Y741549D01*
Y739010D01*
X221857Y736470D01*
X219318D01*
X221857D01*
X224397Y733931D01*
Y731392D01*
X221857Y728853D01*
X216779D01*
X214240Y731392D01*
X256540Y909320D02*
Y924555D01*
X264158D01*
X266697Y922016D01*
Y916937D01*
X264158Y914398D01*
X256540D01*
X261618D02*
X266697Y909320D01*
X271775D02*
X276853D01*
X274314D01*
Y924555D01*
X271775Y922016D01*
X292089Y909320D02*
Y924555D01*
X284471Y916937D01*
X294628D01*
X256540Y933450D02*
Y948685D01*
X264158D01*
X266697Y946146D01*
Y941068D01*
X264158Y938528D01*
X256540D01*
X261618D02*
X266697Y933450D01*
X271775D02*
X276853D01*
X274314D01*
Y948685D01*
X271775Y946146D01*
X294628Y948685D02*
X284471D01*
Y941068D01*
X289549Y943607D01*
X292089D01*
X294628Y941068D01*
Y935989D01*
X292089Y933450D01*
X287010D01*
X284471Y935989D01*
X186309Y779653D02*
Y794888D01*
X193927D01*
X196466Y792349D01*
Y787271D01*
X193927Y784731D01*
X186309D01*
X191387D02*
X196466Y779653D01*
X201544D02*
X206622D01*
X204083D01*
Y794888D01*
X201544Y792349D01*
X224397Y794888D02*
X219318Y792349D01*
X214240Y787271D01*
Y782192D01*
X216779Y779653D01*
X221857D01*
X224397Y782192D01*
Y784731D01*
X221857Y787271D01*
X214240D01*
X186309Y830453D02*
Y845688D01*
X193927D01*
X196466Y843149D01*
Y838071D01*
X193927Y835531D01*
X186309D01*
X191387D02*
X196466Y830453D01*
X201544D02*
X206622D01*
X204083D01*
Y845688D01*
X201544Y843149D01*
X214240D02*
X216779Y845688D01*
X221857D01*
X224397Y843149D01*
Y840610D01*
X221857Y838071D01*
X224397Y835531D01*
Y832992D01*
X221857Y830453D01*
X216779D01*
X214240Y832992D01*
Y835531D01*
X216779Y838071D01*
X214240Y840610D01*
Y843149D01*
X216779Y838071D02*
X221857D01*
X257810Y955040D02*
Y970275D01*
X265427D01*
X267967Y967736D01*
Y962657D01*
X265427Y960118D01*
X257810D01*
X262888D02*
X267967Y955040D01*
X273045D02*
X278123D01*
X275584D01*
Y970275D01*
X273045Y967736D01*
X285741Y957579D02*
X288280Y955040D01*
X293358D01*
X295898Y957579D01*
Y967736D01*
X293358Y970275D01*
X288280D01*
X285741Y967736D01*
Y965197D01*
X288280Y962657D01*
X295898D01*
X256540Y977900D02*
Y993135D01*
X264158D01*
X266697Y990596D01*
Y985518D01*
X264158Y982978D01*
X256540D01*
X261618D02*
X266697Y977900D01*
X281932D02*
X271775D01*
X281932Y988057D01*
Y990596D01*
X279393Y993135D01*
X274314D01*
X271775Y990596D01*
X287010D02*
X289549Y993135D01*
X294628D01*
X297167Y990596D01*
Y980439D01*
X294628Y977900D01*
X289549D01*
X287010Y980439D01*
Y990596D01*
X553720Y1031240D02*
Y1046475D01*
X561338D01*
X563877Y1043936D01*
Y1038857D01*
X561338Y1036318D01*
X553720D01*
X558798D02*
X563877Y1031240D01*
X579112D02*
X568955D01*
X579112Y1041397D01*
Y1043936D01*
X576573Y1046475D01*
X571494D01*
X568955Y1043936D01*
X584190Y1031240D02*
X589268D01*
X586729D01*
Y1046475D01*
X584190Y1043936D01*
X184150Y878840D02*
Y894075D01*
X191768D01*
X194307Y891536D01*
Y886458D01*
X191768Y883918D01*
X184150D01*
X189228D02*
X194307Y878840D01*
X209542D02*
X199385D01*
X209542Y888997D01*
Y891536D01*
X207003Y894075D01*
X201924D01*
X199385Y891536D01*
X224777Y878840D02*
X214620D01*
X224777Y888997D01*
Y891536D01*
X222238Y894075D01*
X217159D01*
X214620Y891536D01*
X553720Y1052830D02*
Y1068065D01*
X561338D01*
X563877Y1065526D01*
Y1060447D01*
X561338Y1057908D01*
X553720D01*
X558798D02*
X563877Y1052830D01*
X579112D02*
X568955D01*
X579112Y1062987D01*
Y1065526D01*
X576573Y1068065D01*
X571494D01*
X568955Y1065526D01*
X584190D02*
X586729Y1068065D01*
X591808D01*
X594347Y1065526D01*
Y1062987D01*
X591808Y1060447D01*
X589268D01*
X591808D01*
X594347Y1057908D01*
Y1055369D01*
X591808Y1052830D01*
X586729D01*
X584190Y1055369D01*
X184150Y929640D02*
Y944875D01*
X191768D01*
X194307Y942336D01*
Y937258D01*
X191768Y934718D01*
X184150D01*
X189228D02*
X194307Y929640D01*
X209542D02*
X199385D01*
X209542Y939797D01*
Y942336D01*
X207003Y944875D01*
X201924D01*
X199385Y942336D01*
X222238Y929640D02*
Y944875D01*
X214620Y937258D01*
X224777D01*
X256540Y1000760D02*
Y1015995D01*
X264158D01*
X266697Y1013456D01*
Y1008378D01*
X264158Y1005838D01*
X256540D01*
X261618D02*
X266697Y1000760D01*
X281932D02*
X271775D01*
X281932Y1010917D01*
Y1013456D01*
X279393Y1015995D01*
X274314D01*
X271775Y1013456D01*
X297167Y1015995D02*
X287010D01*
Y1008378D01*
X292089Y1010917D01*
X294628D01*
X297167Y1008378D01*
Y1003299D01*
X294628Y1000760D01*
X289549D01*
X287010Y1003299D01*
X631190Y868680D02*
X615955D01*
Y876298D01*
X618494Y878837D01*
X623573D01*
X626112Y876298D01*
Y868680D01*
Y873758D02*
X631190Y878837D01*
X618494Y883915D02*
X615955Y886454D01*
Y891533D01*
X618494Y894072D01*
X621033D01*
X623573Y891533D01*
Y888993D01*
Y891533D01*
X626112Y894072D01*
X628651D01*
X631190Y891533D01*
Y886454D01*
X628651Y883915D01*
X631190Y909307D02*
Y899150D01*
X621033Y909307D01*
X618494D01*
X615955Y906768D01*
Y901689D01*
X618494Y899150D01*
X678180Y471170D02*
Y486405D01*
X685798D01*
X688337Y483866D01*
Y478787D01*
X685798Y476248D01*
X678180D01*
X683258D02*
X688337Y471170D01*
X693415Y486405D02*
X703572D01*
Y483866D01*
X693415Y473709D01*
Y471170D01*
X708650D02*
X713728D01*
X711189D01*
Y486405D01*
X708650Y483866D01*
X647827Y536321D02*
Y551556D01*
X655444D01*
X657984Y549017D01*
Y543938D01*
X655444Y541399D01*
X647827D01*
X652905D02*
X657984Y536321D01*
X663062Y551556D02*
X673219D01*
Y549017D01*
X663062Y538860D01*
Y536321D01*
X688454D02*
X678297D01*
X688454Y546478D01*
Y549017D01*
X685915Y551556D01*
X680836D01*
X678297Y549017D01*
X671830Y613410D02*
Y628645D01*
X679447D01*
X681987Y626106D01*
Y621027D01*
X679447Y618488D01*
X671830D01*
X676908D02*
X681987Y613410D01*
X687065Y628645D02*
X697222D01*
Y626106D01*
X687065Y615949D01*
Y613410D01*
X702300Y628645D02*
X712457D01*
Y626106D01*
X702300Y615949D01*
Y613410D01*
X646430Y679450D02*
Y694685D01*
X654047D01*
X656587Y692146D01*
Y687067D01*
X654047Y684528D01*
X646430D01*
X651508D02*
X656587Y679450D01*
X661665Y694685D02*
X671822D01*
Y692146D01*
X661665Y681989D01*
Y679450D01*
X676900Y692146D02*
X679439Y694685D01*
X684518D01*
X687057Y692146D01*
Y689607D01*
X684518Y687067D01*
X687057Y684528D01*
Y681989D01*
X684518Y679450D01*
X679439D01*
X676900Y681989D01*
Y684528D01*
X679439Y687067D01*
X676900Y689607D01*
Y692146D01*
X679439Y687067D02*
X684518D01*
X670560Y758190D02*
Y773425D01*
X678177D01*
X680717Y770886D01*
Y765807D01*
X678177Y763268D01*
X670560D01*
X675638D02*
X680717Y758190D01*
X685795Y770886D02*
X688334Y773425D01*
X693413D01*
X695952Y770886D01*
Y768347D01*
X693413Y765807D01*
X695952Y763268D01*
Y760729D01*
X693413Y758190D01*
X688334D01*
X685795Y760729D01*
Y763268D01*
X688334Y765807D01*
X685795Y768347D01*
Y770886D01*
X688334Y765807D02*
X693413D01*
X701030Y770886D02*
X703569Y773425D01*
X708648D01*
X711187Y770886D01*
Y768347D01*
X708648Y765807D01*
X706108D01*
X708648D01*
X711187Y763268D01*
Y760729D01*
X708648Y758190D01*
X703569D01*
X701030Y760729D01*
X692150Y793750D02*
Y808985D01*
X699768D01*
X702307Y806446D01*
Y801367D01*
X699768Y798828D01*
X692150D01*
X697228D02*
X702307Y793750D01*
X707385Y806446D02*
X709924Y808985D01*
X715003D01*
X717542Y806446D01*
Y803907D01*
X715003Y801367D01*
X717542Y798828D01*
Y796289D01*
X715003Y793750D01*
X709924D01*
X707385Y796289D01*
Y798828D01*
X709924Y801367D01*
X707385Y803907D01*
Y806446D01*
X709924Y801367D02*
X715003D01*
X730238Y793750D02*
Y808985D01*
X722620Y801367D01*
X732777D01*
X982980Y617220D02*
X967745D01*
Y624837D01*
X970284Y627377D01*
X975362D01*
X977902Y624837D01*
Y617220D01*
Y622298D02*
X982980Y627377D01*
X980441Y632455D02*
X982980Y634994D01*
Y640073D01*
X980441Y642612D01*
X970284D01*
X967745Y640073D01*
Y634994D01*
X970284Y632455D01*
X972823D01*
X975362Y634994D01*
Y642612D01*
X970284Y647690D02*
X967745Y650229D01*
Y655308D01*
X970284Y657847D01*
X980441D01*
X982980Y655308D01*
Y650229D01*
X980441Y647690D01*
X970284D01*
X927100Y441960D02*
Y457195D01*
X934717D01*
X937257Y454656D01*
Y449577D01*
X934717Y447038D01*
X927100D01*
X932178D02*
X937257Y441960D01*
X942335Y444499D02*
X944874Y441960D01*
X949953D01*
X952492Y444499D01*
Y454656D01*
X949953Y457195D01*
X944874D01*
X942335Y454656D01*
Y452117D01*
X944874Y449577D01*
X952492D01*
X957570Y441960D02*
X962648D01*
X960109D01*
Y457195D01*
X957570Y454656D01*
X916940Y373380D02*
Y388615D01*
X924557D01*
X927097Y386076D01*
Y380998D01*
X924557Y378458D01*
X916940D01*
X922018D02*
X927097Y373380D01*
X932175Y375919D02*
X934714Y373380D01*
X939793D01*
X942332Y375919D01*
Y386076D01*
X939793Y388615D01*
X934714D01*
X932175Y386076D01*
Y383537D01*
X934714Y380998D01*
X942332D01*
X957567Y373380D02*
X947410D01*
X957567Y383537D01*
Y386076D01*
X955028Y388615D01*
X949949D01*
X947410Y386076D01*
X208280Y38100D02*
Y53335D01*
X215898D01*
X218437Y50796D01*
Y45718D01*
X215898Y43178D01*
X208280D01*
X213358D02*
X218437Y38100D01*
X223515Y53335D02*
X233672D01*
X228593D01*
Y38100D01*
X238750D02*
X243829D01*
X241289D01*
Y53335D01*
X238750Y50796D01*
X607060Y552445D02*
X617217D01*
X612138D01*
Y537210D01*
X629913D02*
Y552445D01*
X622295Y544827D01*
X632452D01*
X610870Y693415D02*
X621027D01*
X615948D01*
Y678180D01*
X636262Y693415D02*
X626105D01*
Y685798D01*
X631183Y688337D01*
X633723D01*
X636262Y685798D01*
Y680719D01*
X633723Y678180D01*
X628644D01*
X626105Y680719D01*
X538480Y834385D02*
X548637D01*
X543558D01*
Y819150D01*
X563872Y834385D02*
X558793Y831846D01*
X553715Y826768D01*
Y821689D01*
X556254Y819150D01*
X561333D01*
X563872Y821689D01*
Y824228D01*
X561333Y826768D01*
X553715D01*
X854708Y411761D02*
X842012D01*
X839473Y409222D01*
Y404143D01*
X842012Y401604D01*
X854708D01*
X839473Y396526D02*
Y391448D01*
Y393987D01*
X854708D01*
X852169Y396526D01*
X787400Y1023615D02*
Y1010919D01*
X789939Y1008380D01*
X795017D01*
X797557Y1010919D01*
Y1023615D01*
X812792Y1008380D02*
X802635D01*
X812792Y1018537D01*
Y1021076D01*
X810253Y1023615D01*
X805174D01*
X802635Y1021076D01*
X909320Y562605D02*
Y549909D01*
X911859Y547370D01*
X916937D01*
X919477Y549909D01*
Y562605D01*
X932173Y547370D02*
Y562605D01*
X924555Y554987D01*
X934712D01*
X868680Y850895D02*
Y838199D01*
X871219Y835660D01*
X876298D01*
X878837Y838199D01*
Y850895D01*
X883915Y848356D02*
X886454Y850895D01*
X891533D01*
X894072Y848356D01*
Y845817D01*
X891533Y843278D01*
X894072Y840738D01*
Y838199D01*
X891533Y835660D01*
X886454D01*
X883915Y838199D01*
Y840738D01*
X886454Y843278D01*
X883915Y845817D01*
Y848356D01*
X886454Y843278D02*
X891533D01*
X276860Y53335D02*
Y43178D01*
X281938Y38100D01*
X287017Y43178D01*
Y53335D01*
X292095Y38100D02*
Y48257D01*
X297173Y53335D01*
X302252Y48257D01*
Y38100D01*
Y45718D01*
X292095D01*
X307330Y38100D02*
Y53335D01*
X314948D01*
X317487Y50796D01*
Y45718D01*
X314948Y43178D01*
X307330D01*
X312409D02*
X317487Y38100D01*
X322565D02*
X327644D01*
X325104D01*
Y53335D01*
X322565Y50796D01*
X843280Y891535D02*
X853437Y876300D01*
Y891535D02*
X843280Y876300D01*
X868672D02*
X858515D01*
X868672Y886457D01*
Y888996D01*
X866133Y891535D01*
X861054D01*
X858515Y888996D01*
X405803Y485775D02*
X421038D01*
Y478158D01*
X418499Y475618D01*
X413420D01*
X410881Y478158D01*
Y485775D01*
Y480697D02*
X405803Y475618D01*
X421038Y470540D02*
Y460383D01*
X418499D01*
X408342Y470540D01*
X405803D01*
X418499Y455305D02*
X421038Y452766D01*
Y447687D01*
X418499Y445148D01*
X408342D01*
X405803Y447687D01*
Y452766D01*
X408342Y455305D01*
X418499D01*
X405803Y591185D02*
X421038D01*
Y583568D01*
X418499Y581028D01*
X413420D01*
X410881Y583568D01*
Y591185D01*
Y586107D02*
X405803Y581028D01*
X421038Y575950D02*
Y565793D01*
X418499D01*
X408342Y575950D01*
X405803D01*
X421038Y550558D02*
X418499Y555636D01*
X413420Y560715D01*
X408342D01*
X405803Y558176D01*
Y553097D01*
X408342Y550558D01*
X410881D01*
X413420Y553097D01*
Y560715D01*
X351155Y766483D02*
Y781718D01*
X358773D01*
X361312Y779179D01*
Y774100D01*
X358773Y771561D01*
X351155D01*
X356233D02*
X361312Y766483D01*
X366390Y779179D02*
X368929Y781718D01*
X374008D01*
X376547Y779179D01*
Y776640D01*
X374008Y774100D01*
X376547Y771561D01*
Y769022D01*
X374008Y766483D01*
X368929D01*
X366390Y769022D01*
Y771561D01*
X368929Y774100D01*
X366390Y776640D01*
Y779179D01*
X368929Y774100D02*
X374008D01*
X391782Y766483D02*
X381625D01*
X391782Y776640D01*
Y779179D01*
X389243Y781718D01*
X384164D01*
X381625Y779179D01*
X18158Y961259D02*
X15618Y963798D01*
X10540D01*
X8001Y961259D01*
Y951102D01*
X10540Y948563D01*
X15618D01*
X18158Y951102D01*
X23236Y948563D02*
Y963798D01*
X33393Y948563D01*
Y963798D01*
X46089Y948563D02*
Y963798D01*
X38471Y956180D01*
X48628D01*
X1108710Y763265D02*
Y748030D01*
X1116328D01*
X1118867Y750569D01*
Y760726D01*
X1116328Y763265D01*
X1108710D01*
X1131563Y748030D02*
Y763265D01*
X1123945Y755648D01*
X1134102D01*
X1089660Y833120D02*
X1074425D01*
Y840738D01*
X1076964Y843277D01*
X1082042D01*
X1084582Y840738D01*
Y833120D01*
Y838198D02*
X1089660Y843277D01*
Y858512D02*
Y848355D01*
X1079503Y858512D01*
X1076964D01*
X1074425Y855973D01*
Y850894D01*
X1076964Y848355D01*
X886203Y1072130D02*
X883663Y1074669D01*
X878585D01*
X876046Y1072130D01*
Y1061973D01*
X878585Y1059434D01*
X883663D01*
X886203Y1061973D01*
X901438Y1074669D02*
X896359Y1072130D01*
X891281Y1067051D01*
Y1061973D01*
X893820Y1059434D01*
X898899D01*
X901438Y1061973D01*
Y1064512D01*
X898899Y1067051D01*
X891281D01*
X1122677Y731516D02*
X1120137Y734055D01*
X1115059D01*
X1112520Y731516D01*
Y728977D01*
X1115059Y726438D01*
X1120137D01*
X1122677Y723898D01*
Y721359D01*
X1120137Y718820D01*
X1115059D01*
X1112520Y721359D01*
X1127755Y718820D02*
X1132833D01*
X1130294D01*
Y734055D01*
X1127755Y731516D01*
X1046480Y579120D02*
Y594355D01*
X1054098D01*
X1056637Y591816D01*
Y586738D01*
X1054098Y584198D01*
X1046480D01*
X1051558D02*
X1056637Y579120D01*
X1061715Y591816D02*
X1064254Y594355D01*
X1069333D01*
X1071872Y591816D01*
Y589277D01*
X1069333Y586738D01*
X1066793D01*
X1069333D01*
X1071872Y584198D01*
Y581659D01*
X1069333Y579120D01*
X1064254D01*
X1061715Y581659D01*
X1008380Y617220D02*
X993145D01*
Y624837D01*
X995684Y627377D01*
X1000762D01*
X1003302Y624837D01*
Y617220D01*
Y622298D02*
X1008380Y627377D01*
X993145Y632455D02*
Y642612D01*
X995684D01*
X1005841Y632455D01*
X1008380D01*
Y657860D02*
X993145D01*
Y665478D01*
X995684Y668017D01*
X1000762D01*
X1003302Y665478D01*
Y657860D01*
Y662938D02*
X1008380Y668017D01*
X995684Y673095D02*
X993145Y675634D01*
Y680713D01*
X995684Y683252D01*
X998223D01*
X1000762Y680713D01*
X1003302Y683252D01*
X1005841D01*
X1008380Y680713D01*
Y675634D01*
X1005841Y673095D01*
X1003302D01*
X1000762Y675634D01*
X998223Y673095D01*
X995684D01*
X1000762Y675634D02*
Y680713D01*
X1008380Y693420D02*
X993145D01*
Y701038D01*
X995684Y703577D01*
X1000762D01*
X1003302Y701038D01*
Y693420D01*
Y698498D02*
X1008380Y703577D01*
X1005841Y708655D02*
X1008380Y711194D01*
Y716273D01*
X1005841Y718812D01*
X995684D01*
X993145Y716273D01*
Y711194D01*
X995684Y708655D01*
X998223D01*
X1000762Y711194D01*
Y718812D01*
X560067Y999486D02*
X557528Y1002025D01*
X552449D01*
X549910Y999486D01*
Y989329D01*
X552449Y986790D01*
X557528D01*
X560067Y989329D01*
X565145Y1002025D02*
X575302D01*
Y999486D01*
X565145Y989329D01*
Y986790D01*
X562607Y1021076D02*
X560067Y1023615D01*
X554989D01*
X552450Y1021076D01*
Y1010919D01*
X554989Y1008380D01*
X560067D01*
X562607Y1010919D01*
X567685Y1021076D02*
X570224Y1023615D01*
X575303D01*
X577842Y1021076D01*
Y1018537D01*
X575303Y1015997D01*
X577842Y1013458D01*
Y1010919D01*
X575303Y1008380D01*
X570224D01*
X567685Y1010919D01*
Y1013458D01*
X570224Y1015997D01*
X567685Y1018537D01*
Y1021076D01*
X570224Y1015997D02*
X575303D01*
D49*
X828040Y970753D02*
X828992Y971230D01*
X830420Y972658D01*
Y962660D01*
X845827Y901974D02*
X846303D01*
X847256Y901498D01*
X847732Y901022D01*
X848208Y900070D01*
Y898165D01*
X847732Y897213D01*
X847256Y896737D01*
X846303Y896261D01*
X845351D01*
X844399Y896737D01*
X842971Y897689D01*
X838210Y902450D01*
Y895785D01*
X868112Y901498D02*
Y896261D01*
X864303Y899117D01*
Y897689D01*
X863827Y896737D01*
X863351Y896261D01*
X861923Y895785D01*
X860971D01*
X859542Y896261D01*
X858590Y897213D01*
X858114Y898641D01*
Y900070D01*
X858590Y901498D01*
X859066Y901974D01*
X860018Y902450D01*
X883758Y962979D02*
X877093Y967740D01*
Y960599D01*
X883758Y962979D02*
X873760D01*
D50*
X968850Y312420D02*
D03*
M02*
