%FSLAX44Y44*%
%MOMM*%
G71*
G01*
G75*
G04 Layer_Color=8388736*
%ADD10C,1.0000*%
%ADD11R,1.2000X1.0000*%
%ADD12R,1.0000X1.2000*%
%ADD13R,0.8000X0.8000*%
%ADD14R,0.8000X0.8000*%
%ADD15R,1.3000X1.6000*%
%ADD16O,2.5400X0.6096*%
%ADD17O,2.0000X0.6100*%
%ADD18O,2.0000X0.6096*%
%ADD19O,2.5400X0.6100*%
%ADD20R,2.8000X2.3000*%
%ADD21R,0.7000X1.2000*%
%ADD22R,1.2000X0.8000*%
%ADD23C,1.0000*%
%ADD24C,0.4064*%
%ADD25C,1.2700*%
%ADD26C,0.7620*%
%ADD27C,0.3810*%
%ADD28C,0.5080*%
%ADD29C,1.0160*%
%ADD30C,0.5000*%
%ADD31C,2.0000*%
%ADD32R,2.0000X2.0000*%
%ADD33C,1.5000*%
%ADD34C,1.6000*%
%ADD35C,2.7000*%
%ADD36C,1.8000*%
%ADD37R,2.5000X2.5000*%
%ADD38C,2.5000*%
%ADD39R,2.7000X2.7000*%
%ADD40C,2.8000*%
%ADD41R,1.8000X1.8000*%
%ADD42R,1.5000X1.5000*%
%ADD43C,0.6096*%
%ADD44C,0.9144*%
%ADD45C,0.2000*%
%ADD46C,0.6000*%
%ADD47C,0.2500*%
%ADD48C,0.2540*%
%ADD49C,0.1000*%
%ADD50R,0.3500X4.4000*%
%ADD51C,1.5000*%
%ADD52R,1.4032X1.2032*%
%ADD53R,1.2032X1.4032*%
%ADD54R,1.0032X1.0032*%
%ADD55R,1.0032X1.0032*%
%ADD56R,1.5032X1.8032*%
%ADD57O,2.7432X0.8128*%
%ADD58O,2.2032X0.8132*%
%ADD59O,2.2032X0.8128*%
%ADD60O,2.7432X0.8132*%
%ADD61R,3.0032X2.5032*%
%ADD62R,0.9032X1.4032*%
%ADD63R,1.4032X1.0032*%
%ADD64C,1.2032*%
%ADD65C,2.2032*%
%ADD66R,2.2032X2.2032*%
%ADD67C,1.7032*%
%ADD68C,1.8032*%
%ADD69C,2.9032*%
%ADD70C,2.0032*%
%ADD71R,2.7032X2.7032*%
%ADD72C,2.7032*%
%ADD73R,2.9032X2.9032*%
%ADD74C,3.0032*%
%ADD75R,2.0032X2.0032*%
%ADD76R,1.7032X1.7032*%
D30*
X138000Y400D02*
Y130400D01*
X500D02*
X138000D01*
X500D02*
Y990400D01*
X500Y990400D01*
X138000D01*
X138000Y990400D01*
Y1122900D01*
X138000Y1122900D01*
X1138000D01*
X1138000Y1122900D01*
Y400D02*
Y1122900D01*
X1138000Y400D02*
X1138000Y400D01*
X138000Y400D02*
X1138000D01*
D51*
X1070570Y100330D02*
G03*
X1070570Y100330I-2500J0D01*
G01*
X220940Y1099820D02*
G03*
X220940Y1099820I-2500J0D01*
G01*
D52*
X998220Y760120D02*
D03*
Y779120D02*
D03*
X845820Y234340D02*
D03*
Y253340D02*
D03*
X1018540Y760120D02*
D03*
Y779120D02*
D03*
X1038860Y760120D02*
D03*
Y779120D02*
D03*
X627380Y977240D02*
D03*
Y958240D02*
D03*
X647700Y977240D02*
D03*
Y958240D02*
D03*
X665480Y836320D02*
D03*
Y855320D02*
D03*
X645160Y836320D02*
D03*
Y855320D02*
D03*
X890270Y915060D02*
D03*
Y934060D02*
D03*
X676910Y501040D02*
D03*
Y520040D02*
D03*
Y647090D02*
D03*
Y666090D02*
D03*
X678180Y789940D02*
D03*
Y808940D02*
D03*
X1003300Y560680D02*
D03*
Y541680D02*
D03*
X624840Y836320D02*
D03*
Y855320D02*
D03*
X655320Y481940D02*
D03*
Y462940D02*
D03*
Y520040D02*
D03*
Y501040D02*
D03*
Y627990D02*
D03*
Y608990D02*
D03*
Y666090D02*
D03*
Y647090D02*
D03*
Y767690D02*
D03*
Y748690D02*
D03*
Y808330D02*
D03*
Y789330D02*
D03*
X1082040Y819760D02*
D03*
Y800760D02*
D03*
X866140Y584860D02*
D03*
Y603860D02*
D03*
D53*
X723240Y1013460D02*
D03*
X704240D02*
D03*
X742340D02*
D03*
X761340D02*
D03*
X843940Y976630D02*
D03*
X862940D02*
D03*
X310540Y896620D02*
D03*
X211430Y660400D02*
D03*
X192430D02*
D03*
X211430Y711200D02*
D03*
X192430D02*
D03*
X310540Y918972D02*
D03*
Y941324D02*
D03*
X211430Y762000D02*
D03*
X192430D02*
D03*
X211430Y812800D02*
D03*
X192430D02*
D03*
X310540Y963676D02*
D03*
Y986028D02*
D03*
X608990Y1036320D02*
D03*
X627990D02*
D03*
X211430Y863600D02*
D03*
X192430D02*
D03*
X627990Y1056640D02*
D03*
X608990D02*
D03*
X211430Y914400D02*
D03*
X192430D02*
D03*
X310540Y1008380D02*
D03*
X992480Y449580D02*
D03*
X973480D02*
D03*
Y378460D02*
D03*
X992480D02*
D03*
X391770Y1041400D02*
D03*
Y1007872D02*
D03*
Y974344D02*
D03*
X372770D02*
D03*
X391770Y940816D02*
D03*
X372770D02*
D03*
X391770Y907288D02*
D03*
X372770D02*
D03*
X391770Y873760D02*
D03*
X372770D02*
D03*
X329540Y918972D02*
D03*
Y896620D02*
D03*
Y963676D02*
D03*
Y941324D02*
D03*
Y1008380D02*
D03*
Y986028D02*
D03*
X372770Y1041400D02*
D03*
Y1007872D02*
D03*
X608940Y1016000D02*
D03*
X589940D02*
D03*
X608940Y995680D02*
D03*
X589940D02*
D03*
D54*
X1011540Y1010920D02*
D03*
X1025540D02*
D03*
X1011540Y985520D02*
D03*
X1025540D02*
D03*
X1033160Y586740D02*
D03*
X1019160D02*
D03*
D55*
X1028700Y923940D02*
D03*
Y909940D02*
D03*
X985520Y606440D02*
D03*
Y592440D02*
D03*
X1018540Y624220D02*
D03*
Y610220D02*
D03*
Y694040D02*
D03*
Y708040D02*
D03*
Y650860D02*
D03*
Y664860D02*
D03*
D56*
X866210Y914450D02*
D03*
X843210D02*
D03*
Y952450D02*
D03*
X866210D02*
D03*
D57*
X864870Y815340D02*
D03*
X967994D02*
D03*
Y802640D02*
D03*
Y789940D02*
D03*
Y777240D02*
D03*
Y764540D02*
D03*
Y751840D02*
D03*
Y739140D02*
D03*
Y726440D02*
D03*
X864870D02*
D03*
Y739140D02*
D03*
Y751840D02*
D03*
Y764540D02*
D03*
Y777240D02*
D03*
Y789940D02*
D03*
Y802640D02*
D03*
Y713740D02*
D03*
X967994D02*
D03*
X697230Y994410D02*
D03*
Y956310D02*
D03*
Y969010D02*
D03*
Y981710D02*
D03*
Y867410D02*
D03*
Y854710D02*
D03*
Y892810D02*
D03*
Y880110D02*
D03*
Y918210D02*
D03*
Y905510D02*
D03*
Y943610D02*
D03*
Y930910D02*
D03*
D58*
X893770Y576580D02*
D03*
X953770Y589280D02*
D03*
D59*
X893770Y614680D02*
D03*
X953770D02*
D03*
Y601980D02*
D03*
Y576580D02*
D03*
X893770Y601980D02*
D03*
Y589280D02*
D03*
D60*
X800350Y994410D02*
D03*
Y981710D02*
D03*
Y969010D02*
D03*
Y956310D02*
D03*
Y943610D02*
D03*
Y930910D02*
D03*
Y918210D02*
D03*
Y905510D02*
D03*
Y892810D02*
D03*
Y854710D02*
D03*
Y867410D02*
D03*
Y880110D02*
D03*
D61*
X903100Y312420D02*
D03*
X951100D02*
D03*
D62*
X590550Y833550D02*
D03*
X600050Y855550D02*
D03*
X581050D02*
D03*
D63*
X970979Y414021D02*
D03*
X992979Y423521D02*
D03*
Y404521D02*
D03*
D64*
X1068070Y100330D02*
D03*
X218440Y1099820D02*
D03*
D65*
X459740Y582930D02*
D03*
X624740D02*
D03*
Y654930D02*
D03*
X459740Y438150D02*
D03*
X624740D02*
D03*
Y510150D02*
D03*
X372110Y462280D02*
D03*
X322110D02*
D03*
X372110Y567690D02*
D03*
X322110D02*
D03*
X374650Y732790D02*
D03*
Y682790D02*
D03*
X459740Y726440D02*
D03*
X624740D02*
D03*
Y798440D02*
D03*
D66*
X459740Y654930D02*
D03*
Y510150D02*
D03*
Y798440D02*
D03*
D67*
X1082040Y777240D02*
D03*
X1042670Y693420D02*
D03*
Y668020D02*
D03*
Y642620D02*
D03*
Y617220D02*
D03*
X1118870Y693420D02*
D03*
Y668020D02*
D03*
Y642620D02*
D03*
D68*
X1082040Y751840D02*
D03*
D69*
X106680Y711200D02*
D03*
Y660400D02*
D03*
Y812800D02*
D03*
Y762000D02*
D03*
Y914400D02*
D03*
Y863600D02*
D03*
X1036320Y491490D02*
D03*
Y440690D02*
D03*
Y389890D02*
D03*
D70*
X312420Y181680D02*
D03*
X287020Y106680D02*
D03*
X228600Y138900D02*
D03*
Y88900D02*
D03*
Y190500D02*
D03*
Y241300D02*
D03*
X1059180Y934720D02*
D03*
Y960120D02*
D03*
Y985520D02*
D03*
Y1010920D02*
D03*
X946620Y220980D02*
D03*
X896620D02*
D03*
X924560Y975360D02*
D03*
Y1025360D02*
D03*
D71*
X384940Y358040D02*
D03*
D72*
Y233040D02*
D03*
Y108040D02*
D03*
X789940Y233040D02*
D03*
Y273040D02*
D03*
Y313040D02*
D03*
Y193040D02*
D03*
Y153040D02*
D03*
D73*
X1036320Y542290D02*
D03*
D74*
X106680Y528320D02*
D03*
Y452120D02*
D03*
Y223520D02*
D03*
Y299720D02*
D03*
Y375920D02*
D03*
D75*
X1059180Y909320D02*
D03*
D76*
X1118870Y617220D02*
D03*
M02*
