M48
;Layer_Color=9474304
;FILE_FORMAT=4:4
METRIC,LZ
;TYPE=PLATED
T1F00S00C0.3048
T2F00S00C0.4572
T3F00S00C0.8000
T4F00S00C0.9000
T5F00S00C1.0000
T6F00S00C1.2000
T7F00S00C1.3000
T8F00S00C1.5000
T9F00S00C1.6000
%
T01
X006494Y000962
X007002
X00751
X008018
X008526
X009034
X009542
X009796
Y00147
X009542
Y001978
X009796
Y002486
X009542Y00274
X009288
Y002232
X009034Y001978
X00878
X008272
X008018Y001724
Y00147
X008526
X009034
X008526Y002232
X00878Y00274
X008526Y003248
Y003502
X0085006Y0037306
X008145Y0038576
X0079672Y004137
X0077386Y004264
X00751Y003756
X007002
Y004264
Y004772
X008018Y005026
X008526
X009796
Y004518
Y00401
Y003502
Y002994
X009288Y003248
X009034Y003756
X00878Y003502
X0073576Y0029432
X007002Y0030956
X0071036Y0020796
X0073576
X00751Y0013684
X007002
X006494Y003756
Y004264
Y004772
X005986Y004518
X005732
X005478
X005224
X00497Y005026
X005986
X005732Y004772
X0008933Y006804
X000906Y007312
Y00782
X00116
X0008806Y008328
Y008836
X000144
Y008582
Y008328
Y00782
Y007566
Y007312
Y006804
X-000872
Y007058
Y007312
Y007566
Y00782
Y008074
Y008328
Y008582
Y008836
Y00909
X001668Y008836
X0019982
X001922Y008582
X001668Y008328
X0021506Y0091408
X0026967Y0089376
X003192Y0088868
X0037
X004208
X0043858Y0085312
X005478Y008582
X0055288Y0084296
X005478Y00782
Y007566
Y007058
X00497
Y00655
Y006296
X005478Y006042
X005986
Y005534
X005732Y005788
X005224
X006494
Y006296
Y006804
Y007312
X0067734Y007439
X0068496Y0078708
X006621
X006494Y00782
Y008328
Y008582
X0063162
X00624Y00909
X005986
Y008836
Y008074
Y007566
Y007058
Y00655
X005224Y007312
X00497Y00782
X0053129Y0089249
X006494Y00528
X007002
Y005788
Y006296
Y00655
X0074084
X0079672Y0066516
X0082212
X0081704Y0070072
X0078656
X0076878Y0074898
X0079672Y0075914
X008018Y0077184
X0080942Y0080994
X007764Y0081248
X0074846Y0082264
X0076624Y0085058
X0079418Y008709
X007764Y00909
X00751
X007002Y008836
Y008582
X0069766Y0083534
X0076116Y00782
X0086022Y0076422
X0088308Y0075152
X0092372Y0073882
X0093515Y0074009
X0092118Y0082264
X0089959Y0081502
X0088054
X0086022
X008526Y0083534
X00982Y0083
Y0089
X009415Y0088487
X009796Y006042
Y005534
X008018
X008272Y00528
X0069512Y0070072
X00692Y0101
X0076116Y010106
X0081196
X007764Y009598
X008018Y010868
X008526
X009034
X009542
X00982Y0106
Y0094
X00751Y010868
X007002
X006494
X005986
X005478
X00497
Y01036
X005224
X005097Y0101314
X0048938
X004208Y01036
X003954Y010614
Y010868
X004208
X0037
X003446
Y010614
X003192Y01036
X0037
X003954Y010106
X0037Y009852
X004208
X0031412Y009725
X0032682Y009598
X0030142Y0093186
X002938Y010868
X003192
X0061892Y010106
X0064051Y0101441
Y0100171
Y0098901
Y0097631
X0060368Y0099028
X0061384Y009471
X0062908Y0092932
X002684Y0092678
X0027602Y0094456
X0026967Y0096107
X002684Y0099409
X0025316Y010106
X0021506Y0100298
Y009725
X0021252Y009471
X0023538Y0094456
X0014902Y0099282
X0011854Y0098012
X00116Y01036
X000906Y010614
Y010868
X00116
X001414
X001668
Y010614
X001922Y010868
X002176
X00243
X002684
X0027475Y010614
X000652
Y010868
Y01036
Y010106
Y009852
X000398
X000144Y009598
Y009344
X0007282Y0095218
X-000872Y009598
Y009344
T02
X0095928Y0048482
X0047414Y0084296
X0091102Y007566
X0096944
X0095928Y0059404
X004716Y0097885
T03
X0094404Y0077184
Y0079724
T04
X0090467Y0063722
Y0066262
Y0068802
Y0071342
X0098087
Y0068802
Y0066262
Y0063722
T05
X000906Y001089
X0075862Y0024098
X0080862
X0017442Y0020168
X000906Y002105
Y002613
Y001589
X0014902Y0012668
X0078656Y0099536
Y0104536
X0093749Y0101786
Y0097286
T06
X0032174Y0045815
X0048674
X0023411Y0048228
X0018411
Y0058769
X0023411
X0023665Y0070279
Y0075279
X0032174Y0074644
Y0067493
Y0060293
Y0053015
X0048674
Y0060293
Y0067493
Y0074644
Y0081844
X0032174
X0086657Y0091662
Y0094202
Y0096742
Y0099282
Y0101822
T07
X0091249Y0096036
Y0103036
T08
X0089832Y0040989
Y0046069
Y0051149
X0065194Y0033304
Y0029304
Y0025304
Y0021304
Y0017304
X0024694Y0012804
Y0025304
Y0037804
X-0003132Y006804
Y007312
Y00782
Y008328
Y008836
X0089832Y0056229
X-0003132Y009344
T09
X-0003132Y0024352
Y0031972
Y0039592
Y0047212
Y0054832
M30
