%FSLAX25Y25*%
%MOIN*%
G70*
G01*
G75*
G04 Layer_Color=8421504*
%ADD10C,0.03937*%
%ADD11R,0.03937X0.04724*%
%ADD12C,0.03937*%
%ADD13O,0.07874X0.02400*%
%ADD14R,0.04724X0.03150*%
%ADD15R,0.04724X0.03937*%
%ADD16R,0.02756X0.04724*%
%ADD17R,0.11024X0.09055*%
%ADD18R,0.03150X0.03150*%
%ADD19O,0.10000X0.02400*%
%ADD20O,0.10000X0.02402*%
%ADD21O,0.07874X0.02402*%
%ADD22R,0.05118X0.06299*%
%ADD23C,0.03000*%
%ADD24C,0.02000*%
%ADD25C,0.01500*%
%ADD26C,0.04000*%
%ADD27C,0.01600*%
%ADD28C,0.05000*%
%ADD29C,0.01969*%
%ADD30C,0.07087*%
%ADD31C,0.08661*%
%ADD32R,0.05906X0.05906*%
%ADD33C,0.05906*%
%ADD34C,0.10630*%
%ADD35R,0.07087X0.07087*%
%ADD36C,0.11024*%
%ADD37R,0.10630X0.10630*%
%ADD38C,0.07874*%
%ADD39R,0.07874X0.07874*%
%ADD40C,0.09843*%
%ADD41R,0.09843X0.09843*%
%ADD42C,0.06299*%
%ADD43C,0.02400*%
%ADD44C,0.03600*%
%ADD45C,0.00787*%
%ADD46C,0.00984*%
%ADD47C,0.02362*%
%ADD48C,0.01000*%
%ADD49C,0.00394*%
%ADD50R,0.01378X0.17323*%
D11*
X348410Y413374D02*
D03*
X340929D02*
D03*
X177929Y399874D02*
D03*
X185409D02*
D03*
X177929Y407874D02*
D03*
X185409D02*
D03*
X92429Y404674D02*
D03*
Y417874D02*
D03*
X75410Y396074D02*
D03*
Y404874D02*
D03*
Y378474D02*
D03*
Y387274D02*
D03*
Y360874D02*
D03*
Y369674D02*
D03*
X92429Y351874D02*
D03*
X99910D02*
D03*
X92429Y365074D02*
D03*
X99910D02*
D03*
X92429Y378274D02*
D03*
X99910D02*
D03*
X92429Y391474D02*
D03*
X99910D02*
D03*
Y404674D02*
D03*
Y417874D02*
D03*
X336409Y156874D02*
D03*
X328929D02*
D03*
Y184874D02*
D03*
X336409D02*
D03*
X67929Y404874D02*
D03*
X21429Y367874D02*
D03*
X28910D02*
D03*
X185429Y423874D02*
D03*
X192910D02*
D03*
X21429Y347874D02*
D03*
X28910D02*
D03*
X192910Y415874D02*
D03*
X185429D02*
D03*
X67929Y396074D02*
D03*
Y387274D02*
D03*
X21429Y327874D02*
D03*
X28910D02*
D03*
X21429Y307874D02*
D03*
X28910D02*
D03*
X67929Y378474D02*
D03*
Y369674D02*
D03*
X21429Y287874D02*
D03*
X28910D02*
D03*
X21429Y267874D02*
D03*
X28910D02*
D03*
X67929Y360874D02*
D03*
X285409Y392374D02*
D03*
X277929D02*
D03*
X245409Y406874D02*
D03*
X237929D02*
D03*
X222929D02*
D03*
X230410D02*
D03*
X345929Y238374D02*
D03*
X353410D02*
D03*
X361910Y348874D02*
D03*
X354429D02*
D03*
X361910Y366374D02*
D03*
X354429D02*
D03*
X361910Y357374D02*
D03*
X354429D02*
D03*
D12*
X31669Y440874D02*
D03*
X366169Y47374D02*
D03*
D13*
X297547Y239874D02*
D03*
Y244874D02*
D03*
X321169Y234874D02*
D03*
Y244874D02*
D03*
Y249874D02*
D03*
X297547D02*
D03*
D14*
X336606Y167134D02*
D03*
Y174615D02*
D03*
X327945Y170874D02*
D03*
D15*
X286669Y245614D02*
D03*
Y238134D02*
D03*
X371669Y325134D02*
D03*
Y332614D02*
D03*
X203669Y318634D02*
D03*
Y326114D02*
D03*
Y302634D02*
D03*
Y310114D02*
D03*
Y262634D02*
D03*
Y270114D02*
D03*
Y247634D02*
D03*
Y255114D02*
D03*
Y205134D02*
D03*
Y212614D02*
D03*
Y190134D02*
D03*
Y197614D02*
D03*
X191669Y344614D02*
D03*
Y337134D02*
D03*
X340669Y221134D02*
D03*
Y228614D02*
D03*
X212669Y326354D02*
D03*
Y318874D02*
D03*
X212169Y270114D02*
D03*
Y262634D02*
D03*
Y212614D02*
D03*
Y205134D02*
D03*
X296169Y375614D02*
D03*
Y368134D02*
D03*
X199669Y344614D02*
D03*
Y337134D02*
D03*
X207669Y344614D02*
D03*
Y337134D02*
D03*
X200669Y385134D02*
D03*
Y392614D02*
D03*
X192669Y385134D02*
D03*
Y392614D02*
D03*
X354669Y314614D02*
D03*
Y307134D02*
D03*
X346669Y314614D02*
D03*
Y307134D02*
D03*
X278669Y107614D02*
D03*
Y100134D02*
D03*
X338669Y314614D02*
D03*
Y307134D02*
D03*
X345669Y247134D02*
D03*
Y254614D02*
D03*
Y270614D02*
D03*
Y263134D02*
D03*
Y287614D02*
D03*
Y280134D02*
D03*
D16*
X174429Y344705D02*
D03*
X181910D02*
D03*
X178169Y336043D02*
D03*
D17*
X320118Y130874D02*
D03*
X301221D02*
D03*
D18*
X332669Y241130D02*
D03*
Y235618D02*
D03*
D19*
X220169Y374374D02*
D03*
Y379374D02*
D03*
Y364374D02*
D03*
Y369374D02*
D03*
Y354374D02*
D03*
Y359374D02*
D03*
Y344374D02*
D03*
Y349374D02*
D03*
Y394374D02*
D03*
Y389374D02*
D03*
Y384374D02*
D03*
Y399374D02*
D03*
X326769Y288874D02*
D03*
X286169D02*
D03*
Y323874D02*
D03*
Y318874D02*
D03*
Y313874D02*
D03*
Y308874D02*
D03*
Y303874D02*
D03*
Y298874D02*
D03*
Y293874D02*
D03*
X326769D02*
D03*
Y298874D02*
D03*
Y303874D02*
D03*
Y308874D02*
D03*
Y313874D02*
D03*
Y318874D02*
D03*
Y323874D02*
D03*
Y328874D02*
D03*
X286169D02*
D03*
D20*
X260768Y354374D02*
D03*
Y349374D02*
D03*
Y344374D02*
D03*
Y359374D02*
D03*
Y364374D02*
D03*
Y369374D02*
D03*
Y374374D02*
D03*
Y379374D02*
D03*
Y384374D02*
D03*
Y389374D02*
D03*
Y394374D02*
D03*
Y399374D02*
D03*
D21*
X321169Y239874D02*
D03*
X297547Y234874D02*
D03*
D22*
X286697Y382854D02*
D03*
X277642D02*
D03*
Y367894D02*
D03*
X286697D02*
D03*
D29*
X0Y0D02*
X393701D01*
Y453150D01*
X0D02*
X393701D01*
X0Y397795D02*
Y453150D01*
X0Y397796D02*
X0Y397795D01*
X-54134Y397796D02*
X0D01*
X-54134Y397796D02*
X-54134Y397796D01*
X-54134Y59213D02*
Y397796D01*
Y59213D02*
X0D01*
Y0D02*
Y59213D01*
M02*
