%FSLAX44Y44*%
%MOMM*%
G71*
G01*
G75*
%ADD10C,1.0000*%
%ADD11R,1.2000X1.0000*%
%ADD12R,1.0000X1.2000*%
%ADD13R,0.8000X0.8000*%
%ADD14R,0.8000X0.8000*%
%ADD15R,1.3000X1.6000*%
%ADD16O,2.5400X0.6096*%
%ADD17O,2.0000X0.6100*%
%ADD18O,2.0000X0.6096*%
%ADD19O,2.5400X0.6100*%
%ADD20R,2.8000X2.3000*%
%ADD21R,0.7000X1.2000*%
%ADD22R,1.2000X0.8000*%
%ADD23C,1.0000*%
%ADD24C,0.4064*%
%ADD25C,1.2700*%
%ADD26C,0.7620*%
%ADD27C,0.3810*%
%ADD28C,0.5080*%
%ADD29C,1.0160*%
%ADD30C,0.5000*%
%ADD31C,2.0000*%
%ADD32R,2.0000X2.0000*%
%ADD33C,1.5000*%
%ADD34C,1.6000*%
%ADD35C,2.7000*%
%ADD36C,1.8000*%
%ADD37R,2.5000X2.5000*%
%ADD38C,2.5000*%
%ADD39R,2.7000X2.7000*%
%ADD40C,2.8000*%
%ADD41R,1.8000X1.8000*%
%ADD42R,1.5000X1.5000*%
%ADD43C,0.6096*%
%ADD44C,0.9144*%
%ADD45C,0.2000*%
%ADD46C,0.6000*%
%ADD47C,0.2500*%
%ADD48C,0.2540*%
%ADD49C,0.1000*%
%ADD50R,0.3500X4.4000*%
%ADD51C,1.5000*%
%ADD52R,1.4032X1.2032*%
%ADD53R,1.2032X1.4032*%
%ADD54R,1.0032X1.0032*%
%ADD55R,1.0032X1.0032*%
%ADD56R,1.5032X1.8032*%
%ADD57O,2.7432X0.8128*%
%ADD58O,2.2032X0.8132*%
%ADD59O,2.2032X0.8128*%
%ADD60O,2.7432X0.8132*%
%ADD61R,3.0032X2.5032*%
%ADD62R,0.9032X1.4032*%
%ADD63R,1.4032X1.0032*%
%ADD64C,1.2032*%
%ADD65C,2.2032*%
%ADD66R,2.2032X2.2032*%
%ADD67C,1.7032*%
%ADD68C,1.8032*%
%ADD69C,2.9032*%
%ADD70C,2.0032*%
%ADD71R,2.7032X2.7032*%
%ADD72C,2.7032*%
%ADD73R,2.9032X2.9032*%
%ADD74C,3.0032*%
%ADD75R,2.0032X2.0032*%
%ADD76R,1.7032X1.7032*%
%ADD77C,0.4000*%
%ADD78C,0.1270*%
D30*
X138000Y400D02*
Y130400D01*
X500D02*
X138000D01*
X500D02*
Y990400D01*
X500Y990400D01*
X138000D01*
X138000Y990400D01*
Y1122900D01*
X138000Y1122900D01*
X1138000D01*
X1138000Y1122900D01*
Y400D02*
Y1122900D01*
X1138000Y400D02*
X1138000Y400D01*
X138000Y400D02*
X1138000D01*
D78*
X453740Y582930D02*
X465740D01*
X459740Y576930D02*
Y588930D01*
X618740Y582930D02*
X630740D01*
X624740Y576930D02*
Y588930D01*
X453740Y654930D02*
X465740D01*
X459740Y648930D02*
Y660930D01*
X618740Y654930D02*
X630740D01*
X624740Y648930D02*
Y660930D01*
X453740Y438150D02*
X465740D01*
X459740Y432150D02*
Y444150D01*
X618740Y438150D02*
X630740D01*
X624740Y432150D02*
Y444150D01*
X453740Y510150D02*
X465740D01*
X459740Y504150D02*
Y516150D01*
X618740Y510150D02*
X630740D01*
X624740Y504150D02*
Y516150D01*
X366110Y462280D02*
X378110D01*
X372110Y456280D02*
Y468280D01*
X316110Y462280D02*
X328110D01*
X322110Y456280D02*
Y468280D01*
X366110Y567690D02*
X378110D01*
X372110Y561690D02*
Y573690D01*
X316110Y567690D02*
X328110D01*
X322110Y561690D02*
Y573690D01*
X1078040Y777240D02*
X1086040D01*
X1082040Y773240D02*
Y781240D01*
X1078040Y751840D02*
X1086040D01*
X1082040Y747840D02*
Y755840D01*
X99180Y711200D02*
X114180D01*
X106680Y703700D02*
Y718700D01*
X99180Y660400D02*
X114180D01*
X106680Y652900D02*
Y667900D01*
X99180Y812800D02*
X114180D01*
X106680Y805300D02*
Y820300D01*
X99180Y762000D02*
X114180D01*
X106680Y754500D02*
Y769500D01*
X99180Y914400D02*
X114180D01*
X106680Y906900D02*
Y921900D01*
X99180Y863600D02*
X114180D01*
X106680Y856100D02*
Y871100D01*
X368650Y732790D02*
X380650D01*
X374650Y726790D02*
Y738790D01*
X368650Y682790D02*
X380650D01*
X374650Y676790D02*
Y688790D01*
X307420Y181680D02*
X317420D01*
X312420Y176680D02*
Y186680D01*
X282020Y106680D02*
X292020D01*
X287020Y101680D02*
Y111680D01*
X377440Y358040D02*
X392440D01*
X384940Y350540D02*
Y365540D01*
X377440Y233040D02*
X392440D01*
X384940Y225540D02*
Y240540D01*
X377440Y108040D02*
X392440D01*
X384940Y100540D02*
Y115540D01*
X782440Y233040D02*
X797440D01*
X789940Y225540D02*
Y240540D01*
X782440Y273040D02*
X797440D01*
X789940Y265540D02*
Y280540D01*
X782440Y313040D02*
X797440D01*
X789940Y305540D02*
Y320540D01*
X782440Y193040D02*
X797440D01*
X789940Y185540D02*
Y200540D01*
X782440Y153040D02*
X797440D01*
X789940Y145540D02*
Y160540D01*
X453740Y726440D02*
X465740D01*
X459740Y720440D02*
Y732440D01*
X618740Y726440D02*
X630740D01*
X624740Y720440D02*
Y732440D01*
X453740Y798440D02*
X465740D01*
X459740Y792440D02*
Y804440D01*
X618740Y798440D02*
X630740D01*
X624740Y792440D02*
Y804440D01*
X223600Y138900D02*
X233600D01*
X228600Y133900D02*
Y143900D01*
X223600Y88900D02*
X233600D01*
X228600Y83900D02*
Y93900D01*
X223600Y190500D02*
X233600D01*
X228600Y185500D02*
Y195500D01*
X223600Y241300D02*
X233600D01*
X228600Y236300D02*
Y246300D01*
X1028820Y491490D02*
X1043820D01*
X1036320Y483990D02*
Y498990D01*
X1028820Y542290D02*
X1043820D01*
X1036320Y534790D02*
Y549790D01*
X98680Y528320D02*
X114680D01*
X106680Y520320D02*
Y536320D01*
X98680Y452120D02*
X114680D01*
X106680Y444120D02*
Y460120D01*
X98680Y223520D02*
X114680D01*
X106680Y215520D02*
Y231520D01*
X98680Y299720D02*
X114680D01*
X106680Y291720D02*
Y307720D01*
X98680Y375920D02*
X114680D01*
X106680Y367920D02*
Y383920D01*
X1053180Y934720D02*
X1065180D01*
X1059180Y928720D02*
Y940720D01*
X1053180Y960120D02*
X1065180D01*
X1059180Y954120D02*
Y966120D01*
X1053180Y985520D02*
X1065180D01*
X1059180Y979520D02*
Y991520D01*
X1053180Y909320D02*
X1065180D01*
X1059180Y903320D02*
Y915320D01*
X1053180Y1010920D02*
X1065180D01*
X1059180Y1004920D02*
Y1016920D01*
X941620Y220980D02*
X951620D01*
X946620Y215980D02*
Y225980D01*
X891620Y220980D02*
X901620D01*
X896620Y215980D02*
Y225980D01*
X919560Y975360D02*
X929560D01*
X924560Y970360D02*
Y980360D01*
X919560Y1025360D02*
X929560D01*
X924560Y1020360D02*
Y1030360D01*
X1028820Y440690D02*
X1043820D01*
X1036320Y433190D02*
Y448190D01*
X1028820Y389890D02*
X1043820D01*
X1036320Y382390D02*
Y397390D01*
X1038170Y693420D02*
X1047170D01*
X1042670Y688920D02*
Y697920D01*
X1038170Y668020D02*
X1047170D01*
X1042670Y663520D02*
Y672520D01*
X1038170Y642620D02*
X1047170D01*
X1042670Y638120D02*
Y647120D01*
X1038170Y617220D02*
X1047170D01*
X1042670Y612720D02*
Y621720D01*
X1114370Y693420D02*
X1123370D01*
X1118870Y688920D02*
Y697920D01*
X1114370Y668020D02*
X1123370D01*
X1118870Y663520D02*
Y672520D01*
X1114370Y642620D02*
X1123370D01*
X1118870Y638120D02*
Y647120D01*
X1114370Y617220D02*
X1123370D01*
X1118870Y612720D02*
Y621720D01*
X776986Y956310D02*
X780034D01*
X778510Y954786D02*
Y957834D01*
X776986Y969010D02*
X780034D01*
X778510Y967486D02*
Y970534D01*
X776986Y981710D02*
X780034D01*
X778510Y980186D02*
Y983234D01*
X798576Y767080D02*
X801624D01*
X800100Y765556D02*
Y768604D01*
X776986Y994410D02*
X780034D01*
X778510Y992886D02*
Y995934D01*
X813816Y723900D02*
X816864D01*
X815340Y722376D02*
Y725424D01*
X912876Y792480D02*
X915924D01*
X914400Y790956D02*
Y794004D01*
X902716Y830580D02*
X905764D01*
X904240Y829056D02*
Y832104D01*
X945896Y789940D02*
X948944D01*
X947420Y788416D02*
Y791464D01*
X834136Y815340D02*
X837184D01*
X835660Y813816D02*
Y816864D01*
X989076Y815340D02*
X992124D01*
X990600Y813816D02*
Y816864D01*
X996696Y744220D02*
X999744D01*
X998220Y742696D02*
Y745744D01*
X905256Y728980D02*
X908304D01*
X906780Y727456D02*
Y730504D01*
X938276Y751840D02*
X941324D01*
X939800Y750316D02*
Y753364D01*
X933196Y739140D02*
X936244D01*
X934720Y737616D02*
Y740664D01*
X609854Y822960D02*
X614426D01*
X612140Y820674D02*
Y825246D01*
X1105154Y736600D02*
X1109726D01*
X1107440Y734314D02*
Y738886D01*
X1094994Y574040D02*
X1099566D01*
X1097280Y571754D02*
Y576326D01*
X607314Y958850D02*
X611886D01*
X609600Y956564D02*
Y961136D01*
X1046734Y736600D02*
X1051306D01*
X1049020Y734314D02*
Y738886D01*
X1094994Y464820D02*
X1099566D01*
X1097280Y462534D02*
Y467106D01*
X209296Y932180D02*
X212344D01*
X210820Y930656D02*
Y933704D01*
X224536Y863600D02*
X227584D01*
X226060Y862076D02*
Y865124D01*
X224536Y812800D02*
X227584D01*
X226060Y811276D02*
Y814324D01*
X227076Y762000D02*
X230124D01*
X228600Y760476D02*
Y763524D01*
X227076Y711200D02*
X230124D01*
X228600Y709676D02*
Y712724D01*
X225806Y660400D02*
X228854D01*
X227330Y658876D02*
Y661924D01*
X411226Y1041400D02*
X414274D01*
X412750Y1039876D02*
Y1042924D01*
X404876Y974090D02*
X407924D01*
X406400Y972566D02*
Y975614D01*
X406146Y941070D02*
X409194D01*
X407670Y939546D02*
Y942594D01*
X404876Y906780D02*
X407924D01*
X406400Y905256D02*
Y908304D01*
X406146Y873760D02*
X409194D01*
X407670Y872236D02*
Y875284D01*
X575056Y833120D02*
X578104D01*
X576580Y831596D02*
Y834644D01*
X667766Y872490D02*
X670814D01*
X669290Y870966D02*
Y874014D01*
X49276Y939800D02*
X52324D01*
X50800Y938276D02*
Y941324D01*
X49276Y889000D02*
X52324D01*
X50800Y887476D02*
Y890524D01*
X49276Y914400D02*
X52324D01*
X50800Y912876D02*
Y915924D01*
X49276Y863600D02*
X52324D01*
X50800Y862076D02*
Y865124D01*
X49276Y838200D02*
X52324D01*
X50800Y836676D02*
Y839724D01*
X49276Y812800D02*
X52324D01*
X50800Y811276D02*
Y814324D01*
X49276Y787400D02*
X52324D01*
X50800Y785876D02*
Y788924D01*
X49276Y762000D02*
X52324D01*
X50800Y760476D02*
Y763524D01*
X49276Y736600D02*
X52324D01*
X50800Y735076D02*
Y738124D01*
X49276Y711200D02*
X52324D01*
X50800Y709676D02*
Y712724D01*
X49276Y685800D02*
X52324D01*
X50800Y684276D02*
Y687324D01*
X49276Y660400D02*
X52324D01*
X50800Y658876D02*
Y661924D01*
X150876Y660400D02*
X153924D01*
X152400Y658876D02*
Y661924D01*
X150876Y711200D02*
X153924D01*
X152400Y709676D02*
Y712724D01*
X150876Y736600D02*
X153924D01*
X152400Y735076D02*
Y738124D01*
X150876Y762000D02*
X153924D01*
X152400Y760476D02*
Y763524D01*
X150876Y812800D02*
X153924D01*
X152400Y811276D02*
Y814324D01*
X150876Y838200D02*
X153924D01*
X152400Y836676D02*
Y839724D01*
X150876Y863600D02*
X153924D01*
X152400Y862076D02*
Y865124D01*
X150876Y914400D02*
X153924D01*
X152400Y912876D02*
Y915924D01*
X150876Y939800D02*
X153924D01*
X152400Y938276D02*
Y941324D01*
X176276Y965200D02*
X179324D01*
X177800Y963676D02*
Y966724D01*
X201676Y965200D02*
X204724D01*
X203200Y963676D02*
Y966724D01*
X201676Y990600D02*
X204724D01*
X203200Y989076D02*
Y992124D01*
X201676Y1016000D02*
X204724D01*
X203200Y1014476D02*
Y1017524D01*
X201676Y1041400D02*
X204724D01*
X203200Y1039876D02*
Y1042924D01*
X201676Y1066800D02*
X204724D01*
X203200Y1065276D02*
Y1068324D01*
X227076Y1066800D02*
X230124D01*
X228600Y1065276D02*
Y1068324D01*
X252476Y1066800D02*
X255524D01*
X254000Y1065276D02*
Y1068324D01*
X277876Y1066800D02*
X280924D01*
X279400Y1065276D02*
Y1068324D01*
X303276Y1066800D02*
X306324D01*
X304800Y1065276D02*
Y1068324D01*
X328676Y1066800D02*
X331724D01*
X330200Y1065276D02*
Y1068324D01*
X354076Y1066800D02*
X357124D01*
X355600Y1065276D02*
Y1068324D01*
X379476Y1066800D02*
X382524D01*
X381000Y1065276D02*
Y1068324D01*
X404876Y1066800D02*
X407924D01*
X406400Y1065276D02*
Y1068324D01*
X430276Y1066800D02*
X433324D01*
X431800Y1065276D02*
Y1068324D01*
X455676Y1066800D02*
X458724D01*
X457200Y1065276D02*
Y1068324D01*
X481076Y1066800D02*
X484124D01*
X482600Y1065276D02*
Y1068324D01*
X506476Y1066800D02*
X509524D01*
X508000Y1065276D02*
Y1068324D01*
X531876Y1066800D02*
X534924D01*
X533400Y1065276D02*
Y1068324D01*
X557276Y1066800D02*
X560324D01*
X558800Y1065276D02*
Y1068324D01*
X557276Y1016000D02*
X560324D01*
X558800Y1014476D02*
Y1017524D01*
X557276Y965200D02*
X560324D01*
X558800Y963676D02*
Y966724D01*
X506476Y965200D02*
X509524D01*
X508000Y963676D02*
Y966724D01*
X506476Y1016000D02*
X509524D01*
X508000Y1014476D02*
Y1017524D01*
X455676Y1016000D02*
X458724D01*
X457200Y1014476D02*
Y1017524D01*
X455676Y868680D02*
X458724D01*
X457200Y867156D02*
Y870204D01*
X506476Y868680D02*
X509524D01*
X508000Y867156D02*
Y870204D01*
X557276Y868680D02*
X560324D01*
X558800Y867156D02*
Y870204D01*
X336296Y863600D02*
X339344D01*
X337820Y862076D02*
Y865124D01*
X303276Y863600D02*
X306324D01*
X304800Y862076D02*
Y865124D01*
X303276Y812800D02*
X306324D01*
X304800Y811276D02*
Y814324D01*
X252476Y1016000D02*
X255524D01*
X254000Y1014476D02*
Y1017524D01*
X252476Y762000D02*
X255524D01*
X254000Y760476D02*
Y763524D01*
X658876Y711200D02*
X661924D01*
X660400Y709676D02*
Y712724D01*
X658876Y558800D02*
X661924D01*
X660400Y557276D02*
Y560324D01*
X709676Y457200D02*
X712724D01*
X711200Y455676D02*
Y458724D01*
X709676Y558800D02*
X712724D01*
X711200Y557276D02*
Y560324D01*
X303276Y1041400D02*
X306324D01*
X304800Y1039876D02*
Y1042924D01*
X227076Y1041400D02*
X230124D01*
X228600Y1039876D02*
Y1042924D01*
X328676Y838200D02*
X331724D01*
X330200Y836676D02*
Y839724D01*
X735076Y889000D02*
X738124D01*
X736600Y887476D02*
Y890524D01*
X785876Y838200D02*
X788924D01*
X787400Y836676D02*
Y839724D01*
X768096Y838200D02*
X771144D01*
X769620Y836676D02*
Y839724D01*
X735076Y863600D02*
X738124D01*
X736600Y862076D02*
Y865124D01*
X760476Y889000D02*
X763524D01*
X762000Y887476D02*
Y890524D01*
X684276Y838200D02*
X687324D01*
X685800Y836676D02*
Y839724D01*
X735076Y787400D02*
X738124D01*
X736600Y785876D02*
Y788924D01*
X735076Y736600D02*
X738124D01*
X736600Y735076D02*
Y738124D01*
X735076Y685800D02*
X738124D01*
X736600Y684276D02*
Y687324D01*
X735076Y635000D02*
X738124D01*
X736600Y633476D02*
Y636524D01*
X735076Y584200D02*
X738124D01*
X736600Y582676D02*
Y585724D01*
X735076Y533400D02*
X738124D01*
X736600Y531876D02*
Y534924D01*
X735076Y482600D02*
X738124D01*
X736600Y481076D02*
Y484124D01*
X735076Y431800D02*
X738124D01*
X736600Y430276D02*
Y433324D01*
X684276Y431800D02*
X687324D01*
X685800Y430276D02*
Y433324D01*
X658876Y431800D02*
X661924D01*
X660400Y430276D02*
Y433324D01*
X709676Y431800D02*
X712724D01*
X711200Y430276D02*
Y433324D01*
X684276Y584200D02*
X687324D01*
X685800Y582676D02*
Y585724D01*
X633476Y635000D02*
X636524D01*
X635000Y633476D02*
Y636524D01*
X633476Y482600D02*
X636524D01*
X635000Y481076D02*
Y484124D01*
X633476Y609600D02*
X636524D01*
X635000Y608076D02*
Y611124D01*
X633476Y762000D02*
X636524D01*
X635000Y760476D02*
Y763524D01*
X684276Y736600D02*
X687324D01*
X685800Y735076D02*
Y738124D01*
X684276Y762000D02*
X687324D01*
X685800Y760476D02*
Y763524D01*
X684276Y685800D02*
X687324D01*
X685800Y684276D02*
Y687324D01*
X633476Y685800D02*
X636524D01*
X635000Y684276D02*
Y687324D01*
X531876Y990600D02*
X534924D01*
X533400Y989076D02*
Y992124D01*
X531876Y1041400D02*
X534924D01*
X533400Y1039876D02*
Y1042924D01*
X481076Y1041400D02*
X484124D01*
X482600Y1039876D02*
Y1042924D01*
X437896Y911860D02*
X440944D01*
X439420Y910336D02*
Y913384D01*
X412496Y924560D02*
X415544D01*
X414020Y923036D02*
Y926084D01*
X371856Y924560D02*
X374904D01*
X373380Y923036D02*
Y926084D01*
X348996Y927100D02*
X352044D01*
X350520Y925576D02*
Y928624D01*
X351536Y952500D02*
X354584D01*
X353060Y950976D02*
Y954024D01*
X463296Y939800D02*
X466344D01*
X464820Y938276D02*
Y941324D01*
X450596Y952500D02*
X453644D01*
X452120Y950976D02*
Y954024D01*
X351536Y982980D02*
X354584D01*
X353060Y981456D02*
Y984504D01*
X351536Y894080D02*
X354584D01*
X353060Y892556D02*
Y895604D01*
X255016Y960120D02*
X258064D01*
X256540Y958596D02*
Y961644D01*
X285496Y972820D02*
X288544D01*
X287020Y971296D02*
Y974344D01*
X625856Y993140D02*
X628904D01*
X627380Y991616D02*
Y994664D01*
X646176Y993140D02*
X649224D01*
X647700Y991616D02*
Y994664D01*
X1057656Y802640D02*
X1060704D01*
X1059180Y801116D02*
Y804164D01*
X1071626Y720090D02*
X1074674D01*
X1073150Y718566D02*
Y721614D01*
X633476Y1066800D02*
X636524D01*
X635000Y1065276D02*
Y1068324D01*
X684276Y1066800D02*
X687324D01*
X685800Y1065276D02*
Y1068324D01*
X735076Y1066800D02*
X738124D01*
X736600Y1065276D02*
Y1068324D01*
X785876Y1066800D02*
X788924D01*
X787400Y1065276D02*
Y1068324D01*
X836676Y1066800D02*
X839724D01*
X838200Y1065276D02*
Y1068324D01*
X887476Y1066800D02*
X890524D01*
X889000Y1065276D02*
Y1068324D01*
X938276Y1066800D02*
X941324D01*
X939800Y1065276D02*
Y1068324D01*
X989076Y1066800D02*
X992124D01*
X990600Y1065276D02*
Y1068324D01*
X1039876Y1066800D02*
X1042924D01*
X1041400Y1065276D02*
Y1068324D01*
X1090676Y1066800D02*
X1093724D01*
X1092200Y1065276D02*
Y1068324D01*
X1116076Y1066800D02*
X1119124D01*
X1117600Y1065276D02*
Y1068324D01*
X1116076Y1016000D02*
X1119124D01*
X1117600Y1014476D02*
Y1017524D01*
X1116076Y965200D02*
X1119124D01*
X1117600Y963676D02*
Y966724D01*
X1116076Y914400D02*
X1119124D01*
X1117600Y912876D02*
Y915924D01*
X1116076Y863600D02*
X1119124D01*
X1117600Y862076D02*
Y865124D01*
X1116076Y812800D02*
X1119124D01*
X1117600Y811276D02*
Y814324D01*
X633476Y1016000D02*
X636524D01*
X635000Y1014476D02*
Y1017524D01*
X658876Y1016000D02*
X661924D01*
X660400Y1014476D02*
Y1017524D01*
X1116076Y76200D02*
X1119124D01*
X1117600Y74676D02*
Y77724D01*
X1039876Y76200D02*
X1042924D01*
X1041400Y74676D02*
Y77724D01*
X989076Y76200D02*
X992124D01*
X990600Y74676D02*
Y77724D01*
X938276Y76200D02*
X941324D01*
X939800Y74676D02*
Y77724D01*
X887476Y76200D02*
X890524D01*
X889000Y74676D02*
Y77724D01*
X836676Y76200D02*
X839724D01*
X838200Y74676D02*
Y77724D01*
X785876Y76200D02*
X788924D01*
X787400Y74676D02*
Y77724D01*
X1090676Y76200D02*
X1093724D01*
X1092200Y74676D02*
Y77724D01*
X1116076Y127000D02*
X1119124D01*
X1117600Y125476D02*
Y128524D01*
X1116076Y177800D02*
X1119124D01*
X1117600Y176276D02*
Y179324D01*
X1116076Y228600D02*
X1119124D01*
X1117600Y227076D02*
Y230124D01*
X1116076Y279400D02*
X1119124D01*
X1117600Y277876D02*
Y280924D01*
X1116076Y330200D02*
X1119124D01*
X1117600Y328676D02*
Y331724D01*
X1116076Y381000D02*
X1119124D01*
X1117600Y379476D02*
Y382524D01*
X1116076Y431800D02*
X1119124D01*
X1117600Y430276D02*
Y433324D01*
X1116076Y482600D02*
X1119124D01*
X1117600Y481076D02*
Y484124D01*
X1116076Y533400D02*
X1119124D01*
X1117600Y531876D02*
Y534924D01*
X1116076Y584200D02*
X1119124D01*
X1117600Y582676D02*
Y585724D01*
X1095756Y819760D02*
X1098804D01*
X1097280Y818236D02*
Y821284D01*
X785876Y355600D02*
X788924D01*
X787400Y354076D02*
Y357124D01*
X785876Y406400D02*
X788924D01*
X787400Y404876D02*
Y407924D01*
X785876Y457200D02*
X788924D01*
X787400Y455676D02*
Y458724D01*
X785876Y508000D02*
X788924D01*
X787400Y506476D02*
Y509524D01*
X785876Y558800D02*
X788924D01*
X787400Y557276D02*
Y560324D01*
X785876Y609600D02*
X788924D01*
X787400Y608076D02*
Y611124D01*
X785876Y660400D02*
X788924D01*
X787400Y658876D02*
Y661924D01*
X785876Y711200D02*
X788924D01*
X787400Y709676D02*
Y712724D01*
X785876Y762000D02*
X788924D01*
X787400Y760476D02*
Y763524D01*
X785876Y812800D02*
X788924D01*
X787400Y811276D02*
Y814324D01*
X836676Y863600D02*
X839724D01*
X838200Y862076D02*
Y865124D01*
X887476Y889000D02*
X890524D01*
X889000Y887476D02*
Y890524D01*
X963676Y939800D02*
X966724D01*
X965200Y938276D02*
Y941324D01*
X755396Y990600D02*
X758444D01*
X756920Y989076D02*
Y992124D01*
X740156Y970280D02*
X743204D01*
X741680Y968756D02*
Y971804D01*
X750316Y927100D02*
X753364D01*
X751840Y925576D02*
Y928624D01*
X765556Y909320D02*
X768604D01*
X767080Y907796D02*
Y910844D01*
X821436Y990600D02*
X824484D01*
X822960Y989076D02*
Y992124D01*
X897636Y990600D02*
X900684D01*
X899160Y989076D02*
Y992124D01*
X948436Y990600D02*
X951484D01*
X949960Y989076D02*
Y992124D01*
X989076Y889000D02*
X992124D01*
X990600Y887476D02*
Y890524D01*
X989076Y853440D02*
X992124D01*
X990600Y851916D02*
Y854964D01*
X1044956Y878840D02*
X1048004D01*
X1046480Y877316D02*
Y880364D01*
X1044956Y848360D02*
X1048004D01*
X1046480Y846836D02*
Y849884D01*
X1019556Y731520D02*
X1022604D01*
X1021080Y729996D02*
Y733044D01*
X953516Y680720D02*
X956564D01*
X955040Y679196D02*
Y682244D01*
X923036Y680720D02*
X926084D01*
X924560Y679196D02*
Y682244D01*
X933196Y645160D02*
X936244D01*
X934720Y643636D02*
Y646684D01*
X958596Y645160D02*
X961644D01*
X960120Y643636D02*
Y646684D01*
X877316Y635000D02*
X880364D01*
X878840Y633476D02*
Y636524D01*
X836676Y635000D02*
X839724D01*
X838200Y633476D02*
Y636524D01*
X831596Y680720D02*
X834644D01*
X833120Y679196D02*
Y682244D01*
X836676Y609600D02*
X839724D01*
X838200Y608076D02*
Y611124D01*
X836676Y558800D02*
X839724D01*
X838200Y557276D02*
Y560324D01*
X836676Y508000D02*
X839724D01*
X838200Y506476D02*
Y509524D01*
X836676Y457200D02*
X839724D01*
X838200Y455676D02*
Y458724D01*
X836676Y406400D02*
X839724D01*
X838200Y404876D02*
Y407924D01*
X836676Y355600D02*
X839724D01*
X838200Y354076D02*
Y357124D01*
X836676Y289560D02*
X839724D01*
X838200Y288036D02*
Y291084D01*
X872236Y274320D02*
X875284D01*
X873760Y272796D02*
Y275844D01*
X846836Y187960D02*
X849884D01*
X848360Y186436D02*
Y189484D01*
X872236Y187960D02*
X875284D01*
X873760Y186436D02*
Y189484D01*
X836676Y116840D02*
X839724D01*
X838200Y115316D02*
Y118364D01*
X887476Y116840D02*
X890524D01*
X889000Y115316D02*
Y118364D01*
X938276Y127000D02*
X941324D01*
X939800Y125476D02*
Y128524D01*
X989076Y127000D02*
X992124D01*
X990600Y125476D02*
Y128524D01*
X1039876Y127000D02*
X1042924D01*
X1041400Y125476D02*
Y128524D01*
X1090676Y127000D02*
X1093724D01*
X1092200Y125476D02*
Y128524D01*
X1090676Y177800D02*
X1093724D01*
X1092200Y176276D02*
Y179324D01*
X1039876Y177800D02*
X1042924D01*
X1041400Y176276D02*
Y179324D01*
X1014476Y177800D02*
X1017524D01*
X1016000Y176276D02*
Y179324D01*
X989076Y203200D02*
X992124D01*
X990600Y201676D02*
Y204724D01*
X1014476Y254000D02*
X1017524D01*
X1016000Y252476D02*
Y255524D01*
X1065276Y304800D02*
X1068324D01*
X1066800Y303276D02*
Y306324D01*
X1014476Y330200D02*
X1017524D01*
X1016000Y328676D02*
Y331724D01*
X989076Y330200D02*
X992124D01*
X990600Y328676D02*
Y331724D01*
X989076Y304800D02*
X992124D01*
X990600Y303276D02*
Y306324D01*
X1039876Y355600D02*
X1042924D01*
X1041400Y354076D02*
Y357124D01*
X1065276Y254000D02*
X1068324D01*
X1066800Y252476D02*
Y255524D01*
X1090676Y254000D02*
X1093724D01*
X1092200Y252476D02*
Y255524D01*
X1065276Y203200D02*
X1068324D01*
X1066800Y201676D02*
Y204724D01*
X938276Y152400D02*
X941324D01*
X939800Y150876D02*
Y153924D01*
X963676Y177800D02*
X966724D01*
X965200Y176276D02*
Y179324D01*
X887476Y355600D02*
X890524D01*
X889000Y354076D02*
Y357124D01*
X963676Y508000D02*
X966724D01*
X965200Y506476D02*
Y509524D01*
X938276Y533400D02*
X941324D01*
X939800Y531876D02*
Y534924D01*
X938276Y482600D02*
X941324D01*
X939800Y481076D02*
Y484124D01*
X989076Y482600D02*
X992124D01*
X990600Y481076D02*
Y484124D01*
X836676Y838200D02*
X839724D01*
X838200Y836676D02*
Y839724D01*
X912876Y889000D02*
X915924D01*
X914400Y887476D02*
Y890524D01*
X912876Y939800D02*
X915924D01*
X914400Y938276D02*
Y941324D01*
X1014476Y965200D02*
X1017524D01*
X1016000Y963676D02*
Y966724D01*
X897636Y762000D02*
X900684D01*
X899160Y760476D02*
Y763524D01*
X821436Y767080D02*
X824484D01*
X822960Y765556D02*
Y768604D01*
X689356Y822960D02*
X692404D01*
X690880Y821436D02*
Y824484D01*
X389636Y990600D02*
X392684D01*
X391160Y989076D02*
Y992124D01*
X884936Y802640D02*
X887984D01*
X886460Y801116D02*
Y804164D01*
X1060196Y718820D02*
X1063244D01*
X1061720Y717296D02*
Y720344D01*
X910336Y406400D02*
X913384D01*
X911860Y404876D02*
Y407924D01*
X933196Y393700D02*
X936244D01*
X934720Y392176D02*
Y395224D01*
X950976Y365760D02*
X954024D01*
X952500Y364236D02*
Y367284D01*
X986536Y353060D02*
X989584D01*
X988060Y351536D02*
Y354584D01*
X996696Y795020D02*
X999744D01*
X998220Y793496D02*
Y796544D01*
X1017016Y795020D02*
X1020064D01*
X1018540Y793496D02*
Y796544D01*
X1036066Y795020D02*
X1039114D01*
X1037590Y793496D02*
Y796544D01*
M02*
